<?xml version="1.0" encoding="utf-8" standalone="no"?>
<!DOCTYPE svg PUBLIC "-//W3C//DTD SVG 1.1//EN"
  "http://www.w3.org/Graphics/SVG/1.1/DTD/svg11.dtd">
<!-- Created with matplotlib (https://matplotlib.org/) -->
<svg height="345.6pt" version="1.1" viewBox="0 0 460.8 345.6" width="460.8pt" xmlns="http://www.w3.org/2000/svg" xmlns:xlink="http://www.w3.org/1999/xlink">
 <defs>
  <style type="text/css">
*{stroke-linecap:butt;stroke-linejoin:round;}
  </style>
 </defs>
 <g id="figure_1">
  <g id="patch_1">
   <path d="M 0 345.6 
L 460.8 345.6 
L 460.8 0 
L 0 0 
z
" style="fill:#ffffff;"/>
  </g>
  <g id="axes_1">
   <g id="patch_2">
    <path d="M 54.02 303.64 
L 377.154 303.64 
L 377.154 10.8 
L 54.02 10.8 
z
" style="fill:#ffffff;"/>
   </g>
   <g id="PolyCollection_1">
    <defs>
     <path d="M 171.82298 -159.287079 
L 97.78402 -159.287079 
L 96.70626 -160.063822 
L 95.65738 -160.840566 
L 94.639644 -161.617309 
L 93.655014 -162.394052 
L 92.705134 -163.170795 
L 91.791315 -163.947539 
L 90.914532 -164.724282 
L 90.075419 -165.501025 
L 89.274278 -166.277769 
L 88.511083 -167.054512 
L 87.785497 -167.831255 
L 87.096896 -168.607999 
L 86.444388 -169.384742 
L 85.82685 -170.161485 
L 85.242957 -170.938229 
L 84.691223 -171.714972 
L 84.17004 -172.491715 
L 83.677723 -173.268459 
L 83.212551 -174.045202 
L 82.772819 -174.821945 
L 82.356875 -175.598689 
L 81.963169 -176.375432 
L 81.590291 -177.152175 
L 81.237012 -177.928919 
L 80.902318 -178.705662 
L 80.58544 -179.482405 
L 80.285876 -180.259149 
L 80.003416 -181.035892 
L 79.738148 -181.812635 
L 79.490467 -182.589379 
L 79.261071 -183.366122 
L 79.050956 -184.142865 
L 78.861395 -184.919608 
L 78.693918 -185.696352 
L 78.550282 -186.473095 
L 78.432435 -187.249838 
L 78.342472 -188.026582 
L 78.282593 -188.803325 
L 78.25505 -189.580068 
L 78.262095 -190.356812 
L 78.305926 -191.133555 
L 78.388626 -191.910298 
L 78.512116 -192.687042 
L 78.678094 -193.463785 
L 78.887988 -194.240528 
L 79.142909 -195.017272 
L 79.443605 -195.794015 
L 79.790429 -196.570758 
L 80.183306 -197.347502 
L 80.621715 -198.124245 
L 81.104669 -198.900988 
L 81.630715 -199.677732 
L 82.197936 -200.454475 
L 82.803961 -201.231218 
L 83.445986 -202.007962 
L 84.120809 -202.784705 
L 84.824858 -203.561448 
L 85.554245 -204.338192 
L 86.30481 -205.114935 
L 87.072184 -205.891678 
L 87.851845 -206.668422 
L 88.639191 -207.445165 
L 89.429597 -208.221908 
L 90.218496 -208.998651 
L 91.001436 -209.775395 
L 91.774153 -210.552138 
L 92.532637 -211.328881 
L 93.273185 -212.105625 
L 93.992463 -212.882368 
L 94.687551 -213.659111 
L 95.355985 -214.435855 
L 95.995797 -215.212598 
L 96.605531 -215.989341 
L 97.184269 -216.766085 
L 97.731636 -217.542828 
L 98.247798 -218.319571 
L 98.733455 -219.096315 
L 99.189818 -219.873058 
L 99.618588 -220.649801 
L 100.021916 -221.426545 
L 100.402365 -222.203288 
L 100.762858 -222.980031 
L 101.106631 -223.756775 
L 101.437168 -224.533518 
L 101.758148 -225.310261 
L 102.073376 -226.087005 
L 102.386721 -226.863748 
L 102.702055 -227.640491 
L 103.023187 -228.417235 
L 103.353807 -229.193978 
L 103.697424 -229.970721 
L 104.057319 -230.747465 
L 104.436493 -231.524208 
L 104.837626 -232.300951 
L 105.263045 -233.077694 
L 105.714688 -233.854438 
L 106.194087 -234.631181 
L 106.70235 -235.407924 
L 107.240153 -236.184668 
L 162.366847 -236.184668 
L 162.366847 -236.184668 
L 162.90465 -235.407924 
L 163.412913 -234.631181 
L 163.892312 -233.854438 
L 164.343955 -233.077694 
L 164.769374 -232.300951 
L 165.170507 -231.524208 
L 165.549681 -230.747465 
L 165.909576 -229.970721 
L 166.253193 -229.193978 
L 166.583813 -228.417235 
L 166.904945 -227.640491 
L 167.220279 -226.863748 
L 167.533624 -226.087005 
L 167.848852 -225.310261 
L 168.169832 -224.533518 
L 168.500369 -223.756775 
L 168.844142 -222.980031 
L 169.204635 -222.203288 
L 169.585084 -221.426545 
L 169.988412 -220.649801 
L 170.417182 -219.873058 
L 170.873545 -219.096315 
L 171.359202 -218.319571 
L 171.875364 -217.542828 
L 172.422731 -216.766085 
L 173.001469 -215.989341 
L 173.611203 -215.212598 
L 174.251015 -214.435855 
L 174.919449 -213.659111 
L 175.614537 -212.882368 
L 176.333815 -212.105625 
L 177.074363 -211.328881 
L 177.832847 -210.552138 
L 178.605564 -209.775395 
L 179.388504 -208.998651 
L 180.177403 -208.221908 
L 180.967809 -207.445165 
L 181.755155 -206.668422 
L 182.534816 -205.891678 
L 183.30219 -205.114935 
L 184.052755 -204.338192 
L 184.782142 -203.561448 
L 185.486191 -202.784705 
L 186.161014 -202.007962 
L 186.803039 -201.231218 
L 187.409064 -200.454475 
L 187.976285 -199.677732 
L 188.502331 -198.900988 
L 188.985285 -198.124245 
L 189.423694 -197.347502 
L 189.816571 -196.570758 
L 190.163395 -195.794015 
L 190.464091 -195.017272 
L 190.719012 -194.240528 
L 190.928906 -193.463785 
L 191.094884 -192.687042 
L 191.218374 -191.910298 
L 191.301074 -191.133555 
L 191.344905 -190.356812 
L 191.35195 -189.580068 
L 191.324407 -188.803325 
L 191.264528 -188.026582 
L 191.174565 -187.249838 
L 191.056718 -186.473095 
L 190.913082 -185.696352 
L 190.745605 -184.919608 
L 190.556044 -184.142865 
L 190.345929 -183.366122 
L 190.116533 -182.589379 
L 189.868852 -181.812635 
L 189.603584 -181.035892 
L 189.321124 -180.259149 
L 189.02156 -179.482405 
L 188.704682 -178.705662 
L 188.369988 -177.928919 
L 188.016709 -177.152175 
L 187.643831 -176.375432 
L 187.250125 -175.598689 
L 186.834181 -174.821945 
L 186.394449 -174.045202 
L 185.929277 -173.268459 
L 185.43696 -172.491715 
L 184.915777 -171.714972 
L 184.364043 -170.938229 
L 183.78015 -170.161485 
L 183.162612 -169.384742 
L 182.510104 -168.607999 
L 181.821503 -167.831255 
L 181.095917 -167.054512 
L 180.332722 -166.277769 
L 179.531581 -165.501025 
L 178.692468 -164.724282 
L 177.815685 -163.947539 
L 176.901866 -163.170795 
L 175.951986 -162.394052 
L 174.967356 -161.617309 
L 173.94962 -160.840566 
L 172.90074 -160.063822 
L 171.82298 -159.287079 
z
" id="m9c20bf31e1" style="stroke:#000000;"/>
    </defs>
    <g clip-path="url(#p1b74a54245)">
     <use style="fill:#e41a1c;stroke:#000000;" x="0" xlink:href="#m9c20bf31e1" y="345.6"/>
    </g>
   </g>
   <g id="PolyCollection_2">
    <defs>
     <path d="M 303.150065 -62.582535 
L 289.590935 -62.582535 
L 288.727464 -64.66562 
L 287.770059 -66.748704 
L 286.71284 -68.831788 
L 285.55096 -70.914873 
L 284.280979 -72.997957 
L 282.901231 -75.081041 
L 281.412196 -77.164126 
L 279.816819 -79.24721 
L 278.120791 -81.330294 
L 276.332746 -83.413379 
L 274.464376 -85.496463 
L 272.530432 -87.579548 
L 270.548621 -89.662632 
L 268.539376 -91.745716 
L 266.52551 -93.828801 
L 264.531764 -95.911885 
L 262.584251 -97.994969 
L 260.709826 -100.078054 
L 258.935391 -102.161138 
L 257.287176 -104.244223 
L 255.790009 -106.327307 
L 254.4666 -108.410391 
L 253.336886 -110.493476 
L 252.417433 -112.57656 
L 251.720933 -114.659644 
L 251.255806 -116.742729 
L 251.025924 -118.825813 
L 251.030455 -120.908897 
L 251.263838 -122.991982 
L 251.71589 -125.075066 
L 252.372025 -127.158151 
L 253.213594 -129.241235 
L 254.218321 -131.324319 
L 255.36083 -133.407404 
L 256.613233 -135.490488 
L 257.945781 -137.573572 
L 259.327536 -139.656657 
L 260.727067 -141.739741 
L 262.113131 -143.822825 
L 263.455334 -145.90591 
L 264.724751 -147.988994 
L 265.894486 -150.072079 
L 266.940167 -152.155163 
L 267.840352 -154.238247 
L 268.57686 -156.321332 
L 269.135001 -158.404416 
L 269.503724 -160.4875 
L 269.675669 -162.570585 
L 269.647143 -164.653669 
L 269.418022 -166.736753 
L 268.991583 -168.819838 
L 268.374286 -170.902922 
L 267.575515 -172.986007 
L 266.607284 -175.069091 
L 265.483921 -177.152175 
L 264.22174 -179.23526 
L 262.83871 -181.318344 
L 261.354123 -183.401428 
L 259.788266 -185.484513 
L 258.162113 -187.567597 
L 256.49702 -189.650681 
L 254.814444 -191.733766 
L 253.135679 -193.81685 
L 251.481607 -195.899935 
L 249.872483 -197.983019 
L 248.32773 -200.066103 
L 246.865766 -202.149188 
L 245.503856 -204.232272 
L 244.257983 -206.315356 
L 243.142751 -208.398441 
L 242.1713 -210.481525 
L 241.355249 -212.564609 
L 240.704652 -214.647694 
L 240.227967 -216.730778 
L 239.932033 -218.813863 
L 239.82205 -220.896947 
L 239.90157 -222.980031 
L 240.172477 -225.063116 
L 240.634969 -227.1462 
L 241.287539 -229.229284 
L 242.126961 -231.312369 
L 243.148269 -233.395453 
L 244.344757 -235.478537 
L 245.70798 -237.561622 
L 247.227787 -239.644706 
L 248.892371 -241.727791 
L 250.688355 -243.810875 
L 252.600912 -245.893959 
L 254.613928 -247.977044 
L 256.710194 -250.060128 
L 258.871647 -252.143212 
L 261.079642 -254.226297 
L 263.315248 -256.309381 
L 265.559564 -258.392466 
L 267.794051 -260.47555 
L 270.000855 -262.558634 
L 272.163122 -264.641719 
L 274.265283 -266.724803 
L 276.293314 -268.807887 
L 316.447686 -268.807887 
L 316.447686 -268.807887 
L 318.475717 -266.724803 
L 320.577878 -264.641719 
L 322.740145 -262.558634 
L 324.946949 -260.47555 
L 327.181436 -258.392466 
L 329.425752 -256.309381 
L 331.661358 -254.226297 
L 333.869353 -252.143212 
L 336.030806 -250.060128 
L 338.127072 -247.977044 
L 340.140088 -245.893959 
L 342.052645 -243.810875 
L 343.848629 -241.727791 
L 345.513213 -239.644706 
L 347.03302 -237.561622 
L 348.396243 -235.478537 
L 349.592731 -233.395453 
L 350.614039 -231.312369 
L 351.453461 -229.229284 
L 352.106031 -227.1462 
L 352.568523 -225.063116 
L 352.83943 -222.980031 
L 352.91895 -220.896947 
L 352.808967 -218.813863 
L 352.513033 -216.730778 
L 352.036348 -214.647694 
L 351.385751 -212.564609 
L 350.5697 -210.481525 
L 349.598249 -208.398441 
L 348.483017 -206.315356 
L 347.237144 -204.232272 
L 345.875234 -202.149188 
L 344.41327 -200.066103 
L 342.868517 -197.983019 
L 341.259393 -195.899935 
L 339.605321 -193.81685 
L 337.926556 -191.733766 
L 336.24398 -189.650681 
L 334.578887 -187.567597 
L 332.952734 -185.484513 
L 331.386877 -183.401428 
L 329.90229 -181.318344 
L 328.51926 -179.23526 
L 327.257079 -177.152175 
L 326.133716 -175.069091 
L 325.165485 -172.986007 
L 324.366714 -170.902922 
L 323.749417 -168.819838 
L 323.322978 -166.736753 
L 323.093857 -164.653669 
L 323.065331 -162.570585 
L 323.237276 -160.4875 
L 323.605999 -158.404416 
L 324.16414 -156.321332 
L 324.900648 -154.238247 
L 325.800833 -152.155163 
L 326.846514 -150.072079 
L 328.016249 -147.988994 
L 329.285666 -145.90591 
L 330.627869 -143.822825 
L 332.013933 -141.739741 
L 333.413464 -139.656657 
L 334.795219 -137.573572 
L 336.127767 -135.490488 
L 337.38017 -133.407404 
L 338.522679 -131.324319 
L 339.527406 -129.241235 
L 340.368975 -127.158151 
L 341.02511 -125.075066 
L 341.477162 -122.991982 
L 341.710545 -120.908897 
L 341.715076 -118.825813 
L 341.485194 -116.742729 
L 341.020067 -114.659644 
L 340.323567 -112.57656 
L 339.404114 -110.493476 
L 338.2744 -108.410391 
L 336.950991 -106.327307 
L 335.453824 -104.244223 
L 333.805609 -102.161138 
L 332.031174 -100.078054 
L 330.156749 -97.994969 
L 328.209236 -95.911885 
L 326.21549 -93.828801 
L 324.201624 -91.745716 
L 322.192379 -89.662632 
L 320.210568 -87.579548 
L 318.276624 -85.496463 
L 316.408254 -83.413379 
L 314.620209 -81.330294 
L 312.924181 -79.24721 
L 311.328804 -77.164126 
L 309.839769 -75.081041 
L 308.460021 -72.997957 
L 307.19004 -70.914873 
L 306.02816 -68.831788 
L 304.970941 -66.748704 
L 304.013536 -64.66562 
L 303.150065 -62.582535 
z
" id="m80136dd6f0" style="stroke:#000000;"/>
    </defs>
    <g clip-path="url(#p1b74a54245)">
     <use style="fill:#377eb8;stroke:#000000;" x="0" xlink:href="#m80136dd6f0" y="345.6"/>
    </g>
   </g>
   <g id="matplotlib.axis_1">
    <g id="xtick_1">
     <g id="line2d_1">
      <defs>
       <path d="M 0 0 
L 0 3.5 
" id="m1de690f084" style="stroke:#000000;stroke-width:0.8;"/>
      </defs>
      <g>
       <use style="stroke:#000000;stroke-width:0.8;" x="134.8035" xlink:href="#m1de690f084" y="303.64"/>
      </g>
     </g>
     <g id="text_1">
      <!-- 308 -->
      <defs>
       <path d="M 40.578125 39.3125 
Q 47.65625 37.796875 51.625 33 
Q 55.609375 28.21875 55.609375 21.1875 
Q 55.609375 10.40625 48.1875 4.484375 
Q 40.765625 -1.421875 27.09375 -1.421875 
Q 22.515625 -1.421875 17.65625 -0.515625 
Q 12.796875 0.390625 7.625 2.203125 
L 7.625 11.71875 
Q 11.71875 9.328125 16.59375 8.109375 
Q 21.484375 6.890625 26.8125 6.890625 
Q 36.078125 6.890625 40.9375 10.546875 
Q 45.796875 14.203125 45.796875 21.1875 
Q 45.796875 27.640625 41.28125 31.265625 
Q 36.765625 34.90625 28.71875 34.90625 
L 20.21875 34.90625 
L 20.21875 43.015625 
L 29.109375 43.015625 
Q 36.375 43.015625 40.234375 45.921875 
Q 44.09375 48.828125 44.09375 54.296875 
Q 44.09375 59.90625 40.109375 62.90625 
Q 36.140625 65.921875 28.71875 65.921875 
Q 24.65625 65.921875 20.015625 65.03125 
Q 15.375 64.15625 9.8125 62.3125 
L 9.8125 71.09375 
Q 15.4375 72.65625 20.34375 73.4375 
Q 25.25 74.21875 29.59375 74.21875 
Q 40.828125 74.21875 47.359375 69.109375 
Q 53.90625 64.015625 53.90625 55.328125 
Q 53.90625 49.265625 50.4375 45.09375 
Q 46.96875 40.921875 40.578125 39.3125 
z
" id="DejaVuSans-51"/>
       <path d="M 31.78125 66.40625 
Q 24.171875 66.40625 20.328125 58.90625 
Q 16.5 51.421875 16.5 36.375 
Q 16.5 21.390625 20.328125 13.890625 
Q 24.171875 6.390625 31.78125 6.390625 
Q 39.453125 6.390625 43.28125 13.890625 
Q 47.125 21.390625 47.125 36.375 
Q 47.125 51.421875 43.28125 58.90625 
Q 39.453125 66.40625 31.78125 66.40625 
z
M 31.78125 74.21875 
Q 44.046875 74.21875 50.515625 64.515625 
Q 56.984375 54.828125 56.984375 36.375 
Q 56.984375 17.96875 50.515625 8.265625 
Q 44.046875 -1.421875 31.78125 -1.421875 
Q 19.53125 -1.421875 13.0625 8.265625 
Q 6.59375 17.96875 6.59375 36.375 
Q 6.59375 54.828125 13.0625 64.515625 
Q 19.53125 74.21875 31.78125 74.21875 
z
" id="DejaVuSans-48"/>
       <path d="M 31.78125 34.625 
Q 24.75 34.625 20.71875 30.859375 
Q 16.703125 27.09375 16.703125 20.515625 
Q 16.703125 13.921875 20.71875 10.15625 
Q 24.75 6.390625 31.78125 6.390625 
Q 38.8125 6.390625 42.859375 10.171875 
Q 46.921875 13.96875 46.921875 20.515625 
Q 46.921875 27.09375 42.890625 30.859375 
Q 38.875 34.625 31.78125 34.625 
z
M 21.921875 38.8125 
Q 15.578125 40.375 12.03125 44.71875 
Q 8.5 49.078125 8.5 55.328125 
Q 8.5 64.0625 14.71875 69.140625 
Q 20.953125 74.21875 31.78125 74.21875 
Q 42.671875 74.21875 48.875 69.140625 
Q 55.078125 64.0625 55.078125 55.328125 
Q 55.078125 49.078125 51.53125 44.71875 
Q 48 40.375 41.703125 38.8125 
Q 48.828125 37.15625 52.796875 32.3125 
Q 56.78125 27.484375 56.78125 20.515625 
Q 56.78125 9.90625 50.3125 4.234375 
Q 43.84375 -1.421875 31.78125 -1.421875 
Q 19.734375 -1.421875 13.25 4.234375 
Q 6.78125 9.90625 6.78125 20.515625 
Q 6.78125 27.484375 10.78125 32.3125 
Q 14.796875 37.15625 21.921875 38.8125 
z
M 18.3125 54.390625 
Q 18.3125 48.734375 21.84375 45.5625 
Q 25.390625 42.390625 31.78125 42.390625 
Q 38.140625 42.390625 41.71875 45.5625 
Q 45.3125 48.734375 45.3125 54.390625 
Q 45.3125 60.0625 41.71875 63.234375 
Q 38.140625 66.40625 31.78125 66.40625 
Q 25.390625 66.40625 21.84375 63.234375 
Q 18.3125 60.0625 18.3125 54.390625 
z
" id="DejaVuSans-56"/>
      </defs>
      <g transform="translate(125.25975 318.238437)scale(0.1 -0.1)">
       <use xlink:href="#DejaVuSans-51"/>
       <use x="63.623047" xlink:href="#DejaVuSans-48"/>
       <use x="127.246094" xlink:href="#DejaVuSans-56"/>
      </g>
     </g>
    </g>
    <g id="xtick_2">
     <g id="line2d_2">
      <g>
       <use style="stroke:#000000;stroke-width:0.8;" x="296.3705" xlink:href="#m1de690f084" y="303.64"/>
      </g>
     </g>
     <g id="text_2">
      <!-- 307 -->
      <defs>
       <path d="M 8.203125 72.90625 
L 55.078125 72.90625 
L 55.078125 68.703125 
L 28.609375 0 
L 18.3125 0 
L 43.21875 64.59375 
L 8.203125 64.59375 
z
" id="DejaVuSans-55"/>
      </defs>
      <g transform="translate(286.82675 318.238437)scale(0.1 -0.1)">
       <use xlink:href="#DejaVuSans-51"/>
       <use x="63.623047" xlink:href="#DejaVuSans-48"/>
       <use x="127.246094" xlink:href="#DejaVuSans-55"/>
      </g>
     </g>
    </g>
    <g id="text_3">
     <!-- day -->
     <defs>
      <path d="M 45.40625 46.390625 
L 45.40625 75.984375 
L 54.390625 75.984375 
L 54.390625 0 
L 45.40625 0 
L 45.40625 8.203125 
Q 42.578125 3.328125 38.25 0.953125 
Q 33.9375 -1.421875 27.875 -1.421875 
Q 17.96875 -1.421875 11.734375 6.484375 
Q 5.515625 14.40625 5.515625 27.296875 
Q 5.515625 40.1875 11.734375 48.09375 
Q 17.96875 56 27.875 56 
Q 33.9375 56 38.25 53.625 
Q 42.578125 51.265625 45.40625 46.390625 
z
M 14.796875 27.296875 
Q 14.796875 17.390625 18.875 11.75 
Q 22.953125 6.109375 30.078125 6.109375 
Q 37.203125 6.109375 41.296875 11.75 
Q 45.40625 17.390625 45.40625 27.296875 
Q 45.40625 37.203125 41.296875 42.84375 
Q 37.203125 48.484375 30.078125 48.484375 
Q 22.953125 48.484375 18.875 42.84375 
Q 14.796875 37.203125 14.796875 27.296875 
z
" id="DejaVuSans-100"/>
      <path d="M 34.28125 27.484375 
Q 23.390625 27.484375 19.1875 25 
Q 14.984375 22.515625 14.984375 16.5 
Q 14.984375 11.71875 18.140625 8.90625 
Q 21.296875 6.109375 26.703125 6.109375 
Q 34.1875 6.109375 38.703125 11.40625 
Q 43.21875 16.703125 43.21875 25.484375 
L 43.21875 27.484375 
z
M 52.203125 31.203125 
L 52.203125 0 
L 43.21875 0 
L 43.21875 8.296875 
Q 40.140625 3.328125 35.546875 0.953125 
Q 30.953125 -1.421875 24.3125 -1.421875 
Q 15.921875 -1.421875 10.953125 3.296875 
Q 6 8.015625 6 15.921875 
Q 6 25.140625 12.171875 29.828125 
Q 18.359375 34.515625 30.609375 34.515625 
L 43.21875 34.515625 
L 43.21875 35.40625 
Q 43.21875 41.609375 39.140625 45 
Q 35.0625 48.390625 27.6875 48.390625 
Q 23 48.390625 18.546875 47.265625 
Q 14.109375 46.140625 10.015625 43.890625 
L 10.015625 52.203125 
Q 14.9375 54.109375 19.578125 55.046875 
Q 24.21875 56 28.609375 56 
Q 40.484375 56 46.34375 49.84375 
Q 52.203125 43.703125 52.203125 31.203125 
z
" id="DejaVuSans-97"/>
      <path d="M 32.171875 -5.078125 
Q 28.375 -14.84375 24.75 -17.8125 
Q 21.140625 -20.796875 15.09375 -20.796875 
L 7.90625 -20.796875 
L 7.90625 -13.28125 
L 13.1875 -13.28125 
Q 16.890625 -13.28125 18.9375 -11.515625 
Q 21 -9.765625 23.484375 -3.21875 
L 25.09375 0.875 
L 2.984375 54.6875 
L 12.5 54.6875 
L 29.59375 11.921875 
L 46.6875 54.6875 
L 56.203125 54.6875 
z
" id="DejaVuSans-121"/>
     </defs>
     <g transform="translate(206.389344 331.916562)scale(0.1 -0.1)">
      <use xlink:href="#DejaVuSans-100"/>
      <use x="63.476562" xlink:href="#DejaVuSans-97"/>
      <use x="124.755859" xlink:href="#DejaVuSans-121"/>
     </g>
    </g>
   </g>
   <g id="matplotlib.axis_2">
    <g id="ytick_1">
     <g id="line2d_3">
      <defs>
       <path d="M 0 0 
L -3.5 0 
" id="mbb89db2500" style="stroke:#000000;stroke-width:0.8;"/>
      </defs>
      <g>
       <use style="stroke:#000000;stroke-width:0.8;" x="54.02" xlink:href="#mbb89db2500" y="292.338385"/>
      </g>
     </g>
     <g id="text_4">
      <!-- 36.5 -->
      <defs>
       <path d="M 33.015625 40.375 
Q 26.375 40.375 22.484375 35.828125 
Q 18.609375 31.296875 18.609375 23.390625 
Q 18.609375 15.53125 22.484375 10.953125 
Q 26.375 6.390625 33.015625 6.390625 
Q 39.65625 6.390625 43.53125 10.953125 
Q 47.40625 15.53125 47.40625 23.390625 
Q 47.40625 31.296875 43.53125 35.828125 
Q 39.65625 40.375 33.015625 40.375 
z
M 52.59375 71.296875 
L 52.59375 62.3125 
Q 48.875 64.0625 45.09375 64.984375 
Q 41.3125 65.921875 37.59375 65.921875 
Q 27.828125 65.921875 22.671875 59.328125 
Q 17.53125 52.734375 16.796875 39.40625 
Q 19.671875 43.65625 24.015625 45.921875 
Q 28.375 48.1875 33.59375 48.1875 
Q 44.578125 48.1875 50.953125 41.515625 
Q 57.328125 34.859375 57.328125 23.390625 
Q 57.328125 12.15625 50.6875 5.359375 
Q 44.046875 -1.421875 33.015625 -1.421875 
Q 20.359375 -1.421875 13.671875 8.265625 
Q 6.984375 17.96875 6.984375 36.375 
Q 6.984375 53.65625 15.1875 63.9375 
Q 23.390625 74.21875 37.203125 74.21875 
Q 40.921875 74.21875 44.703125 73.484375 
Q 48.484375 72.75 52.59375 71.296875 
z
" id="DejaVuSans-54"/>
       <path d="M 10.6875 12.40625 
L 21 12.40625 
L 21 0 
L 10.6875 0 
z
" id="DejaVuSans-46"/>
       <path d="M 10.796875 72.90625 
L 49.515625 72.90625 
L 49.515625 64.59375 
L 19.828125 64.59375 
L 19.828125 46.734375 
Q 21.96875 47.46875 24.109375 47.828125 
Q 26.265625 48.1875 28.421875 48.1875 
Q 40.625 48.1875 47.75 41.5 
Q 54.890625 34.8125 54.890625 23.390625 
Q 54.890625 11.625 47.5625 5.09375 
Q 40.234375 -1.421875 26.90625 -1.421875 
Q 22.3125 -1.421875 17.546875 -0.640625 
Q 12.796875 0.140625 7.71875 1.703125 
L 7.71875 11.625 
Q 12.109375 9.234375 16.796875 8.0625 
Q 21.484375 6.890625 26.703125 6.890625 
Q 35.15625 6.890625 40.078125 11.328125 
Q 45.015625 15.765625 45.015625 23.390625 
Q 45.015625 31 40.078125 35.4375 
Q 35.15625 39.890625 26.703125 39.890625 
Q 22.75 39.890625 18.8125 39.015625 
Q 14.890625 38.140625 10.796875 36.28125 
z
" id="DejaVuSans-53"/>
      </defs>
      <g transform="translate(24.754375 296.137603)scale(0.1 -0.1)">
       <use xlink:href="#DejaVuSans-51"/>
       <use x="63.623047" xlink:href="#DejaVuSans-54"/>
       <use x="127.246094" xlink:href="#DejaVuSans-46"/>
       <use x="159.033203" xlink:href="#DejaVuSans-53"/>
      </g>
     </g>
    </g>
    <g id="ytick_2">
     <g id="line2d_4">
      <g>
       <use style="stroke:#000000;stroke-width:0.8;" x="54.02" xlink:href="#mbb89db2500" y="234.082635"/>
      </g>
     </g>
     <g id="text_5">
      <!-- 37.0 -->
      <g transform="translate(24.754375 237.881854)scale(0.1 -0.1)">
       <use xlink:href="#DejaVuSans-51"/>
       <use x="63.623047" xlink:href="#DejaVuSans-55"/>
       <use x="127.246094" xlink:href="#DejaVuSans-46"/>
       <use x="159.033203" xlink:href="#DejaVuSans-48"/>
      </g>
     </g>
    </g>
    <g id="ytick_3">
     <g id="line2d_5">
      <g>
       <use style="stroke:#000000;stroke-width:0.8;" x="54.02" xlink:href="#mbb89db2500" y="175.826886"/>
      </g>
     </g>
     <g id="text_6">
      <!-- 37.5 -->
      <g transform="translate(24.754375 179.626105)scale(0.1 -0.1)">
       <use xlink:href="#DejaVuSans-51"/>
       <use x="63.623047" xlink:href="#DejaVuSans-55"/>
       <use x="127.246094" xlink:href="#DejaVuSans-46"/>
       <use x="159.033203" xlink:href="#DejaVuSans-53"/>
      </g>
     </g>
    </g>
    <g id="ytick_4">
     <g id="line2d_6">
      <g>
       <use style="stroke:#000000;stroke-width:0.8;" x="54.02" xlink:href="#mbb89db2500" y="117.571137"/>
      </g>
     </g>
     <g id="text_7">
      <!-- 38.0 -->
      <g transform="translate(24.754375 121.370356)scale(0.1 -0.1)">
       <use xlink:href="#DejaVuSans-51"/>
       <use x="63.623047" xlink:href="#DejaVuSans-56"/>
       <use x="127.246094" xlink:href="#DejaVuSans-46"/>
       <use x="159.033203" xlink:href="#DejaVuSans-48"/>
      </g>
     </g>
    </g>
    <g id="ytick_5">
     <g id="line2d_7">
      <g>
       <use style="stroke:#000000;stroke-width:0.8;" x="54.02" xlink:href="#mbb89db2500" y="59.315388"/>
      </g>
     </g>
     <g id="text_8">
      <!-- 38.5 -->
      <g transform="translate(24.754375 63.114607)scale(0.1 -0.1)">
       <use xlink:href="#DejaVuSans-51"/>
       <use x="63.623047" xlink:href="#DejaVuSans-56"/>
       <use x="127.246094" xlink:href="#DejaVuSans-46"/>
       <use x="159.033203" xlink:href="#DejaVuSans-53"/>
      </g>
     </g>
    </g>
    <g id="text_9">
     <!-- temp -->
     <defs>
      <path d="M 18.3125 70.21875 
L 18.3125 54.6875 
L 36.8125 54.6875 
L 36.8125 47.703125 
L 18.3125 47.703125 
L 18.3125 18.015625 
Q 18.3125 11.328125 20.140625 9.421875 
Q 21.96875 7.515625 27.59375 7.515625 
L 36.8125 7.515625 
L 36.8125 0 
L 27.59375 0 
Q 17.1875 0 13.234375 3.875 
Q 9.28125 7.765625 9.28125 18.015625 
L 9.28125 47.703125 
L 2.6875 47.703125 
L 2.6875 54.6875 
L 9.28125 54.6875 
L 9.28125 70.21875 
z
" id="DejaVuSans-116"/>
      <path d="M 56.203125 29.59375 
L 56.203125 25.203125 
L 14.890625 25.203125 
Q 15.484375 15.921875 20.484375 11.0625 
Q 25.484375 6.203125 34.421875 6.203125 
Q 39.59375 6.203125 44.453125 7.46875 
Q 49.3125 8.734375 54.109375 11.28125 
L 54.109375 2.78125 
Q 49.265625 0.734375 44.1875 -0.34375 
Q 39.109375 -1.421875 33.890625 -1.421875 
Q 20.796875 -1.421875 13.15625 6.1875 
Q 5.515625 13.8125 5.515625 26.8125 
Q 5.515625 40.234375 12.765625 48.109375 
Q 20.015625 56 32.328125 56 
Q 43.359375 56 49.78125 48.890625 
Q 56.203125 41.796875 56.203125 29.59375 
z
M 47.21875 32.234375 
Q 47.125 39.59375 43.09375 43.984375 
Q 39.0625 48.390625 32.421875 48.390625 
Q 24.90625 48.390625 20.390625 44.140625 
Q 15.875 39.890625 15.1875 32.171875 
z
" id="DejaVuSans-101"/>
      <path d="M 52 44.1875 
Q 55.375 50.25 60.0625 53.125 
Q 64.75 56 71.09375 56 
Q 79.640625 56 84.28125 50.015625 
Q 88.921875 44.046875 88.921875 33.015625 
L 88.921875 0 
L 79.890625 0 
L 79.890625 32.71875 
Q 79.890625 40.578125 77.09375 44.375 
Q 74.3125 48.1875 68.609375 48.1875 
Q 61.625 48.1875 57.5625 43.546875 
Q 53.515625 38.921875 53.515625 30.90625 
L 53.515625 0 
L 44.484375 0 
L 44.484375 32.71875 
Q 44.484375 40.625 41.703125 44.40625 
Q 38.921875 48.1875 33.109375 48.1875 
Q 26.21875 48.1875 22.15625 43.53125 
Q 18.109375 38.875 18.109375 30.90625 
L 18.109375 0 
L 9.078125 0 
L 9.078125 54.6875 
L 18.109375 54.6875 
L 18.109375 46.1875 
Q 21.1875 51.21875 25.484375 53.609375 
Q 29.78125 56 35.6875 56 
Q 41.65625 56 45.828125 52.96875 
Q 50 49.953125 52 44.1875 
z
" id="DejaVuSans-109"/>
      <path d="M 18.109375 8.203125 
L 18.109375 -20.796875 
L 9.078125 -20.796875 
L 9.078125 54.6875 
L 18.109375 54.6875 
L 18.109375 46.390625 
Q 20.953125 51.265625 25.265625 53.625 
Q 29.59375 56 35.59375 56 
Q 45.5625 56 51.78125 48.09375 
Q 58.015625 40.1875 58.015625 27.296875 
Q 58.015625 14.40625 51.78125 6.484375 
Q 45.5625 -1.421875 35.59375 -1.421875 
Q 29.59375 -1.421875 25.265625 0.953125 
Q 20.953125 3.328125 18.109375 8.203125 
z
M 48.6875 27.296875 
Q 48.6875 37.203125 44.609375 42.84375 
Q 40.53125 48.484375 33.40625 48.484375 
Q 26.265625 48.484375 22.1875 42.84375 
Q 18.109375 37.203125 18.109375 27.296875 
Q 18.109375 17.390625 22.1875 11.75 
Q 26.265625 6.109375 33.40625 6.109375 
Q 40.53125 6.109375 44.609375 11.75 
Q 48.6875 17.390625 48.6875 27.296875 
z
" id="DejaVuSans-112"/>
     </defs>
     <g transform="translate(18.674688 170.30125)rotate(-90)scale(0.1 -0.1)">
      <use xlink:href="#DejaVuSans-116"/>
      <use x="39.208984" xlink:href="#DejaVuSans-101"/>
      <use x="100.732422" xlink:href="#DejaVuSans-109"/>
      <use x="198.144531" xlink:href="#DejaVuSans-112"/>
     </g>
    </g>
   </g>
   <g id="LineCollection_1">
    <path clip-path="url(#p1b74a54245)" d="M 134.8035 170.001311 
L 134.8035 144.368782 
" style="fill:none;stroke:#000000;stroke-width:5;"/>
   </g>
   <g id="LineCollection_2">
    <path clip-path="url(#p1b74a54245)" d="M 296.3705 219.518698 
L 296.3705 118.736252 
" style="fill:none;stroke:#000000;stroke-width:5;"/>
   </g>
   <g id="line2d_8">
    <path clip-path="url(#p1b74a54245)" d="M 134.8035 56.169577 
L 134.8035 45.85831 
L 296.3705 45.85831 
L 296.3705 56.169577 
" style="fill:none;stroke:#000000;stroke-linecap:square;"/>
   </g>
   <g id="patch_3">
    <path d="M 54.02 303.64 
L 54.02 10.8 
" style="fill:none;stroke:#000000;stroke-linecap:square;stroke-linejoin:miter;stroke-width:0.8;"/>
   </g>
   <g id="patch_4">
    <path d="M 377.154 303.64 
L 377.154 10.8 
" style="fill:none;stroke:#000000;stroke-linecap:square;stroke-linejoin:miter;stroke-width:0.8;"/>
   </g>
   <g id="patch_5">
    <path d="M 54.02 303.64 
L 377.154 303.64 
" style="fill:none;stroke:#000000;stroke-linecap:square;stroke-linejoin:miter;stroke-width:0.8;"/>
   </g>
   <g id="patch_6">
    <path d="M 54.02 10.8 
L 377.154 10.8 
" style="fill:none;stroke:#000000;stroke-linecap:square;stroke-linejoin:miter;stroke-width:0.8;"/>
   </g>
   <g id="PathCollection_1">
    <defs>
     <path d="M 0 2.236068 
C 0.593012 2.236068 1.161816 2.000462 1.581139 1.581139 
C 2.000462 1.161816 2.236068 0.593012 2.236068 0 
C 2.236068 -0.593012 2.000462 -1.161816 1.581139 -1.581139 
C 1.161816 -2.000462 0.593012 -2.236068 0 -2.236068 
C -0.593012 -2.236068 -1.161816 -2.000462 -1.581139 -1.581139 
C -2.000462 -1.161816 -2.236068 -0.593012 -2.236068 0 
C -2.236068 0.593012 -2.000462 1.161816 -1.581139 1.581139 
C -1.161816 2.000462 -0.593012 2.236068 0 2.236068 
z
" id="mecf4662165" style="stroke:#377eb8;"/>
    </defs>
    <g clip-path="url(#p1b74a54245)">
     <use style="fill:#377eb8;stroke:#377eb8;" x="134.8035" xlink:href="#mecf4662165" y="149.029242"/>
    </g>
   </g>
   <g id="PathCollection_2">
    <g clip-path="url(#p1b74a54245)">
     <use style="fill:#377eb8;stroke:#377eb8;" x="296.3705" xlink:href="#mecf4662165" y="147.864127"/>
    </g>
   </g>
   <g id="text_10">
    <!-- NS -->
    <defs>
     <path d="M 9.8125 72.90625 
L 23.09375 72.90625 
L 55.421875 11.921875 
L 55.421875 72.90625 
L 64.984375 72.90625 
L 64.984375 0 
L 51.703125 0 
L 19.390625 60.984375 
L 19.390625 0 
L 9.8125 0 
z
" id="DejaVuSans-78"/>
     <path d="M 53.515625 70.515625 
L 53.515625 60.890625 
Q 47.90625 63.578125 42.921875 64.890625 
Q 37.9375 66.21875 33.296875 66.21875 
Q 25.25 66.21875 20.875 63.09375 
Q 16.5 59.96875 16.5 54.203125 
Q 16.5 49.359375 19.40625 46.890625 
Q 22.3125 44.4375 30.421875 42.921875 
L 36.375 41.703125 
Q 47.40625 39.59375 52.65625 34.296875 
Q 57.90625 29 57.90625 20.125 
Q 57.90625 9.515625 50.796875 4.046875 
Q 43.703125 -1.421875 29.984375 -1.421875 
Q 24.8125 -1.421875 18.96875 -0.25 
Q 13.140625 0.921875 6.890625 3.21875 
L 6.890625 13.375 
Q 12.890625 10.015625 18.65625 8.296875 
Q 24.421875 6.59375 29.984375 6.59375 
Q 38.421875 6.59375 43.015625 9.90625 
Q 47.609375 13.234375 47.609375 19.390625 
Q 47.609375 24.75 44.3125 27.78125 
Q 41.015625 30.8125 33.5 32.328125 
L 27.484375 33.5 
Q 16.453125 35.6875 11.515625 40.375 
Q 6.59375 45.0625 6.59375 53.421875 
Q 6.59375 63.09375 13.40625 68.65625 
Q 20.21875 74.21875 32.171875 74.21875 
Q 37.3125 74.21875 42.625 73.28125 
Q 47.953125 72.359375 53.515625 70.515625 
z
" id="DejaVuSans-83"/>
    </defs>
    <g transform="translate(208.672156 39.654115)scale(0.1 -0.1)">
     <use xlink:href="#DejaVuSans-78"/>
     <use x="74.804688" xlink:href="#DejaVuSans-83"/>
    </g>
   </g>
   <g id="legend_1">
    <g id="patch_7">
     <path d="M 397.3107 282.882187 
L 417.3107 282.882187 
L 417.3107 275.882187 
L 397.3107 275.882187 
z
" style="fill:#e41a1c;stroke:#000000;stroke-linejoin:miter;"/>
    </g>
    <g id="text_11">
     <!-- 308 -->
     <g transform="translate(425.3107 282.882187)scale(0.1 -0.1)">
      <use xlink:href="#DejaVuSans-51"/>
      <use x="63.623047" xlink:href="#DejaVuSans-48"/>
      <use x="127.246094" xlink:href="#DejaVuSans-56"/>
     </g>
    </g>
    <g id="patch_8">
     <path d="M 397.3107 297.560312 
L 417.3107 297.560312 
L 417.3107 290.560312 
L 397.3107 290.560312 
z
" style="fill:#377eb8;stroke:#000000;stroke-linejoin:miter;"/>
    </g>
    <g id="text_12">
     <!-- 307 -->
     <g transform="translate(425.3107 297.560312)scale(0.1 -0.1)">
      <use xlink:href="#DejaVuSans-51"/>
      <use x="63.623047" xlink:href="#DejaVuSans-48"/>
      <use x="127.246094" xlink:href="#DejaVuSans-55"/>
     </g>
    </g>
   </g>
  </g>
 </g>
 <defs>
  <clipPath id="p1b74a54245">
   <rect height="292.84" width="323.134" x="54.02" y="10.8"/>
  </clipPath>
 </defs>
</svg>
