<?xml version="1.0" encoding="utf-8" standalone="no"?>
<!DOCTYPE svg PUBLIC "-//W3C//DTD SVG 1.1//EN"
  "http://www.w3.org/Graphics/SVG/1.1/DTD/svg11.dtd">
<!-- Created with matplotlib (https://matplotlib.org/) -->
<svg height="345.6pt" version="1.1" viewBox="0 0 460.8 345.6" width="460.8pt" xmlns="http://www.w3.org/2000/svg" xmlns:xlink="http://www.w3.org/1999/xlink">
 <defs>
  <style type="text/css">
*{stroke-linecap:butt;stroke-linejoin:round;}
  </style>
 </defs>
 <g id="figure_1">
  <g id="patch_1">
   <path d="M 0 345.6 
L 460.8 345.6 
L 460.8 0 
L 0 0 
z
" style="fill:#ffffff;"/>
  </g>
  <g id="axes_1">
   <g id="patch_2">
    <path d="M 54.02 303.64 
L 389.754 303.64 
L 389.754 10.8 
L 54.02 10.8 
z
" style="fill:#ffffff;"/>
   </g>
   <g id="PolyCollection_1">
    <defs>
     <path d="M 135.617657 -159.287079 
L 84.333677 -159.287079 
L 83.587153 -160.063822 
L 82.860634 -160.840566 
L 82.155687 -161.617309 
L 81.473671 -162.394052 
L 80.815725 -163.170795 
L 80.182757 -163.947539 
L 79.575443 -164.724282 
L 78.994222 -165.501025 
L 78.439301 -166.277769 
L 77.910665 -167.054512 
L 77.408079 -167.831255 
L 76.931111 -168.607999 
L 76.479144 -169.384742 
L 76.051399 -170.161485 
L 75.646958 -170.938229 
L 75.264793 -171.714972 
L 74.903789 -172.491715 
L 74.56278 -173.268459 
L 74.240573 -174.045202 
L 73.935987 -174.821945 
L 73.647879 -175.598689 
L 73.375173 -176.375432 
L 73.116895 -177.152175 
L 72.872192 -177.928919 
L 72.640362 -178.705662 
L 72.420872 -179.482405 
L 72.213376 -180.259149 
L 72.017727 -181.035892 
L 71.833986 -181.812635 
L 71.662426 -182.589379 
L 71.503533 -183.366122 
L 71.357994 -184.142865 
L 71.226692 -184.919608 
L 71.110687 -185.696352 
L 71.011196 -186.473095 
L 70.929568 -187.249838 
L 70.867254 -188.026582 
L 70.825778 -188.803325 
L 70.8067 -189.580068 
L 70.81158 -190.356812 
L 70.84194 -191.133555 
L 70.899223 -191.910298 
L 70.98476 -192.687042 
L 71.099726 -193.463785 
L 71.245112 -194.240528 
L 71.421686 -195.017272 
L 71.629967 -195.794015 
L 71.870199 -196.570758 
L 72.14233 -197.347502 
L 72.445999 -198.124245 
L 72.780523 -198.900988 
L 73.144895 -199.677732 
L 73.537788 -200.454475 
L 73.957558 -201.231218 
L 74.402265 -202.007962 
L 74.869689 -202.784705 
L 75.357357 -203.561448 
L 75.862576 -204.338192 
L 76.382464 -205.114935 
L 76.913994 -205.891678 
L 77.454036 -206.668422 
L 77.9994 -207.445165 
L 78.546885 -208.221908 
L 79.093325 -208.998651 
L 79.635638 -209.775395 
L 80.17087 -210.552138 
L 80.696243 -211.328881 
L 81.209193 -212.105625 
L 81.707409 -212.882368 
L 82.18887 -213.659111 
L 82.651869 -214.435855 
L 83.095042 -215.212598 
L 83.517382 -215.989341 
L 83.918252 -216.766085 
L 84.297393 -217.542828 
L 84.654919 -218.319571 
L 84.991314 -219.096315 
L 85.30742 -219.873058 
L 85.604413 -220.649801 
L 85.883783 -221.426545 
L 86.147305 -222.203288 
L 86.397005 -222.980031 
L 86.635123 -223.756775 
L 86.864074 -224.533518 
L 87.086405 -225.310261 
L 87.304751 -226.087005 
L 87.521793 -226.863748 
L 87.740213 -227.640491 
L 87.962649 -228.417235 
L 88.191657 -229.193978 
L 88.429668 -229.970721 
L 88.678953 -230.747465 
L 88.941592 -231.524208 
L 89.219442 -232.300951 
L 89.514114 -233.077694 
L 89.82695 -233.854438 
L 90.159011 -234.631181 
L 90.511066 -235.407924 
L 90.883582 -236.184668 
L 129.067752 -236.184668 
L 129.067752 -236.184668 
L 129.440268 -235.407924 
L 129.792322 -234.631181 
L 130.124383 -233.854438 
L 130.437219 -233.077694 
L 130.731891 -232.300951 
L 131.009741 -231.524208 
L 131.27238 -230.747465 
L 131.521666 -229.970721 
L 131.759676 -229.193978 
L 131.988684 -228.417235 
L 132.21112 -227.640491 
L 132.42954 -226.863748 
L 132.646582 -226.087005 
L 132.864928 -225.310261 
L 133.087259 -224.533518 
L 133.31621 -223.756775 
L 133.554328 -222.980031 
L 133.804029 -222.203288 
L 134.067551 -221.426545 
L 134.346921 -220.649801 
L 134.643913 -219.873058 
L 134.960019 -219.096315 
L 135.296415 -218.319571 
L 135.653941 -217.542828 
L 136.033081 -216.766085 
L 136.433951 -215.989341 
L 136.856291 -215.212598 
L 137.299464 -214.435855 
L 137.762463 -213.659111 
L 138.243924 -212.882368 
L 138.742141 -212.105625 
L 139.25509 -211.328881 
L 139.780463 -210.552138 
L 140.315695 -209.775395 
L 140.858008 -208.998651 
L 141.404448 -208.221908 
L 141.951933 -207.445165 
L 142.497297 -206.668422 
L 143.037339 -205.891678 
L 143.56887 -205.114935 
L 144.088758 -204.338192 
L 144.593976 -203.561448 
L 145.081645 -202.784705 
L 145.549069 -202.007962 
L 145.993776 -201.231218 
L 146.413546 -200.454475 
L 146.806438 -199.677732 
L 147.170811 -198.900988 
L 147.505334 -198.124245 
L 147.809003 -197.347502 
L 148.081134 -196.570758 
L 148.321366 -195.794015 
L 148.529647 -195.017272 
L 148.706221 -194.240528 
L 148.851607 -193.463785 
L 148.966574 -192.687042 
L 149.05211 -191.910298 
L 149.109394 -191.133555 
L 149.139753 -190.356812 
L 149.144633 -189.580068 
L 149.125556 -188.803325 
L 149.08408 -188.026582 
L 149.021766 -187.249838 
L 148.940137 -186.473095 
L 148.840646 -185.696352 
L 148.724641 -184.919608 
L 148.593339 -184.142865 
L 148.447801 -183.366122 
L 148.288907 -182.589379 
L 148.117348 -181.812635 
L 147.933607 -181.035892 
L 147.737957 -180.259149 
L 147.530461 -179.482405 
L 147.310971 -178.705662 
L 147.079141 -177.928919 
L 146.834438 -177.152175 
L 146.57616 -176.375432 
L 146.303454 -175.598689 
L 146.015346 -174.821945 
L 145.71076 -174.045202 
L 145.388554 -173.268459 
L 145.047544 -172.491715 
L 144.68654 -171.714972 
L 144.304375 -170.938229 
L 143.899934 -170.161485 
L 143.472189 -169.384742 
L 143.020222 -168.607999 
L 142.543254 -167.831255 
L 142.040668 -167.054512 
L 141.512032 -166.277769 
L 140.957112 -165.501025 
L 140.375891 -164.724282 
L 139.768576 -163.947539 
L 139.135608 -163.170795 
L 138.477662 -162.394052 
L 137.795647 -161.617309 
L 137.090699 -160.840566 
L 136.36418 -160.063822 
L 135.617657 -159.287079 
z
" id="mbb32838a69" style="stroke:#377eb8;"/>
    </defs>
    <g clip-path="url(#pa84fdbf4a5)">
     <use style="fill:#ffffff;stroke:#377eb8;" x="0" xlink:href="#mbb32838a69" y="345.6"/>
    </g>
   </g>
   <g id="PolyCollection_2">
    <defs>
     <path d="M 224.601223 -62.582535 
L 219.172777 -62.582535 
L 219.052264 -63.830032 
L 218.937759 -65.077529 
L 218.827198 -66.325026 
L 218.717693 -67.572523 
L 218.605517 -68.820019 
L 218.486088 -70.067516 
L 218.353959 -71.315013 
L 218.202816 -72.56251 
L 218.02548 -73.810007 
L 217.813934 -75.057504 
L 217.559369 -76.305001 
L 217.252283 -77.552497 
L 216.882628 -78.799994 
L 216.440021 -80.047491 
L 215.914042 -81.294988 
L 215.294593 -82.542485 
L 214.572344 -83.789982 
L 213.739223 -85.037479 
L 212.788953 -86.284975 
L 211.717585 -87.532472 
L 210.524013 -88.779969 
L 209.210403 -90.027466 
L 207.782529 -91.274963 
L 206.249946 -92.52246 
L 204.626004 -93.769956 
L 202.92765 -95.017453 
L 201.175037 -96.26495 
L 199.390939 -97.512447 
L 197.599987 -98.759944 
L 195.827787 -100.007441 
L 194.099936 -101.254938 
L 192.441041 -102.502434 
L 190.873761 -103.749931 
L 189.417968 -104.997428 
L 188.09008 -106.244925 
L 186.902595 -107.492422 
L 185.863881 -108.739919 
L 184.978225 -109.987416 
L 184.246127 -111.234912 
L 183.664809 -112.482409 
L 183.228906 -113.729906 
L 182.931256 -114.977403 
L 182.763731 -116.2249 
L 182.718033 -117.472397 
L 182.786393 -118.719894 
L 182.962108 -119.96739 
L 183.239887 -121.214887 
L 183.615992 -122.462384 
L 184.088158 -123.709881 
L 184.655337 -124.957378 
L 185.31729 -126.204875 
L 186.07408 -127.452371 
L 186.92552 -128.699868 
L 187.870631 -129.947365 
L 188.907162 -131.194862 
L 190.031199 -132.442359 
L 191.236898 -133.689856 
L 192.516356 -134.937353 
L 193.859615 -136.184849 
L 195.254788 -137.432346 
L 196.688308 -138.679843 
L 198.145254 -139.92734 
L 199.609747 -141.174837 
L 201.065401 -142.422334 
L 202.495788 -143.669831 
L 203.884916 -144.917327 
L 205.2177 -146.164824 
L 206.480404 -147.412321 
L 207.661055 -148.659818 
L 208.749799 -149.907315 
L 209.739189 -151.154812 
L 210.624405 -152.402308 
L 211.403373 -153.649805 
L 212.07679 -154.897302 
L 212.648037 -156.144799 
L 213.122993 -157.392296 
L 213.509744 -158.639793 
L 213.818198 -159.88729 
L 214.059639 -161.134786 
L 214.246226 -162.382283 
L 214.390478 -163.62978 
L 214.504757 -164.877277 
L 214.600802 -166.124774 
L 214.689313 -167.372271 
L 214.779627 -168.619768 
L 214.879485 -169.867264 
L 214.994904 -171.114761 
L 215.130156 -172.362258 
L 215.287834 -173.609755 
L 215.469 -174.857252 
L 215.673392 -176.104749 
L 215.899667 -177.352246 
L 216.145665 -178.599742 
L 216.408655 -179.847239 
L 216.685575 -181.094736 
L 216.973219 -182.342233 
L 217.268395 -183.58973 
L 217.568035 -184.837227 
L 217.869259 -186.084723 
L 225.904741 -186.084723 
L 225.904741 -186.084723 
L 226.205965 -184.837227 
L 226.505605 -183.58973 
L 226.800781 -182.342233 
L 227.088425 -181.094736 
L 227.365345 -179.847239 
L 227.628335 -178.599742 
L 227.874333 -177.352246 
L 228.100608 -176.104749 
L 228.305 -174.857252 
L 228.486166 -173.609755 
L 228.643844 -172.362258 
L 228.779096 -171.114761 
L 228.894515 -169.867264 
L 228.994373 -168.619768 
L 229.084687 -167.372271 
L 229.173198 -166.124774 
L 229.269243 -164.877277 
L 229.383522 -163.62978 
L 229.527774 -162.382283 
L 229.714361 -161.134786 
L 229.955802 -159.88729 
L 230.264256 -158.639793 
L 230.651007 -157.392296 
L 231.125963 -156.144799 
L 231.69721 -154.897302 
L 232.370627 -153.649805 
L 233.149595 -152.402308 
L 234.034811 -151.154812 
L 235.024201 -149.907315 
L 236.112945 -148.659818 
L 237.293596 -147.412321 
L 238.5563 -146.164824 
L 239.889084 -144.917327 
L 241.278212 -143.669831 
L 242.708599 -142.422334 
L 244.164253 -141.174837 
L 245.628746 -139.92734 
L 247.085692 -138.679843 
L 248.519212 -137.432346 
L 249.914385 -136.184849 
L 251.257644 -134.937353 
L 252.537102 -133.689856 
L 253.742801 -132.442359 
L 254.866838 -131.194862 
L 255.903369 -129.947365 
L 256.84848 -128.699868 
L 257.69992 -127.452371 
L 258.45671 -126.204875 
L 259.118663 -124.957378 
L 259.685842 -123.709881 
L 260.158008 -122.462384 
L 260.534113 -121.214887 
L 260.811892 -119.96739 
L 260.987607 -118.719894 
L 261.055967 -117.472397 
L 261.010269 -116.2249 
L 260.842744 -114.977403 
L 260.545094 -113.729906 
L 260.109191 -112.482409 
L 259.527873 -111.234912 
L 258.795775 -109.987416 
L 257.910119 -108.739919 
L 256.871405 -107.492422 
L 255.68392 -106.244925 
L 254.356032 -104.997428 
L 252.900239 -103.749931 
L 251.332959 -102.502434 
L 249.674064 -101.254938 
L 247.946213 -100.007441 
L 246.174013 -98.759944 
L 244.383061 -97.512447 
L 242.598963 -96.26495 
L 240.84635 -95.017453 
L 239.147996 -93.769956 
L 237.524054 -92.52246 
L 235.991471 -91.274963 
L 234.563597 -90.027466 
L 233.249987 -88.779969 
L 232.056415 -87.532472 
L 230.985047 -86.284975 
L 230.034777 -85.037479 
L 229.201656 -83.789982 
L 228.479407 -82.542485 
L 227.859958 -81.294988 
L 227.333979 -80.047491 
L 226.891372 -78.799994 
L 226.521717 -77.552497 
L 226.214631 -76.305001 
L 225.960066 -75.057504 
L 225.74852 -73.810007 
L 225.571184 -72.56251 
L 225.420041 -71.315013 
L 225.287912 -70.067516 
L 225.168483 -68.820019 
L 225.056307 -67.572523 
L 224.946802 -66.325026 
L 224.836241 -65.077529 
L 224.721736 -63.830032 
L 224.601223 -62.582535 
z
" id="m125e4d4de4" style="stroke:#e41a1c;"/>
    </defs>
    <g clip-path="url(#pa84fdbf4a5)">
     <use style="fill:#ffffff;stroke:#e41a1c;" x="0" xlink:href="#m125e4d4de4" y="345.6"/>
    </g>
   </g>
   <g id="PolyCollection_3">
    <defs>
     <path d="M 345.58164 -181.424264 
L 322.015027 -181.424264 
L 321.196011 -182.306926 
L 320.363137 -183.189589 
L 319.516874 -184.072252 
L 318.657275 -184.954915 
L 317.784052 -185.837578 
L 316.896697 -186.720241 
L 315.994632 -187.602904 
L 315.07737 -188.485566 
L 314.144701 -189.368229 
L 313.196857 -190.250892 
L 312.234679 -191.133555 
L 311.259748 -192.016218 
L 310.274485 -192.898881 
L 309.282202 -193.781544 
L 308.287107 -194.664207 
L 307.294253 -195.546869 
L 306.309433 -196.429532 
L 305.339031 -197.312195 
L 304.389826 -198.194858 
L 303.468764 -199.077521 
L 302.582709 -199.960184 
L 301.738189 -200.842847 
L 300.941136 -201.725509 
L 300.196658 -202.608172 
L 299.508829 -203.490835 
L 298.880526 -204.373498 
L 298.313319 -205.256161 
L 297.807411 -206.138824 
L 297.361646 -207.021487 
L 296.973569 -207.90415 
L 296.639554 -208.786812 
L 296.35498 -209.669475 
L 296.114452 -210.552138 
L 295.912054 -211.434801 
L 295.74163 -212.317464 
L 295.597067 -213.200127 
L 295.47257 -214.08279 
L 295.362923 -214.965452 
L 295.263713 -215.848115 
L 295.171503 -216.730778 
L 295.083957 -217.613441 
L 294.999909 -218.496104 
L 294.919353 -219.378767 
L 294.843389 -220.26143 
L 294.7741 -221.144093 
L 294.714386 -222.026755 
L 294.667752 -222.909418 
L 294.638076 -223.792081 
L 294.629367 -224.674744 
L 294.64552 -225.557407 
L 294.690098 -226.44007 
L 294.766133 -227.322733 
L 294.875986 -228.205395 
L 295.021242 -229.088058 
L 295.202667 -229.970721 
L 295.420224 -230.853384 
L 295.673136 -231.736047 
L 295.959999 -232.61871 
L 296.278934 -233.501373 
L 296.627764 -234.384036 
L 297.004208 -235.266698 
L 297.406069 -236.149361 
L 297.831421 -237.032024 
L 298.278759 -237.914687 
L 298.747122 -238.79735 
L 299.236174 -239.680013 
L 299.746234 -240.562676 
L 300.27826 -241.445338 
L 300.833788 -242.328001 
L 301.414826 -243.210664 
L 302.023712 -244.093327 
L 302.662949 -244.97599 
L 303.335014 -245.858653 
L 304.042174 -246.741316 
L 304.786295 -247.623979 
L 305.568677 -248.506641 
L 306.389901 -249.389304 
L 307.249719 -250.271967 
L 308.146978 -251.15463 
L 309.079583 -252.037293 
L 310.044507 -252.919956 
L 311.037835 -253.802619 
L 312.054855 -254.685281 
L 313.090176 -255.567944 
L 314.137877 -256.450607 
L 315.191671 -257.33327 
L 316.245082 -258.215933 
L 317.291628 -259.098596 
L 318.32499 -259.981259 
L 319.339177 -260.863922 
L 320.328667 -261.746584 
L 321.288517 -262.629247 
L 322.214461 -263.51191 
L 323.102956 -264.394573 
L 323.951219 -265.277236 
L 324.757218 -266.159899 
L 325.519645 -267.042562 
L 326.237867 -267.925224 
L 326.911853 -268.807887 
L 340.684813 -268.807887 
L 340.684813 -268.807887 
L 341.3588 -267.925224 
L 342.077021 -267.042562 
L 342.839448 -266.159899 
L 343.645447 -265.277236 
L 344.49371 -264.394573 
L 345.382206 -263.51191 
L 346.308149 -262.629247 
L 347.268 -261.746584 
L 348.257489 -260.863922 
L 349.271677 -259.981259 
L 350.305039 -259.098596 
L 351.351585 -258.215933 
L 352.404996 -257.33327 
L 353.45879 -256.450607 
L 354.506491 -255.567944 
L 355.541812 -254.685281 
L 356.558832 -253.802619 
L 357.55216 -252.919956 
L 358.517083 -252.037293 
L 359.449689 -251.15463 
L 360.346948 -250.271967 
L 361.206766 -249.389304 
L 362.02799 -248.506641 
L 362.810371 -247.623979 
L 363.554493 -246.741316 
L 364.261653 -245.858653 
L 364.933718 -244.97599 
L 365.572954 -244.093327 
L 366.181841 -243.210664 
L 366.762879 -242.328001 
L 367.318407 -241.445338 
L 367.850433 -240.562676 
L 368.360492 -239.680013 
L 368.849545 -238.79735 
L 369.317908 -237.914687 
L 369.765246 -237.032024 
L 370.190598 -236.149361 
L 370.592459 -235.266698 
L 370.968902 -234.384036 
L 371.317732 -233.501373 
L 371.636667 -232.61871 
L 371.92353 -231.736047 
L 372.176443 -230.853384 
L 372.394 -229.970721 
L 372.575425 -229.088058 
L 372.72068 -228.205395 
L 372.830533 -227.322733 
L 372.906569 -226.44007 
L 372.951146 -225.557407 
L 372.9673 -224.674744 
L 372.958591 -223.792081 
L 372.928915 -222.909418 
L 372.88228 -222.026755 
L 372.822566 -221.144093 
L 372.753278 -220.26143 
L 372.677314 -219.378767 
L 372.596758 -218.496104 
L 372.512709 -217.613441 
L 372.425164 -216.730778 
L 372.332954 -215.848115 
L 372.233743 -214.965452 
L 372.124097 -214.08279 
L 371.9996 -213.200127 
L 371.855036 -212.317464 
L 371.684613 -211.434801 
L 371.482215 -210.552138 
L 371.241686 -209.669475 
L 370.957113 -208.786812 
L 370.623098 -207.90415 
L 370.235021 -207.021487 
L 369.789255 -206.138824 
L 369.283348 -205.256161 
L 368.716141 -204.373498 
L 368.087838 -203.490835 
L 367.400008 -202.608172 
L 366.65553 -201.725509 
L 365.858478 -200.842847 
L 365.013958 -199.960184 
L 364.127903 -199.077521 
L 363.206841 -198.194858 
L 362.257635 -197.312195 
L 361.287234 -196.429532 
L 360.302414 -195.546869 
L 359.30956 -194.664207 
L 358.314465 -193.781544 
L 357.322182 -192.898881 
L 356.336918 -192.016218 
L 355.361988 -191.133555 
L 354.399809 -190.250892 
L 353.451966 -189.368229 
L 352.519296 -188.485566 
L 351.602035 -187.602904 
L 350.699969 -186.720241 
L 349.812615 -185.837578 
L 348.939391 -184.954915 
L 348.079792 -184.072252 
L 347.23353 -183.189589 
L 346.400655 -182.306926 
L 345.58164 -181.424264 
z
" id="mac99f043cd" style="stroke:#377eb8;"/>
    </defs>
    <g clip-path="url(#pa84fdbf4a5)">
     <use style="fill:#ffffff;stroke:#377eb8;" x="0" xlink:href="#mac99f043cd" y="345.6"/>
    </g>
   </g>
   <g id="matplotlib.axis_1">
    <g id="xtick_1">
     <g id="line2d_1">
      <defs>
       <path d="M 0 0 
L 0 3.5 
" id="m7395260327" style="stroke:#000000;stroke-width:0.8;"/>
      </defs>
      <g>
       <use style="stroke:#000000;stroke-width:0.8;" x="109.975667" xlink:href="#m7395260327" y="303.64"/>
      </g>
     </g>
     <g id="text_1">
      <!-- 308 -->
      <defs>
       <path d="M 40.578125 39.3125 
Q 47.65625 37.796875 51.625 33 
Q 55.609375 28.21875 55.609375 21.1875 
Q 55.609375 10.40625 48.1875 4.484375 
Q 40.765625 -1.421875 27.09375 -1.421875 
Q 22.515625 -1.421875 17.65625 -0.515625 
Q 12.796875 0.390625 7.625 2.203125 
L 7.625 11.71875 
Q 11.71875 9.328125 16.59375 8.109375 
Q 21.484375 6.890625 26.8125 6.890625 
Q 36.078125 6.890625 40.9375 10.546875 
Q 45.796875 14.203125 45.796875 21.1875 
Q 45.796875 27.640625 41.28125 31.265625 
Q 36.765625 34.90625 28.71875 34.90625 
L 20.21875 34.90625 
L 20.21875 43.015625 
L 29.109375 43.015625 
Q 36.375 43.015625 40.234375 45.921875 
Q 44.09375 48.828125 44.09375 54.296875 
Q 44.09375 59.90625 40.109375 62.90625 
Q 36.140625 65.921875 28.71875 65.921875 
Q 24.65625 65.921875 20.015625 65.03125 
Q 15.375 64.15625 9.8125 62.3125 
L 9.8125 71.09375 
Q 15.4375 72.65625 20.34375 73.4375 
Q 25.25 74.21875 29.59375 74.21875 
Q 40.828125 74.21875 47.359375 69.109375 
Q 53.90625 64.015625 53.90625 55.328125 
Q 53.90625 49.265625 50.4375 45.09375 
Q 46.96875 40.921875 40.578125 39.3125 
z
" id="DejaVuSans-51"/>
       <path d="M 31.78125 66.40625 
Q 24.171875 66.40625 20.328125 58.90625 
Q 16.5 51.421875 16.5 36.375 
Q 16.5 21.390625 20.328125 13.890625 
Q 24.171875 6.390625 31.78125 6.390625 
Q 39.453125 6.390625 43.28125 13.890625 
Q 47.125 21.390625 47.125 36.375 
Q 47.125 51.421875 43.28125 58.90625 
Q 39.453125 66.40625 31.78125 66.40625 
z
M 31.78125 74.21875 
Q 44.046875 74.21875 50.515625 64.515625 
Q 56.984375 54.828125 56.984375 36.375 
Q 56.984375 17.96875 50.515625 8.265625 
Q 44.046875 -1.421875 31.78125 -1.421875 
Q 19.53125 -1.421875 13.0625 8.265625 
Q 6.59375 17.96875 6.59375 36.375 
Q 6.59375 54.828125 13.0625 64.515625 
Q 19.53125 74.21875 31.78125 74.21875 
z
" id="DejaVuSans-48"/>
       <path d="M 31.78125 34.625 
Q 24.75 34.625 20.71875 30.859375 
Q 16.703125 27.09375 16.703125 20.515625 
Q 16.703125 13.921875 20.71875 10.15625 
Q 24.75 6.390625 31.78125 6.390625 
Q 38.8125 6.390625 42.859375 10.171875 
Q 46.921875 13.96875 46.921875 20.515625 
Q 46.921875 27.09375 42.890625 30.859375 
Q 38.875 34.625 31.78125 34.625 
z
M 21.921875 38.8125 
Q 15.578125 40.375 12.03125 44.71875 
Q 8.5 49.078125 8.5 55.328125 
Q 8.5 64.0625 14.71875 69.140625 
Q 20.953125 74.21875 31.78125 74.21875 
Q 42.671875 74.21875 48.875 69.140625 
Q 55.078125 64.0625 55.078125 55.328125 
Q 55.078125 49.078125 51.53125 44.71875 
Q 48 40.375 41.703125 38.8125 
Q 48.828125 37.15625 52.796875 32.3125 
Q 56.78125 27.484375 56.78125 20.515625 
Q 56.78125 9.90625 50.3125 4.234375 
Q 43.84375 -1.421875 31.78125 -1.421875 
Q 19.734375 -1.421875 13.25 4.234375 
Q 6.78125 9.90625 6.78125 20.515625 
Q 6.78125 27.484375 10.78125 32.3125 
Q 14.796875 37.15625 21.921875 38.8125 
z
M 18.3125 54.390625 
Q 18.3125 48.734375 21.84375 45.5625 
Q 25.390625 42.390625 31.78125 42.390625 
Q 38.140625 42.390625 41.71875 45.5625 
Q 45.3125 48.734375 45.3125 54.390625 
Q 45.3125 60.0625 41.71875 63.234375 
Q 38.140625 66.40625 31.78125 66.40625 
Q 25.390625 66.40625 21.84375 63.234375 
Q 18.3125 60.0625 18.3125 54.390625 
z
" id="DejaVuSans-56"/>
      </defs>
      <g transform="translate(100.431917 318.238437)scale(0.1 -0.1)">
       <use xlink:href="#DejaVuSans-51"/>
       <use x="63.623047" xlink:href="#DejaVuSans-48"/>
       <use x="127.246094" xlink:href="#DejaVuSans-56"/>
      </g>
     </g>
    </g>
    <g id="xtick_2">
     <g id="line2d_2">
      <g>
       <use style="stroke:#000000;stroke-width:0.8;" x="277.842667" xlink:href="#m7395260327" y="303.64"/>
      </g>
     </g>
     <g id="text_2">
      <!-- 307 -->
      <defs>
       <path d="M 8.203125 72.90625 
L 55.078125 72.90625 
L 55.078125 68.703125 
L 28.609375 0 
L 18.3125 0 
L 43.21875 64.59375 
L 8.203125 64.59375 
z
" id="DejaVuSans-55"/>
      </defs>
      <g transform="translate(268.298917 318.238437)scale(0.1 -0.1)">
       <use xlink:href="#DejaVuSans-51"/>
       <use x="63.623047" xlink:href="#DejaVuSans-48"/>
       <use x="127.246094" xlink:href="#DejaVuSans-55"/>
      </g>
     </g>
    </g>
    <g id="text_3">
     <!-- day -->
     <defs>
      <path d="M 45.40625 46.390625 
L 45.40625 75.984375 
L 54.390625 75.984375 
L 54.390625 0 
L 45.40625 0 
L 45.40625 8.203125 
Q 42.578125 3.328125 38.25 0.953125 
Q 33.9375 -1.421875 27.875 -1.421875 
Q 17.96875 -1.421875 11.734375 6.484375 
Q 5.515625 14.40625 5.515625 27.296875 
Q 5.515625 40.1875 11.734375 48.09375 
Q 17.96875 56 27.875 56 
Q 33.9375 56 38.25 53.625 
Q 42.578125 51.265625 45.40625 46.390625 
z
M 14.796875 27.296875 
Q 14.796875 17.390625 18.875 11.75 
Q 22.953125 6.109375 30.078125 6.109375 
Q 37.203125 6.109375 41.296875 11.75 
Q 45.40625 17.390625 45.40625 27.296875 
Q 45.40625 37.203125 41.296875 42.84375 
Q 37.203125 48.484375 30.078125 48.484375 
Q 22.953125 48.484375 18.875 42.84375 
Q 14.796875 37.203125 14.796875 27.296875 
z
" id="DejaVuSans-100"/>
      <path d="M 34.28125 27.484375 
Q 23.390625 27.484375 19.1875 25 
Q 14.984375 22.515625 14.984375 16.5 
Q 14.984375 11.71875 18.140625 8.90625 
Q 21.296875 6.109375 26.703125 6.109375 
Q 34.1875 6.109375 38.703125 11.40625 
Q 43.21875 16.703125 43.21875 25.484375 
L 43.21875 27.484375 
z
M 52.203125 31.203125 
L 52.203125 0 
L 43.21875 0 
L 43.21875 8.296875 
Q 40.140625 3.328125 35.546875 0.953125 
Q 30.953125 -1.421875 24.3125 -1.421875 
Q 15.921875 -1.421875 10.953125 3.296875 
Q 6 8.015625 6 15.921875 
Q 6 25.140625 12.171875 29.828125 
Q 18.359375 34.515625 30.609375 34.515625 
L 43.21875 34.515625 
L 43.21875 35.40625 
Q 43.21875 41.609375 39.140625 45 
Q 35.0625 48.390625 27.6875 48.390625 
Q 23 48.390625 18.546875 47.265625 
Q 14.109375 46.140625 10.015625 43.890625 
L 10.015625 52.203125 
Q 14.9375 54.109375 19.578125 55.046875 
Q 24.21875 56 28.609375 56 
Q 40.484375 56 46.34375 49.84375 
Q 52.203125 43.703125 52.203125 31.203125 
z
" id="DejaVuSans-97"/>
      <path d="M 32.171875 -5.078125 
Q 28.375 -14.84375 24.75 -17.8125 
Q 21.140625 -20.796875 15.09375 -20.796875 
L 7.90625 -20.796875 
L 7.90625 -13.28125 
L 13.1875 -13.28125 
Q 16.890625 -13.28125 18.9375 -11.515625 
Q 21 -9.765625 23.484375 -3.21875 
L 25.09375 0.875 
L 2.984375 54.6875 
L 12.5 54.6875 
L 29.59375 11.921875 
L 46.6875 54.6875 
L 56.203125 54.6875 
z
" id="DejaVuSans-121"/>
     </defs>
     <g transform="translate(212.689344 331.916562)scale(0.1 -0.1)">
      <use xlink:href="#DejaVuSans-100"/>
      <use x="63.476562" xlink:href="#DejaVuSans-97"/>
      <use x="124.755859" xlink:href="#DejaVuSans-121"/>
     </g>
    </g>
   </g>
   <g id="matplotlib.axis_2">
    <g id="ytick_1">
     <g id="line2d_3">
      <defs>
       <path d="M 0 0 
L -3.5 0 
" id="m9021133a62" style="stroke:#000000;stroke-width:0.8;"/>
      </defs>
      <g>
       <use style="stroke:#000000;stroke-width:0.8;" x="54.02" xlink:href="#m9021133a62" y="292.338385"/>
      </g>
     </g>
     <g id="text_4">
      <!-- 36.5 -->
      <defs>
       <path d="M 33.015625 40.375 
Q 26.375 40.375 22.484375 35.828125 
Q 18.609375 31.296875 18.609375 23.390625 
Q 18.609375 15.53125 22.484375 10.953125 
Q 26.375 6.390625 33.015625 6.390625 
Q 39.65625 6.390625 43.53125 10.953125 
Q 47.40625 15.53125 47.40625 23.390625 
Q 47.40625 31.296875 43.53125 35.828125 
Q 39.65625 40.375 33.015625 40.375 
z
M 52.59375 71.296875 
L 52.59375 62.3125 
Q 48.875 64.0625 45.09375 64.984375 
Q 41.3125 65.921875 37.59375 65.921875 
Q 27.828125 65.921875 22.671875 59.328125 
Q 17.53125 52.734375 16.796875 39.40625 
Q 19.671875 43.65625 24.015625 45.921875 
Q 28.375 48.1875 33.59375 48.1875 
Q 44.578125 48.1875 50.953125 41.515625 
Q 57.328125 34.859375 57.328125 23.390625 
Q 57.328125 12.15625 50.6875 5.359375 
Q 44.046875 -1.421875 33.015625 -1.421875 
Q 20.359375 -1.421875 13.671875 8.265625 
Q 6.984375 17.96875 6.984375 36.375 
Q 6.984375 53.65625 15.1875 63.9375 
Q 23.390625 74.21875 37.203125 74.21875 
Q 40.921875 74.21875 44.703125 73.484375 
Q 48.484375 72.75 52.59375 71.296875 
z
" id="DejaVuSans-54"/>
       <path d="M 10.6875 12.40625 
L 21 12.40625 
L 21 0 
L 10.6875 0 
z
" id="DejaVuSans-46"/>
       <path d="M 10.796875 72.90625 
L 49.515625 72.90625 
L 49.515625 64.59375 
L 19.828125 64.59375 
L 19.828125 46.734375 
Q 21.96875 47.46875 24.109375 47.828125 
Q 26.265625 48.1875 28.421875 48.1875 
Q 40.625 48.1875 47.75 41.5 
Q 54.890625 34.8125 54.890625 23.390625 
Q 54.890625 11.625 47.5625 5.09375 
Q 40.234375 -1.421875 26.90625 -1.421875 
Q 22.3125 -1.421875 17.546875 -0.640625 
Q 12.796875 0.140625 7.71875 1.703125 
L 7.71875 11.625 
Q 12.109375 9.234375 16.796875 8.0625 
Q 21.484375 6.890625 26.703125 6.890625 
Q 35.15625 6.890625 40.078125 11.328125 
Q 45.015625 15.765625 45.015625 23.390625 
Q 45.015625 31 40.078125 35.4375 
Q 35.15625 39.890625 26.703125 39.890625 
Q 22.75 39.890625 18.8125 39.015625 
Q 14.890625 38.140625 10.796875 36.28125 
z
" id="DejaVuSans-53"/>
      </defs>
      <g transform="translate(24.754375 296.137603)scale(0.1 -0.1)">
       <use xlink:href="#DejaVuSans-51"/>
       <use x="63.623047" xlink:href="#DejaVuSans-54"/>
       <use x="127.246094" xlink:href="#DejaVuSans-46"/>
       <use x="159.033203" xlink:href="#DejaVuSans-53"/>
      </g>
     </g>
    </g>
    <g id="ytick_2">
     <g id="line2d_4">
      <g>
       <use style="stroke:#000000;stroke-width:0.8;" x="54.02" xlink:href="#m9021133a62" y="234.082635"/>
      </g>
     </g>
     <g id="text_5">
      <!-- 37.0 -->
      <g transform="translate(24.754375 237.881854)scale(0.1 -0.1)">
       <use xlink:href="#DejaVuSans-51"/>
       <use x="63.623047" xlink:href="#DejaVuSans-55"/>
       <use x="127.246094" xlink:href="#DejaVuSans-46"/>
       <use x="159.033203" xlink:href="#DejaVuSans-48"/>
      </g>
     </g>
    </g>
    <g id="ytick_3">
     <g id="line2d_5">
      <g>
       <use style="stroke:#000000;stroke-width:0.8;" x="54.02" xlink:href="#m9021133a62" y="175.826886"/>
      </g>
     </g>
     <g id="text_6">
      <!-- 37.5 -->
      <g transform="translate(24.754375 179.626105)scale(0.1 -0.1)">
       <use xlink:href="#DejaVuSans-51"/>
       <use x="63.623047" xlink:href="#DejaVuSans-55"/>
       <use x="127.246094" xlink:href="#DejaVuSans-46"/>
       <use x="159.033203" xlink:href="#DejaVuSans-53"/>
      </g>
     </g>
    </g>
    <g id="ytick_4">
     <g id="line2d_6">
      <g>
       <use style="stroke:#000000;stroke-width:0.8;" x="54.02" xlink:href="#m9021133a62" y="117.571137"/>
      </g>
     </g>
     <g id="text_7">
      <!-- 38.0 -->
      <g transform="translate(24.754375 121.370356)scale(0.1 -0.1)">
       <use xlink:href="#DejaVuSans-51"/>
       <use x="63.623047" xlink:href="#DejaVuSans-56"/>
       <use x="127.246094" xlink:href="#DejaVuSans-46"/>
       <use x="159.033203" xlink:href="#DejaVuSans-48"/>
      </g>
     </g>
    </g>
    <g id="ytick_5">
     <g id="line2d_7">
      <g>
       <use style="stroke:#000000;stroke-width:0.8;" x="54.02" xlink:href="#m9021133a62" y="59.315388"/>
      </g>
     </g>
     <g id="text_8">
      <!-- 38.5 -->
      <g transform="translate(24.754375 63.114607)scale(0.1 -0.1)">
       <use xlink:href="#DejaVuSans-51"/>
       <use x="63.623047" xlink:href="#DejaVuSans-56"/>
       <use x="127.246094" xlink:href="#DejaVuSans-46"/>
       <use x="159.033203" xlink:href="#DejaVuSans-53"/>
      </g>
     </g>
    </g>
    <g id="text_9">
     <!-- temp -->
     <defs>
      <path d="M 18.3125 70.21875 
L 18.3125 54.6875 
L 36.8125 54.6875 
L 36.8125 47.703125 
L 18.3125 47.703125 
L 18.3125 18.015625 
Q 18.3125 11.328125 20.140625 9.421875 
Q 21.96875 7.515625 27.59375 7.515625 
L 36.8125 7.515625 
L 36.8125 0 
L 27.59375 0 
Q 17.1875 0 13.234375 3.875 
Q 9.28125 7.765625 9.28125 18.015625 
L 9.28125 47.703125 
L 2.6875 47.703125 
L 2.6875 54.6875 
L 9.28125 54.6875 
L 9.28125 70.21875 
z
" id="DejaVuSans-116"/>
      <path d="M 56.203125 29.59375 
L 56.203125 25.203125 
L 14.890625 25.203125 
Q 15.484375 15.921875 20.484375 11.0625 
Q 25.484375 6.203125 34.421875 6.203125 
Q 39.59375 6.203125 44.453125 7.46875 
Q 49.3125 8.734375 54.109375 11.28125 
L 54.109375 2.78125 
Q 49.265625 0.734375 44.1875 -0.34375 
Q 39.109375 -1.421875 33.890625 -1.421875 
Q 20.796875 -1.421875 13.15625 6.1875 
Q 5.515625 13.8125 5.515625 26.8125 
Q 5.515625 40.234375 12.765625 48.109375 
Q 20.015625 56 32.328125 56 
Q 43.359375 56 49.78125 48.890625 
Q 56.203125 41.796875 56.203125 29.59375 
z
M 47.21875 32.234375 
Q 47.125 39.59375 43.09375 43.984375 
Q 39.0625 48.390625 32.421875 48.390625 
Q 24.90625 48.390625 20.390625 44.140625 
Q 15.875 39.890625 15.1875 32.171875 
z
" id="DejaVuSans-101"/>
      <path d="M 52 44.1875 
Q 55.375 50.25 60.0625 53.125 
Q 64.75 56 71.09375 56 
Q 79.640625 56 84.28125 50.015625 
Q 88.921875 44.046875 88.921875 33.015625 
L 88.921875 0 
L 79.890625 0 
L 79.890625 32.71875 
Q 79.890625 40.578125 77.09375 44.375 
Q 74.3125 48.1875 68.609375 48.1875 
Q 61.625 48.1875 57.5625 43.546875 
Q 53.515625 38.921875 53.515625 30.90625 
L 53.515625 0 
L 44.484375 0 
L 44.484375 32.71875 
Q 44.484375 40.625 41.703125 44.40625 
Q 38.921875 48.1875 33.109375 48.1875 
Q 26.21875 48.1875 22.15625 43.53125 
Q 18.109375 38.875 18.109375 30.90625 
L 18.109375 0 
L 9.078125 0 
L 9.078125 54.6875 
L 18.109375 54.6875 
L 18.109375 46.1875 
Q 21.1875 51.21875 25.484375 53.609375 
Q 29.78125 56 35.6875 56 
Q 41.65625 56 45.828125 52.96875 
Q 50 49.953125 52 44.1875 
z
" id="DejaVuSans-109"/>
      <path d="M 18.109375 8.203125 
L 18.109375 -20.796875 
L 9.078125 -20.796875 
L 9.078125 54.6875 
L 18.109375 54.6875 
L 18.109375 46.390625 
Q 20.953125 51.265625 25.265625 53.625 
Q 29.59375 56 35.59375 56 
Q 45.5625 56 51.78125 48.09375 
Q 58.015625 40.1875 58.015625 27.296875 
Q 58.015625 14.40625 51.78125 6.484375 
Q 45.5625 -1.421875 35.59375 -1.421875 
Q 29.59375 -1.421875 25.265625 0.953125 
Q 20.953125 3.328125 18.109375 8.203125 
z
M 48.6875 27.296875 
Q 48.6875 37.203125 44.609375 42.84375 
Q 40.53125 48.484375 33.40625 48.484375 
Q 26.265625 48.484375 22.1875 42.84375 
Q 18.109375 37.203125 18.109375 27.296875 
Q 18.109375 17.390625 22.1875 11.75 
Q 26.265625 6.109375 33.40625 6.109375 
Q 40.53125 6.109375 44.609375 11.75 
Q 48.6875 17.390625 48.6875 27.296875 
z
" id="DejaVuSans-112"/>
     </defs>
     <g transform="translate(18.674688 170.30125)rotate(-90)scale(0.1 -0.1)">
      <use xlink:href="#DejaVuSans-116"/>
      <use x="39.208984" xlink:href="#DejaVuSans-101"/>
      <use x="100.732422" xlink:href="#DejaVuSans-109"/>
      <use x="198.144531" xlink:href="#DejaVuSans-112"/>
     </g>
    </g>
   </g>
   <g id="line2d_8">
    <path clip-path="url(#pa84fdbf4a5)" d="M 221.887 56.169577 
L 221.887 45.85831 
L 333.798333 45.85831 
L 333.798333 56.169577 
" style="fill:none;stroke:#000000;stroke-linecap:square;"/>
   </g>
   <g id="patch_3">
    <path d="M 54.02 303.64 
L 54.02 10.8 
" style="fill:none;stroke:#000000;stroke-linecap:square;stroke-linejoin:miter;stroke-width:0.8;"/>
   </g>
   <g id="patch_4">
    <path d="M 389.754 303.64 
L 389.754 10.8 
" style="fill:none;stroke:#000000;stroke-linecap:square;stroke-linejoin:miter;stroke-width:0.8;"/>
   </g>
   <g id="patch_5">
    <path d="M 54.02 303.64 
L 389.754 303.64 
" style="fill:none;stroke:#000000;stroke-linecap:square;stroke-linejoin:miter;stroke-width:0.8;"/>
   </g>
   <g id="patch_6">
    <path d="M 54.02 10.8 
L 389.754 10.8 
" style="fill:none;stroke:#000000;stroke-linecap:square;stroke-linejoin:miter;stroke-width:0.8;"/>
   </g>
   <g id="PathCollection_1">
    <defs>
     <path d="M 0 2.236068 
C 0.593012 2.236068 1.161816 2.000462 1.581139 1.581139 
C 2.000462 1.161816 2.236068 0.593012 2.236068 0 
C 2.236068 -0.593012 2.000462 -1.161816 1.581139 -1.581139 
C 1.161816 -2.000462 0.593012 -2.236068 0 -2.236068 
C -0.593012 -2.236068 -1.161816 -2.000462 -1.581139 -1.581139 
C -2.000462 -1.161816 -2.236068 -0.593012 -2.236068 0 
C -2.236068 0.593012 -2.000462 1.161816 -1.581139 1.581139 
C -1.161816 2.000462 -0.593012 2.236068 0 2.236068 
z
" id="mb147c20111" style="stroke:#377eb8;"/>
    </defs>
    <g clip-path="url(#pa84fdbf4a5)">
     <use style="fill:#377eb8;stroke:#377eb8;" x="129.086184" xlink:href="#mb147c20111" y="152.524587"/>
     <use style="fill:#377eb8;stroke:#377eb8;" x="93.010862" xlink:href="#mb147c20111" y="180.487346"/>
     <use style="fill:#377eb8;stroke:#377eb8;" x="102.10916" xlink:href="#mb147c20111" y="186.312921"/>
     <use style="fill:#377eb8;stroke:#377eb8;" x="115.318293" xlink:href="#mb147c20111" y="180.487346"/>
     <use style="fill:#377eb8;stroke:#377eb8;" x="89.944877" xlink:href="#mb147c20111" y="168.836196"/>
     <use style="fill:#377eb8;stroke:#377eb8;" x="115.891186" xlink:href="#mb147c20111" y="170.001311"/>
     <use style="fill:#377eb8;stroke:#377eb8;" x="129.554145" xlink:href="#mb147c20111" y="146.699012"/>
     <use style="fill:#377eb8;stroke:#377eb8;" x="108.047331" xlink:href="#mb147c20111" y="145.533897"/>
     <use style="fill:#377eb8;stroke:#377eb8;" x="115.115311" xlink:href="#mb147c20111" y="149.029242"/>
     <use style="fill:#377eb8;stroke:#377eb8;" x="107.529701" xlink:href="#mb147c20111" y="144.368782"/>
     <use style="fill:#377eb8;stroke:#377eb8;" x="119.155473" xlink:href="#mb147c20111" y="116.406022"/>
     <use style="fill:#377eb8;stroke:#377eb8;" x="106.726283" xlink:href="#mb147c20111" y="112.910677"/>
     <use style="fill:#377eb8;stroke:#377eb8;" x="96.0511" xlink:href="#mb147c20111" y="109.415332"/>
    </g>
   </g>
   <g id="PathCollection_2">
    <defs>
     <path d="M 0 2.236068 
C 0.593012 2.236068 1.161816 2.000462 1.581139 1.581139 
C 2.000462 1.161816 2.236068 0.593012 2.236068 0 
C 2.236068 -0.593012 2.000462 -1.161816 1.581139 -1.581139 
C 1.161816 -2.000462 0.593012 -2.236068 0 -2.236068 
C -0.593012 -2.236068 -1.161816 -2.000462 -1.581139 -1.581139 
C -2.000462 -1.161816 -2.236068 -0.593012 -2.236068 0 
C -2.236068 0.593012 -2.000462 1.161816 -1.581139 1.581139 
C -1.161816 2.000462 -0.593012 2.236068 0 2.236068 
z
" id="m27a90b556f" style="stroke:#e41a1c;"/>
    </defs>
    <g clip-path="url(#pa84fdbf4a5)">
     <use style="fill:#e41a1c;stroke:#e41a1c;" x="239.262964" xlink:href="#m27a90b556f" y="283.017465"/>
     <use style="fill:#e41a1c;stroke:#e41a1c;" x="204.329523" xlink:href="#m27a90b556f" y="265.54074"/>
     <use style="fill:#e41a1c;stroke:#e41a1c;" x="217.504516" xlink:href="#m27a90b556f" y="242.23844"/>
     <use style="fill:#e41a1c;stroke:#e41a1c;" x="229.349299" xlink:href="#m27a90b556f" y="216.605911"/>
     <use style="fill:#e41a1c;stroke:#e41a1c;" x="237.103285" xlink:href="#m27a90b556f" y="207.284991"/>
     <use style="fill:#e41a1c;stroke:#e41a1c;" x="235.682655" xlink:href="#m27a90b556f" y="206.119876"/>
     <use style="fill:#e41a1c;stroke:#e41a1c;" x="213.937568" xlink:href="#m27a90b556f" y="206.119876"/>
     <use style="fill:#e41a1c;stroke:#e41a1c;" x="224.25664" xlink:href="#m27a90b556f" y="245.733785"/>
     <use style="fill:#e41a1c;stroke:#e41a1c;" x="234.906557" xlink:href="#m27a90b556f" y="239.90821"/>
     <use style="fill:#e41a1c;stroke:#e41a1c;" x="199.86816" xlink:href="#m27a90b556f" y="246.8989"/>
     <use style="fill:#e41a1c;stroke:#e41a1c;" x="239.207276" xlink:href="#m27a90b556f" y="239.90821"/>
     <use style="fill:#e41a1c;stroke:#e41a1c;" x="199.45106" xlink:href="#m27a90b556f" y="234.082635"/>
     <use style="fill:#e41a1c;stroke:#e41a1c;" x="225.850009" xlink:href="#m27a90b556f" y="245.733785"/>
     <use style="fill:#e41a1c;stroke:#e41a1c;" x="202.649004" xlink:href="#m27a90b556f" y="235.24775"/>
     <use style="fill:#e41a1c;stroke:#e41a1c;" x="207.658332" xlink:href="#m27a90b556f" y="235.24775"/>
     <use style="fill:#e41a1c;stroke:#e41a1c;" x="215.42966" xlink:href="#m27a90b556f" y="232.91752"/>
     <use style="fill:#e41a1c;stroke:#e41a1c;" x="226.450668" xlink:href="#m27a90b556f" y="229.422176"/>
     <use style="fill:#e41a1c;stroke:#e41a1c;" x="204.908306" xlink:href="#m27a90b556f" y="229.422176"/>
     <use style="fill:#e41a1c;stroke:#e41a1c;" x="237.496312" xlink:href="#m27a90b556f" y="217.771026"/>
     <use style="fill:#e41a1c;stroke:#e41a1c;" x="201.435701" xlink:href="#m27a90b556f" y="225.926831"/>
     <use style="fill:#e41a1c;stroke:#e41a1c;" x="239.901712" xlink:href="#m27a90b556f" y="236.412865"/>
     <use style="fill:#e41a1c;stroke:#e41a1c;" x="222.991472" xlink:href="#m27a90b556f" y="232.91752"/>
     <use style="fill:#e41a1c;stroke:#e41a1c;" x="215.644815" xlink:href="#m27a90b556f" y="237.57798"/>
     <use style="fill:#e41a1c;stroke:#e41a1c;" x="200.888685" xlink:href="#m27a90b556f" y="237.57798"/>
     <use style="fill:#e41a1c;stroke:#e41a1c;" x="242.017327" xlink:href="#m27a90b556f" y="220.101256"/>
     <use style="fill:#e41a1c;stroke:#e41a1c;" x="208.644303" xlink:href="#m27a90b556f" y="218.936141"/>
     <use style="fill:#e41a1c;stroke:#e41a1c;" x="213.092369" xlink:href="#m27a90b556f" y="217.771026"/>
     <use style="fill:#e41a1c;stroke:#e41a1c;" x="239.373757" xlink:href="#m27a90b556f" y="216.605911"/>
     <use style="fill:#e41a1c;stroke:#e41a1c;" x="208.529991" xlink:href="#m27a90b556f" y="214.275681"/>
     <use style="fill:#e41a1c;stroke:#e41a1c;" x="214.855327" xlink:href="#m27a90b556f" y="220.101256"/>
     <use style="fill:#e41a1c;stroke:#e41a1c;" x="202.538004" xlink:href="#m27a90b556f" y="220.101256"/>
     <use style="fill:#e41a1c;stroke:#e41a1c;" x="231.149069" xlink:href="#m27a90b556f" y="214.275681"/>
     <use style="fill:#e41a1c;stroke:#e41a1c;" x="204.334739" xlink:href="#m27a90b556f" y="201.459416"/>
     <use style="fill:#e41a1c;stroke:#e41a1c;" x="240.95116" xlink:href="#m27a90b556f" y="201.459416"/>
     <use style="fill:#e41a1c;stroke:#e41a1c;" x="219.637057" xlink:href="#m27a90b556f" y="182.817576"/>
     <use style="fill:#e41a1c;stroke:#e41a1c;" x="217.376988" xlink:href="#m27a90b556f" y="174.661771"/>
     <use style="fill:#e41a1c;stroke:#e41a1c;" x="199.143789" xlink:href="#m27a90b556f" y="159.515277"/>
     <use style="fill:#e41a1c;stroke:#e41a1c;" x="203.981581" xlink:href="#m27a90b556f" y="174.661771"/>
    </g>
   </g>
   <g id="PathCollection_3">
    <g clip-path="url(#pa84fdbf4a5)">
     <use style="fill:#377eb8;stroke:#377eb8;" x="354.470811" xlink:href="#mb147c20111" y="119.901367"/>
     <use style="fill:#377eb8;stroke:#377eb8;" x="339.663441" xlink:href="#mb147c20111" y="115.240907"/>
     <use style="fill:#377eb8;stroke:#377eb8;" x="312.429776" xlink:href="#mb147c20111" y="117.571137"/>
     <use style="fill:#377eb8;stroke:#377eb8;" x="326.79911" xlink:href="#mb147c20111" y="89.608377"/>
     <use style="fill:#377eb8;stroke:#377eb8;" x="312.412702" xlink:href="#mb147c20111" y="105.919987"/>
     <use style="fill:#377eb8;stroke:#377eb8;" x="346.109031" xlink:href="#mb147c20111" y="89.608377"/>
     <use style="fill:#377eb8;stroke:#377eb8;" x="310.329556" xlink:href="#mb147c20111" y="104.754872"/>
     <use style="fill:#377eb8;stroke:#377eb8;" x="332.879801" xlink:href="#mb147c20111" y="115.240907"/>
     <use style="fill:#377eb8;stroke:#377eb8;" x="357.012248" xlink:href="#mb147c20111" y="104.754872"/>
     <use style="fill:#377eb8;stroke:#377eb8;" x="338.333972" xlink:href="#mb147c20111" y="116.406022"/>
     <use style="fill:#377eb8;stroke:#377eb8;" x="310.513708" xlink:href="#mb147c20111" y="128.057172"/>
     <use style="fill:#377eb8;stroke:#377eb8;" x="322.71771" xlink:href="#mb147c20111" y="122.231597"/>
     <use style="fill:#377eb8;stroke:#377eb8;" x="326.202257" xlink:href="#mb147c20111" y="114.075792"/>
     <use style="fill:#377eb8;stroke:#377eb8;" x="312.600237" xlink:href="#mb147c20111" y="97.764182"/>
     <use style="fill:#377eb8;stroke:#377eb8;" x="337.922329" xlink:href="#mb147c20111" y="95.433952"/>
     <use style="fill:#377eb8;stroke:#377eb8;" x="353.795358" xlink:href="#mb147c20111" y="96.599067"/>
     <use style="fill:#377eb8;stroke:#377eb8;" x="356.051438" xlink:href="#mb147c20111" y="100.094412"/>
     <use style="fill:#377eb8;stroke:#377eb8;" x="319.995903" xlink:href="#mb147c20111" y="112.910677"/>
     <use style="fill:#377eb8;stroke:#377eb8;" x="352.685118" xlink:href="#mb147c20111" y="122.231597"/>
     <use style="fill:#377eb8;stroke:#377eb8;" x="320.557501" xlink:href="#mb147c20111" y="136.212977"/>
     <use style="fill:#377eb8;stroke:#377eb8;" x="341.639447" xlink:href="#mb147c20111" y="137.378092"/>
     <use style="fill:#377eb8;stroke:#377eb8;" x="341.618254" xlink:href="#mb147c20111" y="136.212977"/>
     <use style="fill:#377eb8;stroke:#377eb8;" x="322.630297" xlink:href="#mb147c20111" y="147.864127"/>
     <use style="fill:#377eb8;stroke:#377eb8;" x="355.687995" xlink:href="#mb147c20111" y="145.533897"/>
     <use style="fill:#377eb8;stroke:#377eb8;" x="338.342992" xlink:href="#mb147c20111" y="145.533897"/>
     <use style="fill:#377eb8;stroke:#377eb8;" x="351.951124" xlink:href="#mb147c20111" y="159.515277"/>
     <use style="fill:#377eb8;stroke:#377eb8;" x="343.330917" xlink:href="#mb147c20111" y="160.680392"/>
     <use style="fill:#377eb8;stroke:#377eb8;" x="319.276132" xlink:href="#mb147c20111" y="110.580447"/>
     <use style="fill:#377eb8;stroke:#377eb8;" x="354.757048" xlink:href="#mb147c20111" y="95.433952"/>
     <use style="fill:#377eb8;stroke:#377eb8;" x="349.463255" xlink:href="#mb147c20111" y="76.792113"/>
     <use style="fill:#377eb8;stroke:#377eb8;" x="323.097095" xlink:href="#mb147c20111" y="88.443263"/>
     <use style="fill:#377eb8;stroke:#377eb8;" x="352.696861" xlink:href="#mb147c20111" y="133.882747"/>
     <use style="fill:#377eb8;stroke:#377eb8;" x="341.373848" xlink:href="#mb147c20111" y="123.396712"/>
     <use style="fill:#377eb8;stroke:#377eb8;" x="315.533764" xlink:href="#mb147c20111" y="123.396712"/>
     <use style="fill:#377eb8;stroke:#377eb8;" x="336.990091" xlink:href="#mb147c20111" y="145.533897"/>
     <use style="fill:#377eb8;stroke:#377eb8;" x="332.772436" xlink:href="#mb147c20111" y="164.175736"/>
     <use style="fill:#377eb8;stroke:#377eb8;" x="313.266236" xlink:href="#mb147c20111" y="130.387402"/>
     <use style="fill:#377eb8;stroke:#377eb8;" x="310.960639" xlink:href="#mb147c20111" y="133.882747"/>
     <use style="fill:#377eb8;stroke:#377eb8;" x="339.275483" xlink:href="#mb147c20111" y="151.359472"/>
     <use style="fill:#377eb8;stroke:#377eb8;" x="354.413567" xlink:href="#mb147c20111" y="143.203667"/>
     <use style="fill:#377eb8;stroke:#377eb8;" x="339.952033" xlink:href="#mb147c20111" y="138.543207"/>
     <use style="fill:#377eb8;stroke:#377eb8;" x="324.671128" xlink:href="#mb147c20111" y="145.533897"/>
     <use style="fill:#377eb8;stroke:#377eb8;" x="316.604671" xlink:href="#mb147c20111" y="139.708322"/>
     <use style="fill:#377eb8;stroke:#377eb8;" x="356.055594" xlink:href="#mb147c20111" y="136.212977"/>
     <use style="fill:#377eb8;stroke:#377eb8;" x="327.439386" xlink:href="#mb147c20111" y="116.406022"/>
     <use style="fill:#377eb8;stroke:#377eb8;" x="312.829031" xlink:href="#mb147c20111" y="105.919987"/>
     <use style="fill:#377eb8;stroke:#377eb8;" x="354.608331" xlink:href="#mb147c20111" y="100.094412"/>
     <use style="fill:#377eb8;stroke:#377eb8;" x="313.175857" xlink:href="#mb147c20111" y="126.892057"/>
     <use style="fill:#377eb8;stroke:#377eb8;" x="315.549239" xlink:href="#mb147c20111" y="159.515277"/>
    </g>
   </g>
   <g id="text_10">
    <!-- **** -->
    <defs>
     <path d="M 47.015625 60.890625 
L 29.5 51.421875 
L 47.015625 41.890625 
L 44.1875 37.109375 
L 27.78125 47.015625 
L 27.78125 28.609375 
L 22.21875 28.609375 
L 22.21875 47.015625 
L 5.8125 37.109375 
L 2.984375 41.890625 
L 20.515625 51.421875 
L 2.984375 60.890625 
L 5.8125 65.71875 
L 22.21875 55.8125 
L 22.21875 74.21875 
L 27.78125 74.21875 
L 27.78125 55.8125 
L 44.1875 65.71875 
z
" id="DejaVuSans-42"/>
    </defs>
    <g style="fill:#cd5c5c;" transform="translate(267.842667 39.654115)scale(0.1 -0.1)">
     <use xlink:href="#DejaVuSans-42"/>
     <use x="50" xlink:href="#DejaVuSans-42"/>
     <use x="100" xlink:href="#DejaVuSans-42"/>
     <use x="150" xlink:href="#DejaVuSans-42"/>
    </g>
   </g>
   <g id="legend_1">
    <g id="patch_7">
     <path d="M 410.5407 282.882187 
L 430.5407 282.882187 
L 430.5407 275.882187 
L 410.5407 275.882187 
z
" style="fill:#ffffff;stroke:#e41a1c;stroke-linejoin:miter;"/>
    </g>
    <g id="text_11">
     <!-- 0 -->
     <g transform="translate(438.5407 282.882187)scale(0.1 -0.1)">
      <use xlink:href="#DejaVuSans-48"/>
     </g>
    </g>
    <g id="patch_8">
     <path d="M 410.5407 297.560312 
L 430.5407 297.560312 
L 430.5407 290.560312 
L 410.5407 290.560312 
z
" style="fill:#ffffff;stroke:#377eb8;stroke-linejoin:miter;"/>
    </g>
    <g id="text_12">
     <!-- 1 -->
     <defs>
      <path d="M 12.40625 8.296875 
L 28.515625 8.296875 
L 28.515625 63.921875 
L 10.984375 60.40625 
L 10.984375 69.390625 
L 28.421875 72.90625 
L 38.28125 72.90625 
L 38.28125 8.296875 
L 54.390625 8.296875 
L 54.390625 0 
L 12.40625 0 
z
" id="DejaVuSans-49"/>
     </defs>
     <g transform="translate(438.5407 297.560312)scale(0.1 -0.1)">
      <use xlink:href="#DejaVuSans-49"/>
     </g>
    </g>
   </g>
  </g>
 </g>
 <defs>
  <clipPath id="pa84fdbf4a5">
   <rect height="292.84" width="335.734" x="54.02" y="10.8"/>
  </clipPath>
 </defs>
</svg>
