<?xml version="1.0" encoding="utf-8" standalone="no"?>
<!DOCTYPE svg PUBLIC "-//W3C//DTD SVG 1.1//EN"
  "http://www.w3.org/Graphics/SVG/1.1/DTD/svg11.dtd">
<!-- Created with matplotlib (https://matplotlib.org/) -->
<svg height="345.6pt" version="1.1" viewBox="0 0 460.8 345.6" width="460.8pt" xmlns="http://www.w3.org/2000/svg" xmlns:xlink="http://www.w3.org/1999/xlink">
 <defs>
  <style type="text/css">
*{stroke-linecap:butt;stroke-linejoin:round;}
  </style>
 </defs>
 <g id="figure_1">
  <g id="patch_1">
   <path d="M 0 345.6 
L 460.8 345.6 
L 460.8 0 
L 0 0 
z
" style="fill:#ffffff;"/>
  </g>
  <g id="axes_1">
   <g id="patch_2">
    <path d="M 60.32 303.64 
L 389.754 303.64 
L 389.754 10.8 
L 60.32 10.8 
z
" style="fill:#ffffff;"/>
   </g>
   <g id="PathCollection_1">
    <defs>
     <path d="M 0 3 
C 0.795609 3 1.55874 2.683901 2.12132 2.12132 
C 2.683901 1.55874 3 0.795609 3 0 
C 3 -0.795609 2.683901 -1.55874 2.12132 -2.12132 
C 1.55874 -2.683901 0.795609 -3 0 -3 
C -0.795609 -3 -1.55874 -2.683901 -2.12132 -2.12132 
C -2.683901 -1.55874 -3 -0.795609 -3 0 
C -3 0.795609 -2.683901 1.55874 -2.12132 2.12132 
C -1.55874 2.683901 -0.795609 3 0 3 
z
" id="m1a24a59d6d" style="stroke:#377eb8;"/>
    </defs>
    <g clip-path="url(#p18236f3bd2)">
     <use style="fill:#377eb8;stroke:#377eb8;" x="135.521222" xlink:href="#m1a24a59d6d" y="131.061942"/>
     <use style="fill:#377eb8;stroke:#377eb8;" x="129.627741" xlink:href="#m1a24a59d6d" y="163.62384"/>
     <use style="fill:#377eb8;stroke:#377eb8;" x="128.191788" xlink:href="#m1a24a59d6d" y="170.407569"/>
     <use style="fill:#377eb8;stroke:#377eb8;" x="103.851023" xlink:href="#m1a24a59d6d" y="163.62384"/>
     <use style="fill:#377eb8;stroke:#377eb8;" x="122.773899" xlink:href="#m1a24a59d6d" y="150.056383"/>
     <use style="fill:#377eb8;stroke:#377eb8;" x="128.851431" xlink:href="#m1a24a59d6d" y="151.413128"/>
     <use style="fill:#377eb8;stroke:#377eb8;" x="129.531361" xlink:href="#m1a24a59d6d" y="124.278213"/>
     <use style="fill:#377eb8;stroke:#377eb8;" x="127.761598" xlink:href="#m1a24a59d6d" y="122.921468"/>
     <use style="fill:#377eb8;stroke:#377eb8;" x="124.147806" xlink:href="#m1a24a59d6d" y="126.991705"/>
     <use style="fill:#377eb8;stroke:#377eb8;" x="110.314855" xlink:href="#m1a24a59d6d" y="121.564722"/>
     <use style="fill:#377eb8;stroke:#377eb8;" x="102.214175" xlink:href="#m1a24a59d6d" y="89.002824"/>
     <use style="fill:#377eb8;stroke:#377eb8;" x="121.623804" xlink:href="#m1a24a59d6d" y="84.932587"/>
     <use style="fill:#377eb8;stroke:#377eb8;" x="112.220806" xlink:href="#m1a24a59d6d" y="80.86235"/>
    </g>
   </g>
   <g id="PathCollection_2">
    <defs>
     <path d="M 0 3 
C 0.795609 3 1.55874 2.683901 2.12132 2.12132 
C 2.683901 1.55874 3 0.795609 3 0 
C 3 -0.795609 2.683901 -1.55874 2.12132 -2.12132 
C 1.55874 -2.683901 0.795609 -3 0 -3 
C -0.795609 -3 -1.55874 -2.683901 -2.12132 -2.12132 
C -2.683901 -1.55874 -3 -0.795609 -3 0 
C -3 0.795609 -2.683901 1.55874 -2.12132 2.12132 
C -1.55874 2.683901 -0.795609 3 0 3 
z
" id="m1ddefd71bb" style="stroke:#e41a1c;"/>
    </defs>
    <g clip-path="url(#p18236f3bd2)">
     <use style="fill:#e41a1c;stroke:#e41a1c;" x="241.130537" xlink:href="#m1ddefd71bb" y="283.017465"/>
     <use style="fill:#e41a1c;stroke:#e41a1c;" x="247.860347" xlink:href="#m1ddefd71bb" y="262.666279"/>
     <use style="fill:#e41a1c;stroke:#e41a1c;" x="214.257367" xlink:href="#m1ddefd71bb" y="235.531364"/>
     <use style="fill:#e41a1c;stroke:#e41a1c;" x="236.496004" xlink:href="#m1ddefd71bb" y="205.682958"/>
     <use style="fill:#e41a1c;stroke:#e41a1c;" x="225.397696" xlink:href="#m1ddefd71bb" y="194.828992"/>
     <use style="fill:#e41a1c;stroke:#e41a1c;" x="208.195298" xlink:href="#m1ddefd71bb" y="193.472246"/>
     <use style="fill:#e41a1c;stroke:#e41a1c;" x="221.816872" xlink:href="#m1ddefd71bb" y="193.472246"/>
     <use style="fill:#e41a1c;stroke:#e41a1c;" x="226.988536" xlink:href="#m1ddefd71bb" y="239.601601"/>
     <use style="fill:#e41a1c;stroke:#e41a1c;" x="246.64564" xlink:href="#m1ddefd71bb" y="232.817872"/>
     <use style="fill:#e41a1c;stroke:#e41a1c;" x="246.68716" xlink:href="#m1ddefd71bb" y="240.958347"/>
     <use style="fill:#e41a1c;stroke:#e41a1c;" x="232.245732" xlink:href="#m1ddefd71bb" y="232.817872"/>
     <use style="fill:#e41a1c;stroke:#e41a1c;" x="219.429954" xlink:href="#m1ddefd71bb" y="226.034144"/>
     <use style="fill:#e41a1c;stroke:#e41a1c;" x="231.352596" xlink:href="#m1ddefd71bb" y="239.601601"/>
     <use style="fill:#e41a1c;stroke:#e41a1c;" x="204.599839" xlink:href="#m1ddefd71bb" y="227.39089"/>
     <use style="fill:#e41a1c;stroke:#e41a1c;" x="235.378035" xlink:href="#m1ddefd71bb" y="227.39089"/>
     <use style="fill:#e41a1c;stroke:#e41a1c;" x="229.274186" xlink:href="#m1ddefd71bb" y="224.677398"/>
     <use style="fill:#e41a1c;stroke:#e41a1c;" x="225.395335" xlink:href="#m1ddefd71bb" y="220.607161"/>
     <use style="fill:#e41a1c;stroke:#e41a1c;" x="219.180361" xlink:href="#m1ddefd71bb" y="220.607161"/>
     <use style="fill:#e41a1c;stroke:#e41a1c;" x="221.888582" xlink:href="#m1ddefd71bb" y="207.039703"/>
     <use style="fill:#e41a1c;stroke:#e41a1c;" x="244.631716" xlink:href="#m1ddefd71bb" y="216.536924"/>
     <use style="fill:#e41a1c;stroke:#e41a1c;" x="205.550777" xlink:href="#m1ddefd71bb" y="228.747635"/>
     <use style="fill:#e41a1c;stroke:#e41a1c;" x="222.106849" xlink:href="#m1ddefd71bb" y="224.677398"/>
     <use style="fill:#e41a1c;stroke:#e41a1c;" x="207.437692" xlink:href="#m1ddefd71bb" y="230.104381"/>
     <use style="fill:#e41a1c;stroke:#e41a1c;" x="219.697955" xlink:href="#m1ddefd71bb" y="230.104381"/>
     <use style="fill:#e41a1c;stroke:#e41a1c;" x="212.180675" xlink:href="#m1ddefd71bb" y="209.753195"/>
     <use style="fill:#e41a1c;stroke:#e41a1c;" x="206.312028" xlink:href="#m1ddefd71bb" y="208.396449"/>
     <use style="fill:#e41a1c;stroke:#e41a1c;" x="219.665351" xlink:href="#m1ddefd71bb" y="207.039703"/>
     <use style="fill:#e41a1c;stroke:#e41a1c;" x="214.332055" xlink:href="#m1ddefd71bb" y="205.682958"/>
     <use style="fill:#e41a1c;stroke:#e41a1c;" x="234.332442" xlink:href="#m1ddefd71bb" y="202.969466"/>
     <use style="fill:#e41a1c;stroke:#e41a1c;" x="219.608217" xlink:href="#m1ddefd71bb" y="209.753195"/>
     <use style="fill:#e41a1c;stroke:#e41a1c;" x="216.393251" xlink:href="#m1ddefd71bb" y="209.753195"/>
     <use style="fill:#e41a1c;stroke:#e41a1c;" x="206.73085" xlink:href="#m1ddefd71bb" y="202.969466"/>
     <use style="fill:#e41a1c;stroke:#e41a1c;" x="210.41847" xlink:href="#m1ddefd71bb" y="188.045263"/>
     <use style="fill:#e41a1c;stroke:#e41a1c;" x="205.287489" xlink:href="#m1ddefd71bb" y="188.045263"/>
     <use style="fill:#e41a1c;stroke:#e41a1c;" x="234.932548" xlink:href="#m1ddefd71bb" y="166.337331"/>
     <use style="fill:#e41a1c;stroke:#e41a1c;" x="214.287394" xlink:href="#m1ddefd71bb" y="156.840111"/>
     <use style="fill:#e41a1c;stroke:#e41a1c;" x="227.6218" xlink:href="#m1ddefd71bb" y="139.202417"/>
     <use style="fill:#e41a1c;stroke:#e41a1c;" x="243.025332" xlink:href="#m1ddefd71bb" y="156.840111"/>
    </g>
   </g>
   <g id="PathCollection_3">
    <g clip-path="url(#p18236f3bd2)">
     <use style="fill:#377eb8;stroke:#377eb8;" x="337.475835" xlink:href="#m1a24a59d6d" y="93.073062"/>
     <use style="fill:#377eb8;stroke:#377eb8;" x="323.751195" xlink:href="#m1a24a59d6d" y="87.646079"/>
     <use style="fill:#377eb8;stroke:#377eb8;" x="351.947303" xlink:href="#m1a24a59d6d" y="90.35957"/>
     <use style="fill:#377eb8;stroke:#377eb8;" x="354.648169" xlink:href="#m1a24a59d6d" y="57.797672"/>
     <use style="fill:#377eb8;stroke:#377eb8;" x="344.199056" xlink:href="#m1a24a59d6d" y="76.792113"/>
     <use style="fill:#377eb8;stroke:#377eb8;" x="326.829017" xlink:href="#m1a24a59d6d" y="57.797672"/>
     <use style="fill:#377eb8;stroke:#377eb8;" x="346.991873" xlink:href="#m1a24a59d6d" y="75.435367"/>
     <use style="fill:#377eb8;stroke:#377eb8;" x="326.969109" xlink:href="#m1a24a59d6d" y="87.646079"/>
     <use style="fill:#377eb8;stroke:#377eb8;" x="325.95973" xlink:href="#m1a24a59d6d" y="75.435367"/>
     <use style="fill:#377eb8;stroke:#377eb8;" x="328.085923" xlink:href="#m1a24a59d6d" y="89.002824"/>
     <use style="fill:#377eb8;stroke:#377eb8;" x="335.32935" xlink:href="#m1a24a59d6d" y="102.570282"/>
     <use style="fill:#377eb8;stroke:#377eb8;" x="335.174914" xlink:href="#m1a24a59d6d" y="95.786553"/>
     <use style="fill:#377eb8;stroke:#377eb8;" x="319.47044" xlink:href="#m1a24a59d6d" y="86.289333"/>
     <use style="fill:#377eb8;stroke:#377eb8;" x="347.940371" xlink:href="#m1a24a59d6d" y="67.294893"/>
     <use style="fill:#377eb8;stroke:#377eb8;" x="325.676681" xlink:href="#m1a24a59d6d" y="64.581401"/>
     <use style="fill:#377eb8;stroke:#377eb8;" x="329.788038" xlink:href="#m1a24a59d6d" y="65.938147"/>
     <use style="fill:#377eb8;stroke:#377eb8;" x="323.452699" xlink:href="#m1a24a59d6d" y="70.008384"/>
     <use style="fill:#377eb8;stroke:#377eb8;" x="339.195475" xlink:href="#m1a24a59d6d" y="84.932587"/>
     <use style="fill:#377eb8;stroke:#377eb8;" x="345.322449" xlink:href="#m1a24a59d6d" y="95.786553"/>
     <use style="fill:#377eb8;stroke:#377eb8;" x="338.721693" xlink:href="#m1a24a59d6d" y="112.067502"/>
     <use style="fill:#377eb8;stroke:#377eb8;" x="313.410874" xlink:href="#m1a24a59d6d" y="113.424248"/>
     <use style="fill:#377eb8;stroke:#377eb8;" x="342.551359" xlink:href="#m1a24a59d6d" y="112.067502"/>
     <use style="fill:#377eb8;stroke:#377eb8;" x="314.438414" xlink:href="#m1a24a59d6d" y="125.634959"/>
     <use style="fill:#377eb8;stroke:#377eb8;" x="343.450485" xlink:href="#m1a24a59d6d" y="122.921468"/>
     <use style="fill:#377eb8;stroke:#377eb8;" x="339.986459" xlink:href="#m1a24a59d6d" y="122.921468"/>
     <use style="fill:#377eb8;stroke:#377eb8;" x="324.597927" xlink:href="#m1a24a59d6d" y="139.202417"/>
     <use style="fill:#377eb8;stroke:#377eb8;" x="339.768145" xlink:href="#m1a24a59d6d" y="140.559162"/>
     <use style="fill:#377eb8;stroke:#377eb8;" x="349.515814" xlink:href="#m1a24a59d6d" y="82.219096"/>
     <use style="fill:#377eb8;stroke:#377eb8;" x="344.004859" xlink:href="#m1a24a59d6d" y="64.581401"/>
     <use style="fill:#377eb8;stroke:#377eb8;" x="314.376278" xlink:href="#m1a24a59d6d" y="42.873469"/>
     <use style="fill:#377eb8;stroke:#377eb8;" x="342.343867" xlink:href="#m1a24a59d6d" y="56.440927"/>
     <use style="fill:#377eb8;stroke:#377eb8;" x="330.282063" xlink:href="#m1a24a59d6d" y="109.35401"/>
     <use style="fill:#377eb8;stroke:#377eb8;" x="331.8373" xlink:href="#m1a24a59d6d" y="97.143299"/>
     <use style="fill:#377eb8;stroke:#377eb8;" x="330.203895" xlink:href="#m1a24a59d6d" y="97.143299"/>
     <use style="fill:#377eb8;stroke:#377eb8;" x="344.216244" xlink:href="#m1a24a59d6d" y="122.921468"/>
     <use style="fill:#377eb8;stroke:#377eb8;" x="341.13753" xlink:href="#m1a24a59d6d" y="144.6294"/>
     <use style="fill:#377eb8;stroke:#377eb8;" x="348.298958" xlink:href="#m1a24a59d6d" y="105.283773"/>
     <use style="fill:#377eb8;stroke:#377eb8;" x="329.378814" xlink:href="#m1a24a59d6d" y="109.35401"/>
     <use style="fill:#377eb8;stroke:#377eb8;" x="322.678459" xlink:href="#m1a24a59d6d" y="129.705196"/>
     <use style="fill:#377eb8;stroke:#377eb8;" x="325.368788" xlink:href="#m1a24a59d6d" y="120.207976"/>
     <use style="fill:#377eb8;stroke:#377eb8;" x="328.202368" xlink:href="#m1a24a59d6d" y="114.780993"/>
     <use style="fill:#377eb8;stroke:#377eb8;" x="351.037892" xlink:href="#m1a24a59d6d" y="122.921468"/>
     <use style="fill:#377eb8;stroke:#377eb8;" x="329.284127" xlink:href="#m1a24a59d6d" y="116.137739"/>
     <use style="fill:#377eb8;stroke:#377eb8;" x="351.623229" xlink:href="#m1a24a59d6d" y="112.067502"/>
     <use style="fill:#377eb8;stroke:#377eb8;" x="329.968628" xlink:href="#m1a24a59d6d" y="89.002824"/>
     <use style="fill:#377eb8;stroke:#377eb8;" x="345.357712" xlink:href="#m1a24a59d6d" y="76.792113"/>
     <use style="fill:#377eb8;stroke:#377eb8;" x="333.20401" xlink:href="#m1a24a59d6d" y="70.008384"/>
     <use style="fill:#377eb8;stroke:#377eb8;" x="343.316342" xlink:href="#m1a24a59d6d" y="101.213536"/>
     <use style="fill:#377eb8;stroke:#377eb8;" x="349.285663" xlink:href="#m1a24a59d6d" y="139.202417"/>
    </g>
   </g>
   <g id="patch_3">
    <path clip-path="url(#p18236f3bd2)" d="M 76.7917 5245.993373 
L 153.659633 5245.993373 
L 153.659633 129.287736 
L 76.7917 129.287736 
z
" style="fill:#377eb8;stroke:#ffffff;stroke-linejoin:miter;"/>
   </g>
   <g id="patch_4">
    <path clip-path="url(#p18236f3bd2)" d="M 186.603033 5245.993373 
L 263.470967 5245.993373 
L 263.470967 212.895132 
L 186.603033 212.895132 
z
" style="fill:#e41a1c;stroke:#ffffff;stroke-linejoin:miter;"/>
   </g>
   <g id="patch_5">
    <path clip-path="url(#p18236f3bd2)" d="M 296.414367 5245.993373 
L 373.2823 5245.993373 
L 373.2823 96.672591 
L 296.414367 96.672591 
z
" style="fill:#377eb8;stroke:#ffffff;stroke-linejoin:miter;"/>
   </g>
   <g id="matplotlib.axis_1">
    <g id="xtick_1">
     <g id="line2d_1">
      <defs>
       <path d="M 0 0 
L 0 3.5 
" id="m7d461edf42" style="stroke:#000000;stroke-width:0.8;"/>
      </defs>
      <g>
       <use style="stroke:#000000;stroke-width:0.8;" x="115.225667" xlink:href="#m7d461edf42" y="303.64"/>
      </g>
     </g>
     <g id="text_1">
      <!-- 308 -->
      <defs>
       <path d="M 40.578125 39.3125 
Q 47.65625 37.796875 51.625 33 
Q 55.609375 28.21875 55.609375 21.1875 
Q 55.609375 10.40625 48.1875 4.484375 
Q 40.765625 -1.421875 27.09375 -1.421875 
Q 22.515625 -1.421875 17.65625 -0.515625 
Q 12.796875 0.390625 7.625 2.203125 
L 7.625 11.71875 
Q 11.71875 9.328125 16.59375 8.109375 
Q 21.484375 6.890625 26.8125 6.890625 
Q 36.078125 6.890625 40.9375 10.546875 
Q 45.796875 14.203125 45.796875 21.1875 
Q 45.796875 27.640625 41.28125 31.265625 
Q 36.765625 34.90625 28.71875 34.90625 
L 20.21875 34.90625 
L 20.21875 43.015625 
L 29.109375 43.015625 
Q 36.375 43.015625 40.234375 45.921875 
Q 44.09375 48.828125 44.09375 54.296875 
Q 44.09375 59.90625 40.109375 62.90625 
Q 36.140625 65.921875 28.71875 65.921875 
Q 24.65625 65.921875 20.015625 65.03125 
Q 15.375 64.15625 9.8125 62.3125 
L 9.8125 71.09375 
Q 15.4375 72.65625 20.34375 73.4375 
Q 25.25 74.21875 29.59375 74.21875 
Q 40.828125 74.21875 47.359375 69.109375 
Q 53.90625 64.015625 53.90625 55.328125 
Q 53.90625 49.265625 50.4375 45.09375 
Q 46.96875 40.921875 40.578125 39.3125 
z
" id="DejaVuSans-51"/>
       <path d="M 31.78125 66.40625 
Q 24.171875 66.40625 20.328125 58.90625 
Q 16.5 51.421875 16.5 36.375 
Q 16.5 21.390625 20.328125 13.890625 
Q 24.171875 6.390625 31.78125 6.390625 
Q 39.453125 6.390625 43.28125 13.890625 
Q 47.125 21.390625 47.125 36.375 
Q 47.125 51.421875 43.28125 58.90625 
Q 39.453125 66.40625 31.78125 66.40625 
z
M 31.78125 74.21875 
Q 44.046875 74.21875 50.515625 64.515625 
Q 56.984375 54.828125 56.984375 36.375 
Q 56.984375 17.96875 50.515625 8.265625 
Q 44.046875 -1.421875 31.78125 -1.421875 
Q 19.53125 -1.421875 13.0625 8.265625 
Q 6.59375 17.96875 6.59375 36.375 
Q 6.59375 54.828125 13.0625 64.515625 
Q 19.53125 74.21875 31.78125 74.21875 
z
" id="DejaVuSans-48"/>
       <path d="M 31.78125 34.625 
Q 24.75 34.625 20.71875 30.859375 
Q 16.703125 27.09375 16.703125 20.515625 
Q 16.703125 13.921875 20.71875 10.15625 
Q 24.75 6.390625 31.78125 6.390625 
Q 38.8125 6.390625 42.859375 10.171875 
Q 46.921875 13.96875 46.921875 20.515625 
Q 46.921875 27.09375 42.890625 30.859375 
Q 38.875 34.625 31.78125 34.625 
z
M 21.921875 38.8125 
Q 15.578125 40.375 12.03125 44.71875 
Q 8.5 49.078125 8.5 55.328125 
Q 8.5 64.0625 14.71875 69.140625 
Q 20.953125 74.21875 31.78125 74.21875 
Q 42.671875 74.21875 48.875 69.140625 
Q 55.078125 64.0625 55.078125 55.328125 
Q 55.078125 49.078125 51.53125 44.71875 
Q 48 40.375 41.703125 38.8125 
Q 48.828125 37.15625 52.796875 32.3125 
Q 56.78125 27.484375 56.78125 20.515625 
Q 56.78125 9.90625 50.3125 4.234375 
Q 43.84375 -1.421875 31.78125 -1.421875 
Q 19.734375 -1.421875 13.25 4.234375 
Q 6.78125 9.90625 6.78125 20.515625 
Q 6.78125 27.484375 10.78125 32.3125 
Q 14.796875 37.15625 21.921875 38.8125 
z
M 18.3125 54.390625 
Q 18.3125 48.734375 21.84375 45.5625 
Q 25.390625 42.390625 31.78125 42.390625 
Q 38.140625 42.390625 41.71875 45.5625 
Q 45.3125 48.734375 45.3125 54.390625 
Q 45.3125 60.0625 41.71875 63.234375 
Q 38.140625 66.40625 31.78125 66.40625 
Q 25.390625 66.40625 21.84375 63.234375 
Q 18.3125 60.0625 18.3125 54.390625 
z
" id="DejaVuSans-56"/>
      </defs>
      <g transform="translate(105.681917 318.238437)scale(0.1 -0.1)">
       <use xlink:href="#DejaVuSans-51"/>
       <use x="63.623047" xlink:href="#DejaVuSans-48"/>
       <use x="127.246094" xlink:href="#DejaVuSans-56"/>
      </g>
     </g>
    </g>
    <g id="xtick_2">
     <g id="line2d_2">
      <g>
       <use style="stroke:#000000;stroke-width:0.8;" x="279.942667" xlink:href="#m7d461edf42" y="303.64"/>
      </g>
     </g>
     <g id="text_2">
      <!-- 307 -->
      <defs>
       <path d="M 8.203125 72.90625 
L 55.078125 72.90625 
L 55.078125 68.703125 
L 28.609375 0 
L 18.3125 0 
L 43.21875 64.59375 
L 8.203125 64.59375 
z
" id="DejaVuSans-55"/>
      </defs>
      <g transform="translate(270.398917 318.238437)scale(0.1 -0.1)">
       <use xlink:href="#DejaVuSans-51"/>
       <use x="63.623047" xlink:href="#DejaVuSans-48"/>
       <use x="127.246094" xlink:href="#DejaVuSans-55"/>
      </g>
     </g>
    </g>
    <g id="text_3">
     <!-- day -->
     <defs>
      <path d="M 45.40625 46.390625 
L 45.40625 75.984375 
L 54.390625 75.984375 
L 54.390625 0 
L 45.40625 0 
L 45.40625 8.203125 
Q 42.578125 3.328125 38.25 0.953125 
Q 33.9375 -1.421875 27.875 -1.421875 
Q 17.96875 -1.421875 11.734375 6.484375 
Q 5.515625 14.40625 5.515625 27.296875 
Q 5.515625 40.1875 11.734375 48.09375 
Q 17.96875 56 27.875 56 
Q 33.9375 56 38.25 53.625 
Q 42.578125 51.265625 45.40625 46.390625 
z
M 14.796875 27.296875 
Q 14.796875 17.390625 18.875 11.75 
Q 22.953125 6.109375 30.078125 6.109375 
Q 37.203125 6.109375 41.296875 11.75 
Q 45.40625 17.390625 45.40625 27.296875 
Q 45.40625 37.203125 41.296875 42.84375 
Q 37.203125 48.484375 30.078125 48.484375 
Q 22.953125 48.484375 18.875 42.84375 
Q 14.796875 37.203125 14.796875 27.296875 
z
" id="DejaVuSans-100"/>
      <path d="M 34.28125 27.484375 
Q 23.390625 27.484375 19.1875 25 
Q 14.984375 22.515625 14.984375 16.5 
Q 14.984375 11.71875 18.140625 8.90625 
Q 21.296875 6.109375 26.703125 6.109375 
Q 34.1875 6.109375 38.703125 11.40625 
Q 43.21875 16.703125 43.21875 25.484375 
L 43.21875 27.484375 
z
M 52.203125 31.203125 
L 52.203125 0 
L 43.21875 0 
L 43.21875 8.296875 
Q 40.140625 3.328125 35.546875 0.953125 
Q 30.953125 -1.421875 24.3125 -1.421875 
Q 15.921875 -1.421875 10.953125 3.296875 
Q 6 8.015625 6 15.921875 
Q 6 25.140625 12.171875 29.828125 
Q 18.359375 34.515625 30.609375 34.515625 
L 43.21875 34.515625 
L 43.21875 35.40625 
Q 43.21875 41.609375 39.140625 45 
Q 35.0625 48.390625 27.6875 48.390625 
Q 23 48.390625 18.546875 47.265625 
Q 14.109375 46.140625 10.015625 43.890625 
L 10.015625 52.203125 
Q 14.9375 54.109375 19.578125 55.046875 
Q 24.21875 56 28.609375 56 
Q 40.484375 56 46.34375 49.84375 
Q 52.203125 43.703125 52.203125 31.203125 
z
" id="DejaVuSans-97"/>
      <path d="M 32.171875 -5.078125 
Q 28.375 -14.84375 24.75 -17.8125 
Q 21.140625 -20.796875 15.09375 -20.796875 
L 7.90625 -20.796875 
L 7.90625 -13.28125 
L 13.1875 -13.28125 
Q 16.890625 -13.28125 18.9375 -11.515625 
Q 21 -9.765625 23.484375 -3.21875 
L 25.09375 0.875 
L 2.984375 54.6875 
L 12.5 54.6875 
L 29.59375 11.921875 
L 46.6875 54.6875 
L 56.203125 54.6875 
z
" id="DejaVuSans-121"/>
     </defs>
     <g transform="translate(215.839344 331.916562)scale(0.1 -0.1)">
      <use xlink:href="#DejaVuSans-100"/>
      <use x="63.476562" xlink:href="#DejaVuSans-97"/>
      <use x="124.755859" xlink:href="#DejaVuSans-121"/>
     </g>
    </g>
   </g>
   <g id="matplotlib.axis_2">
    <g id="ytick_1">
     <g id="line2d_3">
      <defs>
       <path d="M 0 0 
L -3.5 0 
" id="mce81699376" style="stroke:#000000;stroke-width:0.8;"/>
      </defs>
      <g>
       <use style="stroke:#000000;stroke-width:0.8;" x="60.32" xlink:href="#mce81699376" y="293.871431"/>
      </g>
     </g>
     <g id="text_4">
      <!-- 36.50 -->
      <defs>
       <path d="M 33.015625 40.375 
Q 26.375 40.375 22.484375 35.828125 
Q 18.609375 31.296875 18.609375 23.390625 
Q 18.609375 15.53125 22.484375 10.953125 
Q 26.375 6.390625 33.015625 6.390625 
Q 39.65625 6.390625 43.53125 10.953125 
Q 47.40625 15.53125 47.40625 23.390625 
Q 47.40625 31.296875 43.53125 35.828125 
Q 39.65625 40.375 33.015625 40.375 
z
M 52.59375 71.296875 
L 52.59375 62.3125 
Q 48.875 64.0625 45.09375 64.984375 
Q 41.3125 65.921875 37.59375 65.921875 
Q 27.828125 65.921875 22.671875 59.328125 
Q 17.53125 52.734375 16.796875 39.40625 
Q 19.671875 43.65625 24.015625 45.921875 
Q 28.375 48.1875 33.59375 48.1875 
Q 44.578125 48.1875 50.953125 41.515625 
Q 57.328125 34.859375 57.328125 23.390625 
Q 57.328125 12.15625 50.6875 5.359375 
Q 44.046875 -1.421875 33.015625 -1.421875 
Q 20.359375 -1.421875 13.671875 8.265625 
Q 6.984375 17.96875 6.984375 36.375 
Q 6.984375 53.65625 15.1875 63.9375 
Q 23.390625 74.21875 37.203125 74.21875 
Q 40.921875 74.21875 44.703125 73.484375 
Q 48.484375 72.75 52.59375 71.296875 
z
" id="DejaVuSans-54"/>
       <path d="M 10.6875 12.40625 
L 21 12.40625 
L 21 0 
L 10.6875 0 
z
" id="DejaVuSans-46"/>
       <path d="M 10.796875 72.90625 
L 49.515625 72.90625 
L 49.515625 64.59375 
L 19.828125 64.59375 
L 19.828125 46.734375 
Q 21.96875 47.46875 24.109375 47.828125 
Q 26.265625 48.1875 28.421875 48.1875 
Q 40.625 48.1875 47.75 41.5 
Q 54.890625 34.8125 54.890625 23.390625 
Q 54.890625 11.625 47.5625 5.09375 
Q 40.234375 -1.421875 26.90625 -1.421875 
Q 22.3125 -1.421875 17.546875 -0.640625 
Q 12.796875 0.140625 7.71875 1.703125 
L 7.71875 11.625 
Q 12.109375 9.234375 16.796875 8.0625 
Q 21.484375 6.890625 26.703125 6.890625 
Q 35.15625 6.890625 40.078125 11.328125 
Q 45.015625 15.765625 45.015625 23.390625 
Q 45.015625 31 40.078125 35.4375 
Q 35.15625 39.890625 26.703125 39.890625 
Q 22.75 39.890625 18.8125 39.015625 
Q 14.890625 38.140625 10.796875 36.28125 
z
" id="DejaVuSans-53"/>
      </defs>
      <g transform="translate(24.691875 297.670649)scale(0.1 -0.1)">
       <use xlink:href="#DejaVuSans-51"/>
       <use x="63.623047" xlink:href="#DejaVuSans-54"/>
       <use x="127.246094" xlink:href="#DejaVuSans-46"/>
       <use x="159.033203" xlink:href="#DejaVuSans-53"/>
       <use x="222.65625" xlink:href="#DejaVuSans-48"/>
      </g>
     </g>
    </g>
    <g id="ytick_2">
     <g id="line2d_4">
      <g>
       <use style="stroke:#000000;stroke-width:0.8;" x="60.32" xlink:href="#mce81699376" y="259.952787"/>
      </g>
     </g>
     <g id="text_5">
      <!-- 36.75 -->
      <g transform="translate(24.691875 263.752006)scale(0.1 -0.1)">
       <use xlink:href="#DejaVuSans-51"/>
       <use x="63.623047" xlink:href="#DejaVuSans-54"/>
       <use x="127.246094" xlink:href="#DejaVuSans-46"/>
       <use x="159.033203" xlink:href="#DejaVuSans-55"/>
       <use x="222.65625" xlink:href="#DejaVuSans-53"/>
      </g>
     </g>
    </g>
    <g id="ytick_3">
     <g id="line2d_5">
      <g>
       <use style="stroke:#000000;stroke-width:0.8;" x="60.32" xlink:href="#mce81699376" y="226.034144"/>
      </g>
     </g>
     <g id="text_6">
      <!-- 37.00 -->
      <g transform="translate(24.691875 229.833363)scale(0.1 -0.1)">
       <use xlink:href="#DejaVuSans-51"/>
       <use x="63.623047" xlink:href="#DejaVuSans-55"/>
       <use x="127.246094" xlink:href="#DejaVuSans-46"/>
       <use x="159.033203" xlink:href="#DejaVuSans-48"/>
       <use x="222.65625" xlink:href="#DejaVuSans-48"/>
      </g>
     </g>
    </g>
    <g id="ytick_4">
     <g id="line2d_6">
      <g>
       <use style="stroke:#000000;stroke-width:0.8;" x="60.32" xlink:href="#mce81699376" y="192.1155"/>
      </g>
     </g>
     <g id="text_7">
      <!-- 37.25 -->
      <defs>
       <path d="M 19.1875 8.296875 
L 53.609375 8.296875 
L 53.609375 0 
L 7.328125 0 
L 7.328125 8.296875 
Q 12.9375 14.109375 22.625 23.890625 
Q 32.328125 33.6875 34.8125 36.53125 
Q 39.546875 41.84375 41.421875 45.53125 
Q 43.3125 49.21875 43.3125 52.78125 
Q 43.3125 58.59375 39.234375 62.25 
Q 35.15625 65.921875 28.609375 65.921875 
Q 23.96875 65.921875 18.8125 64.3125 
Q 13.671875 62.703125 7.8125 59.421875 
L 7.8125 69.390625 
Q 13.765625 71.78125 18.9375 73 
Q 24.125 74.21875 28.421875 74.21875 
Q 39.75 74.21875 46.484375 68.546875 
Q 53.21875 62.890625 53.21875 53.421875 
Q 53.21875 48.921875 51.53125 44.890625 
Q 49.859375 40.875 45.40625 35.40625 
Q 44.1875 33.984375 37.640625 27.21875 
Q 31.109375 20.453125 19.1875 8.296875 
z
" id="DejaVuSans-50"/>
      </defs>
      <g transform="translate(24.691875 195.914719)scale(0.1 -0.1)">
       <use xlink:href="#DejaVuSans-51"/>
       <use x="63.623047" xlink:href="#DejaVuSans-55"/>
       <use x="127.246094" xlink:href="#DejaVuSans-46"/>
       <use x="159.033203" xlink:href="#DejaVuSans-50"/>
       <use x="222.65625" xlink:href="#DejaVuSans-53"/>
      </g>
     </g>
    </g>
    <g id="ytick_5">
     <g id="line2d_7">
      <g>
       <use style="stroke:#000000;stroke-width:0.8;" x="60.32" xlink:href="#mce81699376" y="158.196857"/>
      </g>
     </g>
     <g id="text_8">
      <!-- 37.50 -->
      <g transform="translate(24.691875 161.996076)scale(0.1 -0.1)">
       <use xlink:href="#DejaVuSans-51"/>
       <use x="63.623047" xlink:href="#DejaVuSans-55"/>
       <use x="127.246094" xlink:href="#DejaVuSans-46"/>
       <use x="159.033203" xlink:href="#DejaVuSans-53"/>
       <use x="222.65625" xlink:href="#DejaVuSans-48"/>
      </g>
     </g>
    </g>
    <g id="ytick_6">
     <g id="line2d_8">
      <g>
       <use style="stroke:#000000;stroke-width:0.8;" x="60.32" xlink:href="#mce81699376" y="124.278213"/>
      </g>
     </g>
     <g id="text_9">
      <!-- 37.75 -->
      <g transform="translate(24.691875 128.077432)scale(0.1 -0.1)">
       <use xlink:href="#DejaVuSans-51"/>
       <use x="63.623047" xlink:href="#DejaVuSans-55"/>
       <use x="127.246094" xlink:href="#DejaVuSans-46"/>
       <use x="159.033203" xlink:href="#DejaVuSans-55"/>
       <use x="222.65625" xlink:href="#DejaVuSans-53"/>
      </g>
     </g>
    </g>
    <g id="ytick_7">
     <g id="line2d_9">
      <g>
       <use style="stroke:#000000;stroke-width:0.8;" x="60.32" xlink:href="#mce81699376" y="90.35957"/>
      </g>
     </g>
     <g id="text_10">
      <!-- 38.00 -->
      <g transform="translate(24.691875 94.158789)scale(0.1 -0.1)">
       <use xlink:href="#DejaVuSans-51"/>
       <use x="63.623047" xlink:href="#DejaVuSans-56"/>
       <use x="127.246094" xlink:href="#DejaVuSans-46"/>
       <use x="159.033203" xlink:href="#DejaVuSans-48"/>
       <use x="222.65625" xlink:href="#DejaVuSans-48"/>
      </g>
     </g>
    </g>
    <g id="ytick_8">
     <g id="line2d_10">
      <g>
       <use style="stroke:#000000;stroke-width:0.8;" x="60.32" xlink:href="#mce81699376" y="56.440927"/>
      </g>
     </g>
     <g id="text_11">
      <!-- 38.25 -->
      <g transform="translate(24.691875 60.240145)scale(0.1 -0.1)">
       <use xlink:href="#DejaVuSans-51"/>
       <use x="63.623047" xlink:href="#DejaVuSans-56"/>
       <use x="127.246094" xlink:href="#DejaVuSans-46"/>
       <use x="159.033203" xlink:href="#DejaVuSans-50"/>
       <use x="222.65625" xlink:href="#DejaVuSans-53"/>
      </g>
     </g>
    </g>
    <g id="ytick_9">
     <g id="line2d_11">
      <g>
       <use style="stroke:#000000;stroke-width:0.8;" x="60.32" xlink:href="#mce81699376" y="22.522283"/>
      </g>
     </g>
     <g id="text_12">
      <!-- 38.50 -->
      <g transform="translate(24.691875 26.321502)scale(0.1 -0.1)">
       <use xlink:href="#DejaVuSans-51"/>
       <use x="63.623047" xlink:href="#DejaVuSans-56"/>
       <use x="127.246094" xlink:href="#DejaVuSans-46"/>
       <use x="159.033203" xlink:href="#DejaVuSans-53"/>
       <use x="222.65625" xlink:href="#DejaVuSans-48"/>
      </g>
     </g>
    </g>
    <g id="text_13">
     <!-- temp -->
     <defs>
      <path d="M 18.3125 70.21875 
L 18.3125 54.6875 
L 36.8125 54.6875 
L 36.8125 47.703125 
L 18.3125 47.703125 
L 18.3125 18.015625 
Q 18.3125 11.328125 20.140625 9.421875 
Q 21.96875 7.515625 27.59375 7.515625 
L 36.8125 7.515625 
L 36.8125 0 
L 27.59375 0 
Q 17.1875 0 13.234375 3.875 
Q 9.28125 7.765625 9.28125 18.015625 
L 9.28125 47.703125 
L 2.6875 47.703125 
L 2.6875 54.6875 
L 9.28125 54.6875 
L 9.28125 70.21875 
z
" id="DejaVuSans-116"/>
      <path d="M 56.203125 29.59375 
L 56.203125 25.203125 
L 14.890625 25.203125 
Q 15.484375 15.921875 20.484375 11.0625 
Q 25.484375 6.203125 34.421875 6.203125 
Q 39.59375 6.203125 44.453125 7.46875 
Q 49.3125 8.734375 54.109375 11.28125 
L 54.109375 2.78125 
Q 49.265625 0.734375 44.1875 -0.34375 
Q 39.109375 -1.421875 33.890625 -1.421875 
Q 20.796875 -1.421875 13.15625 6.1875 
Q 5.515625 13.8125 5.515625 26.8125 
Q 5.515625 40.234375 12.765625 48.109375 
Q 20.015625 56 32.328125 56 
Q 43.359375 56 49.78125 48.890625 
Q 56.203125 41.796875 56.203125 29.59375 
z
M 47.21875 32.234375 
Q 47.125 39.59375 43.09375 43.984375 
Q 39.0625 48.390625 32.421875 48.390625 
Q 24.90625 48.390625 20.390625 44.140625 
Q 15.875 39.890625 15.1875 32.171875 
z
" id="DejaVuSans-101"/>
      <path d="M 52 44.1875 
Q 55.375 50.25 60.0625 53.125 
Q 64.75 56 71.09375 56 
Q 79.640625 56 84.28125 50.015625 
Q 88.921875 44.046875 88.921875 33.015625 
L 88.921875 0 
L 79.890625 0 
L 79.890625 32.71875 
Q 79.890625 40.578125 77.09375 44.375 
Q 74.3125 48.1875 68.609375 48.1875 
Q 61.625 48.1875 57.5625 43.546875 
Q 53.515625 38.921875 53.515625 30.90625 
L 53.515625 0 
L 44.484375 0 
L 44.484375 32.71875 
Q 44.484375 40.625 41.703125 44.40625 
Q 38.921875 48.1875 33.109375 48.1875 
Q 26.21875 48.1875 22.15625 43.53125 
Q 18.109375 38.875 18.109375 30.90625 
L 18.109375 0 
L 9.078125 0 
L 9.078125 54.6875 
L 18.109375 54.6875 
L 18.109375 46.1875 
Q 21.1875 51.21875 25.484375 53.609375 
Q 29.78125 56 35.6875 56 
Q 41.65625 56 45.828125 52.96875 
Q 50 49.953125 52 44.1875 
z
" id="DejaVuSans-109"/>
      <path d="M 18.109375 8.203125 
L 18.109375 -20.796875 
L 9.078125 -20.796875 
L 9.078125 54.6875 
L 18.109375 54.6875 
L 18.109375 46.390625 
Q 20.953125 51.265625 25.265625 53.625 
Q 29.59375 56 35.59375 56 
Q 45.5625 56 51.78125 48.09375 
Q 58.015625 40.1875 58.015625 27.296875 
Q 58.015625 14.40625 51.78125 6.484375 
Q 45.5625 -1.421875 35.59375 -1.421875 
Q 29.59375 -1.421875 25.265625 0.953125 
Q 20.953125 3.328125 18.109375 8.203125 
z
M 48.6875 27.296875 
Q 48.6875 37.203125 44.609375 42.84375 
Q 40.53125 48.484375 33.40625 48.484375 
Q 26.265625 48.484375 22.1875 42.84375 
Q 18.109375 37.203125 18.109375 27.296875 
Q 18.109375 17.390625 22.1875 11.75 
Q 26.265625 6.109375 33.40625 6.109375 
Q 40.53125 6.109375 44.609375 11.75 
Q 48.6875 17.390625 48.6875 27.296875 
z
" id="DejaVuSans-112"/>
     </defs>
     <g transform="translate(18.612188 170.30125)rotate(-90)scale(0.1 -0.1)">
      <use xlink:href="#DejaVuSans-116"/>
      <use x="39.208984" xlink:href="#DejaVuSans-101"/>
      <use x="100.732422" xlink:href="#DejaVuSans-109"/>
      <use x="198.144531" xlink:href="#DejaVuSans-112"/>
     </g>
    </g>
   </g>
   <g id="LineCollection_1">
    <path clip-path="url(#p18236f3bd2)" d="M 115.225667 147.615723 
L 115.225667 110.95975 
" style="fill:none;stroke:#000000;stroke-width:5;"/>
   </g>
   <g id="LineCollection_2">
    <path clip-path="url(#p18236f3bd2)" d="M 225.037 222.157154 
L 225.037 203.63311 
" style="fill:none;stroke:#000000;stroke-width:5;"/>
   </g>
   <g id="LineCollection_3">
    <path clip-path="url(#p18236f3bd2)" d="M 334.848333 103.917795 
L 334.848333 89.427387 
" style="fill:none;stroke:#000000;stroke-width:5;"/>
   </g>
   <g id="line2d_12">
    <path clip-path="url(#p18236f3bd2)" d="M 225.037 56.169577 
L 225.037 45.85831 
L 334.848333 45.85831 
L 334.848333 56.169577 
" style="fill:none;stroke:#000000;stroke-linecap:square;"/>
   </g>
   <g id="patch_6">
    <path d="M 60.32 303.64 
L 60.32 10.8 
" style="fill:none;stroke:#000000;stroke-linecap:square;stroke-linejoin:miter;stroke-width:0.8;"/>
   </g>
   <g id="patch_7">
    <path d="M 389.754 303.64 
L 389.754 10.8 
" style="fill:none;stroke:#000000;stroke-linecap:square;stroke-linejoin:miter;stroke-width:0.8;"/>
   </g>
   <g id="patch_8">
    <path d="M 60.32 303.64 
L 389.754 303.64 
" style="fill:none;stroke:#000000;stroke-linecap:square;stroke-linejoin:miter;stroke-width:0.8;"/>
   </g>
   <g id="patch_9">
    <path d="M 60.32 10.8 
L 389.754 10.8 
" style="fill:none;stroke:#000000;stroke-linecap:square;stroke-linejoin:miter;stroke-width:0.8;"/>
   </g>
   <g id="text_14">
    <!-- **** -->
    <defs>
     <path d="M 47.015625 60.890625 
L 29.5 51.421875 
L 47.015625 41.890625 
L 44.1875 37.109375 
L 27.78125 47.015625 
L 27.78125 28.609375 
L 22.21875 28.609375 
L 22.21875 47.015625 
L 5.8125 37.109375 
L 2.984375 41.890625 
L 20.515625 51.421875 
L 2.984375 60.890625 
L 5.8125 65.71875 
L 22.21875 55.8125 
L 22.21875 74.21875 
L 27.78125 74.21875 
L 27.78125 55.8125 
L 44.1875 65.71875 
z
" id="DejaVuSans-42"/>
    </defs>
    <g style="fill:#cd5c5c;" transform="translate(269.942667 39.654115)scale(0.1 -0.1)">
     <use xlink:href="#DejaVuSans-42"/>
     <use x="50" xlink:href="#DejaVuSans-42"/>
     <use x="100" xlink:href="#DejaVuSans-42"/>
     <use x="150" xlink:href="#DejaVuSans-42"/>
    </g>
   </g>
   <g id="legend_1">
    <g id="patch_10">
     <path d="M 410.2257 282.882187 
L 430.2257 282.882187 
L 430.2257 275.882187 
L 410.2257 275.882187 
z
" style="fill:#ffffff;stroke:#e41a1c;stroke-linejoin:miter;"/>
    </g>
    <g id="text_15">
     <!-- 0 -->
     <g transform="translate(438.2257 282.882187)scale(0.1 -0.1)">
      <use xlink:href="#DejaVuSans-48"/>
     </g>
    </g>
    <g id="patch_11">
     <path d="M 410.2257 297.560312 
L 430.2257 297.560312 
L 430.2257 290.560312 
L 410.2257 290.560312 
z
" style="fill:#ffffff;stroke:#377eb8;stroke-linejoin:miter;"/>
    </g>
    <g id="text_16">
     <!-- 1 -->
     <defs>
      <path d="M 12.40625 8.296875 
L 28.515625 8.296875 
L 28.515625 63.921875 
L 10.984375 60.40625 
L 10.984375 69.390625 
L 28.421875 72.90625 
L 38.28125 72.90625 
L 38.28125 8.296875 
L 54.390625 8.296875 
L 54.390625 0 
L 12.40625 0 
z
" id="DejaVuSans-49"/>
     </defs>
     <g transform="translate(438.2257 297.560312)scale(0.1 -0.1)">
      <use xlink:href="#DejaVuSans-49"/>
     </g>
    </g>
   </g>
  </g>
 </g>
 <defs>
  <clipPath id="p18236f3bd2">
   <rect height="292.84" width="329.434" x="60.32" y="10.8"/>
  </clipPath>
 </defs>
</svg>
