<?xml version="1.0" encoding="utf-8" standalone="no"?>
<!DOCTYPE svg PUBLIC "-//W3C//DTD SVG 1.1//EN"
  "http://www.w3.org/Graphics/SVG/1.1/DTD/svg11.dtd">
<!-- Created with matplotlib (https://matplotlib.org/) -->
<svg height="345.6pt" version="1.1" viewBox="0 0 460.8 345.6" width="460.8pt" xmlns="http://www.w3.org/2000/svg" xmlns:xlink="http://www.w3.org/1999/xlink">
 <defs>
  <style type="text/css">
*{stroke-linecap:butt;stroke-linejoin:round;}
  </style>
 </defs>
 <g id="figure_1">
  <g id="patch_1">
   <path d="M 0 345.6 
L 460.8 345.6 
L 460.8 0 
L 0 0 
z
" style="fill:#ffffff;"/>
  </g>
  <g id="axes_1">
   <g id="patch_2">
    <path d="M 54.02 303.64 
L 389.754 303.64 
L 389.754 10.8 
L 54.02 10.8 
z
" style="fill:#ffffff;"/>
   </g>
   <g id="PolyCollection_1">
    <defs>
     <path d="M 184.638568 -159.287079 
L 150.021882 -159.287079 
L 149.517979 -160.063822 
L 149.027578 -160.840566 
L 148.551739 -161.617309 
L 148.091378 -162.394052 
L 147.647264 -163.170795 
L 147.220011 -163.947539 
L 146.810074 -164.724282 
L 146.41775 -165.501025 
L 146.043178 -166.277769 
L 145.686349 -167.054512 
L 145.347103 -167.831255 
L 145.02515 -168.607999 
L 144.720072 -169.384742 
L 144.431344 -170.161485 
L 144.158347 -170.938229 
L 143.900385 -171.714972 
L 143.656708 -172.491715 
L 143.426526 -173.268459 
L 143.209037 -174.045202 
L 143.003442 -174.821945 
L 142.808968 -175.598689 
L 142.624892 -176.375432 
L 142.450554 -177.152175 
L 142.28538 -177.928919 
L 142.128895 -178.705662 
L 141.980739 -179.482405 
L 141.840679 -180.259149 
L 141.708616 -181.035892 
L 141.58459 -181.812635 
L 141.468788 -182.589379 
L 141.361535 -183.366122 
L 141.263296 -184.142865 
L 141.174667 -184.919608 
L 141.096364 -185.696352 
L 141.029207 -186.473095 
L 140.974108 -187.249838 
L 140.932046 -188.026582 
L 140.90405 -188.803325 
L 140.891173 -189.580068 
L 140.894467 -190.356812 
L 140.914959 -191.133555 
L 140.953625 -191.910298 
L 141.011363 -192.687042 
L 141.088965 -193.463785 
L 141.187101 -194.240528 
L 141.306288 -195.017272 
L 141.446878 -195.794015 
L 141.609034 -196.570758 
L 141.792723 -197.347502 
L 141.997699 -198.124245 
L 142.223503 -198.900988 
L 142.469454 -199.677732 
L 142.734657 -200.454475 
L 143.018002 -201.231218 
L 143.318179 -202.007962 
L 143.63369 -202.784705 
L 143.962866 -203.561448 
L 144.303889 -204.338192 
L 144.654813 -205.114935 
L 145.013596 -205.891678 
L 145.378124 -206.668422 
L 145.746245 -207.445165 
L 146.115798 -208.221908 
L 146.484645 -208.998651 
L 146.850706 -209.775395 
L 147.211987 -210.552138 
L 147.566614 -211.328881 
L 147.912855 -212.105625 
L 148.249151 -212.882368 
L 148.574137 -213.659111 
L 148.886662 -214.435855 
L 149.185804 -215.212598 
L 149.470883 -215.989341 
L 149.74147 -216.766085 
L 149.99739 -217.542828 
L 150.23872 -218.319571 
L 150.465787 -219.096315 
L 150.679159 -219.873058 
L 150.879629 -220.649801 
L 151.068203 -221.426545 
L 151.246081 -222.203288 
L 151.414628 -222.980031 
L 151.575358 -223.756775 
L 151.7299 -224.533518 
L 151.879973 -225.310261 
L 152.027357 -226.087005 
L 152.17386 -226.863748 
L 152.321294 -227.640491 
L 152.471438 -228.417235 
L 152.626018 -229.193978 
L 152.786676 -229.970721 
L 152.954943 -230.747465 
L 153.132225 -231.524208 
L 153.319774 -232.300951 
L 153.518677 -233.077694 
L 153.729841 -233.854438 
L 153.953983 -234.631181 
L 154.191619 -235.407924 
L 154.443068 -236.184668 
L 180.217382 -236.184668 
L 180.217382 -236.184668 
L 180.468831 -235.407924 
L 180.706467 -234.631181 
L 180.930609 -233.854438 
L 181.141773 -233.077694 
L 181.340676 -232.300951 
L 181.528225 -231.524208 
L 181.705507 -230.747465 
L 181.873774 -229.970721 
L 182.034432 -229.193978 
L 182.189012 -228.417235 
L 182.339156 -227.640491 
L 182.48659 -226.863748 
L 182.633093 -226.087005 
L 182.780477 -225.310261 
L 182.93055 -224.533518 
L 183.085092 -223.756775 
L 183.245822 -222.980031 
L 183.414369 -222.203288 
L 183.592247 -221.426545 
L 183.780821 -220.649801 
L 183.981291 -219.873058 
L 184.194663 -219.096315 
L 184.42173 -218.319571 
L 184.66306 -217.542828 
L 184.91898 -216.766085 
L 185.189567 -215.989341 
L 185.474646 -215.212598 
L 185.773788 -214.435855 
L 186.086313 -213.659111 
L 186.411299 -212.882368 
L 186.747595 -212.105625 
L 187.093836 -211.328881 
L 187.448463 -210.552138 
L 187.809744 -209.775395 
L 188.175805 -208.998651 
L 188.544652 -208.221908 
L 188.914205 -207.445165 
L 189.282326 -206.668422 
L 189.646854 -205.891678 
L 190.005637 -205.114935 
L 190.356561 -204.338192 
L 190.697584 -203.561448 
L 191.02676 -202.784705 
L 191.342271 -202.007962 
L 191.642448 -201.231218 
L 191.925793 -200.454475 
L 192.190996 -199.677732 
L 192.436947 -198.900988 
L 192.662751 -198.124245 
L 192.867727 -197.347502 
L 193.051416 -196.570758 
L 193.213572 -195.794015 
L 193.354162 -195.017272 
L 193.473349 -194.240528 
L 193.571485 -193.463785 
L 193.649087 -192.687042 
L 193.706825 -191.910298 
L 193.745491 -191.133555 
L 193.765983 -190.356812 
L 193.769277 -189.580068 
L 193.7564 -188.803325 
L 193.728404 -188.026582 
L 193.686342 -187.249838 
L 193.631243 -186.473095 
L 193.564086 -185.696352 
L 193.485783 -184.919608 
L 193.397154 -184.142865 
L 193.298915 -183.366122 
L 193.191662 -182.589379 
L 193.07586 -181.812635 
L 192.951834 -181.035892 
L 192.819771 -180.259149 
L 192.679711 -179.482405 
L 192.531555 -178.705662 
L 192.37507 -177.928919 
L 192.209896 -177.152175 
L 192.035558 -176.375432 
L 191.851482 -175.598689 
L 191.657008 -174.821945 
L 191.451413 -174.045202 
L 191.233924 -173.268459 
L 191.003742 -172.491715 
L 190.760065 -171.714972 
L 190.502103 -170.938229 
L 190.229106 -170.161485 
L 189.940378 -169.384742 
L 189.6353 -168.607999 
L 189.313347 -167.831255 
L 188.974101 -167.054512 
L 188.617272 -166.277769 
L 188.2427 -165.501025 
L 187.850376 -164.724282 
L 187.440439 -163.947539 
L 187.013186 -163.170795 
L 186.569072 -162.394052 
L 186.108711 -161.617309 
L 185.632872 -160.840566 
L 185.142471 -160.063822 
L 184.638568 -159.287079 
z
" id="mdda13f2123" style="stroke:#000000;"/>
    </defs>
    <g clip-path="url(#p06f6f37467)">
     <use style="fill:#377eb8;stroke:#000000;" x="0" xlink:href="#mdda13f2123" y="345.6"/>
    </g>
   </g>
   <g id="PolyCollection_2">
    <defs>
     <path d="M 278.275875 -62.582535 
L 274.611675 -62.582535 
L 274.530328 -63.830032 
L 274.453037 -65.077529 
L 274.378408 -66.325026 
L 274.304493 -67.572523 
L 274.228774 -68.820019 
L 274.14816 -70.067516 
L 274.058973 -71.315013 
L 273.956951 -72.56251 
L 273.837249 -73.810007 
L 273.694455 -75.057504 
L 273.522624 -76.305001 
L 273.315341 -77.552497 
L 273.065824 -78.799994 
L 272.767064 -80.047491 
L 272.412028 -81.294988 
L 271.993901 -82.542485 
L 271.506382 -83.789982 
L 270.944026 -85.037479 
L 270.302593 -86.284975 
L 269.57942 -87.532472 
L 268.773759 -88.779969 
L 267.887072 -90.027466 
L 266.923257 -91.274963 
L 265.888764 -92.52246 
L 264.792603 -93.769956 
L 263.646214 -95.017453 
L 262.4632 -96.26495 
L 261.258934 -97.512447 
L 260.050042 -98.759944 
L 258.853806 -100.007441 
L 257.687507 -101.254938 
L 256.567753 -102.502434 
L 255.509838 -103.749931 
L 254.527179 -104.997428 
L 253.630854 -106.244925 
L 252.829301 -107.492422 
L 252.12817 -108.739919 
L 251.530352 -109.987416 
L 251.036185 -111.234912 
L 250.643796 -112.482409 
L 250.349561 -113.729906 
L 250.148648 -114.977403 
L 250.035568 -116.2249 
L 250.004722 -117.472397 
L 250.050866 -118.719894 
L 250.169473 -119.96739 
L 250.356974 -121.214887 
L 250.610845 -122.462384 
L 250.929556 -123.709881 
L 251.312402 -124.957378 
L 251.759221 -126.204875 
L 252.270054 -127.452371 
L 252.844776 -128.699868 
L 253.482726 -129.947365 
L 254.182384 -131.194862 
L 254.941109 -132.442359 
L 255.754956 -133.689856 
L 256.618591 -134.937353 
L 257.52529 -136.184849 
L 258.467032 -137.432346 
L 259.434658 -138.679843 
L 260.418096 -139.92734 
L 261.406629 -141.174837 
L 262.389196 -142.422334 
L 263.354707 -143.669831 
L 264.292369 -144.917327 
L 265.191997 -146.164824 
L 266.044322 -147.412321 
L 266.841262 -148.659818 
L 267.576164 -149.907315 
L 268.244002 -151.154812 
L 268.841523 -152.402308 
L 269.367327 -153.649805 
L 269.821883 -154.897302 
L 270.207475 -156.144799 
L 270.528071 -157.392296 
L 270.789127 -158.639793 
L 270.997333 -159.88729 
L 271.160306 -161.134786 
L 271.286253 -162.382283 
L 271.383623 -163.62978 
L 271.460761 -164.877277 
L 271.525591 -166.124774 
L 271.585337 -167.372271 
L 271.646298 -168.619768 
L 271.713702 -169.867264 
L 271.79161 -171.114761 
L 271.882905 -172.362258 
L 271.989338 -173.609755 
L 272.111625 -174.857252 
L 272.249589 -176.104749 
L 272.402325 -177.352246 
L 272.568374 -178.599742 
L 272.745892 -179.847239 
L 272.932813 -181.094736 
L 273.126973 -182.342233 
L 273.326217 -183.58973 
L 273.528474 -184.837227 
L 273.7318 -186.084723 
L 279.15575 -186.084723 
L 279.15575 -186.084723 
L 279.359076 -184.837227 
L 279.561333 -183.58973 
L 279.760577 -182.342233 
L 279.954737 -181.094736 
L 280.141658 -179.847239 
L 280.319176 -178.599742 
L 280.485225 -177.352246 
L 280.637961 -176.104749 
L 280.775925 -174.857252 
L 280.898212 -173.609755 
L 281.004645 -172.362258 
L 281.09594 -171.114761 
L 281.173848 -169.867264 
L 281.241252 -168.619768 
L 281.302213 -167.372271 
L 281.361959 -166.124774 
L 281.426789 -164.877277 
L 281.503927 -163.62978 
L 281.601297 -162.382283 
L 281.727244 -161.134786 
L 281.890217 -159.88729 
L 282.098423 -158.639793 
L 282.359479 -157.392296 
L 282.680075 -156.144799 
L 283.065667 -154.897302 
L 283.520223 -153.649805 
L 284.046027 -152.402308 
L 284.643548 -151.154812 
L 285.311386 -149.907315 
L 286.046288 -148.659818 
L 286.843228 -147.412321 
L 287.695553 -146.164824 
L 288.595181 -144.917327 
L 289.532843 -143.669831 
L 290.498354 -142.422334 
L 291.480921 -141.174837 
L 292.469454 -139.92734 
L 293.452892 -138.679843 
L 294.420518 -137.432346 
L 295.36226 -136.184849 
L 296.268959 -134.937353 
L 297.132594 -133.689856 
L 297.946441 -132.442359 
L 298.705166 -131.194862 
L 299.404824 -129.947365 
L 300.042774 -128.699868 
L 300.617496 -127.452371 
L 301.128329 -126.204875 
L 301.575148 -124.957378 
L 301.957994 -123.709881 
L 302.276705 -122.462384 
L 302.530576 -121.214887 
L 302.718077 -119.96739 
L 302.836684 -118.719894 
L 302.882827 -117.472397 
L 302.851982 -116.2249 
L 302.738902 -114.977403 
L 302.537989 -113.729906 
L 302.243754 -112.482409 
L 301.851365 -111.234912 
L 301.357198 -109.987416 
L 300.75938 -108.739919 
L 300.058249 -107.492422 
L 299.256696 -106.244925 
L 298.360371 -104.997428 
L 297.377712 -103.749931 
L 296.319797 -102.502434 
L 295.200043 -101.254938 
L 294.033744 -100.007441 
L 292.837508 -98.759944 
L 291.628616 -97.512447 
L 290.42435 -96.26495 
L 289.241336 -95.017453 
L 288.094947 -93.769956 
L 286.998786 -92.52246 
L 285.964293 -91.274963 
L 285.000478 -90.027466 
L 284.113791 -88.779969 
L 283.30813 -87.532472 
L 282.584957 -86.284975 
L 281.943524 -85.037479 
L 281.381168 -83.789982 
L 280.893649 -82.542485 
L 280.475522 -81.294988 
L 280.120486 -80.047491 
L 279.821726 -78.799994 
L 279.572209 -77.552497 
L 279.364926 -76.305001 
L 279.193095 -75.057504 
L 279.050301 -73.810007 
L 278.930599 -72.56251 
L 278.828577 -71.315013 
L 278.73939 -70.067516 
L 278.658776 -68.820019 
L 278.583057 -67.572523 
L 278.509142 -66.325026 
L 278.434513 -65.077529 
L 278.357222 -63.830032 
L 278.275875 -62.582535 
z
" id="mb0e855eda6" style="stroke:#000000;"/>
    </defs>
    <g clip-path="url(#p06f6f37467)">
     <use style="fill:#e41a1c;stroke:#000000;" x="0" xlink:href="#mb0e855eda6" y="345.6"/>
    </g>
   </g>
   <g id="PolyCollection_3">
    <defs>
     <path d="M 343.150957 -181.424264 
L 327.243493 -181.424264 
L 326.690658 -182.306926 
L 326.128467 -183.189589 
L 325.55724 -184.072252 
L 324.977011 -184.954915 
L 324.387585 -185.837578 
L 323.788621 -186.720241 
L 323.179726 -187.602904 
L 322.560575 -188.485566 
L 321.931023 -189.368229 
L 321.291229 -190.250892 
L 320.641758 -191.133555 
L 319.98368 -192.016218 
L 319.318627 -192.898881 
L 318.648836 -193.781544 
L 317.977147 -194.664207 
L 317.306971 -195.546869 
L 316.642217 -196.429532 
L 315.987196 -197.312195 
L 315.346483 -198.194858 
L 314.724765 -199.077521 
L 314.126679 -199.960184 
L 313.556627 -200.842847 
L 313.018617 -201.725509 
L 312.516094 -202.608172 
L 312.051809 -203.490835 
L 311.627705 -204.373498 
L 311.24484 -205.256161 
L 310.903353 -206.138824 
L 310.602461 -207.021487 
L 310.340509 -207.90415 
L 310.115049 -208.786812 
L 309.922962 -209.669475 
L 309.760605 -210.552138 
L 309.623986 -211.434801 
L 309.50895 -212.317464 
L 309.41137 -213.200127 
L 309.327334 -214.08279 
L 309.253323 -214.965452 
L 309.186356 -215.848115 
L 309.124114 -216.730778 
L 309.065021 -217.613441 
L 309.008288 -218.496104 
L 308.953913 -219.378767 
L 308.902637 -220.26143 
L 308.855868 -221.144093 
L 308.815561 -222.026755 
L 308.784082 -222.909418 
L 308.764051 -223.792081 
L 308.758173 -224.674744 
L 308.769076 -225.557407 
L 308.799166 -226.44007 
L 308.85049 -227.322733 
L 308.924641 -228.205395 
L 309.022688 -229.088058 
L 309.14515 -229.970721 
L 309.292001 -230.853384 
L 309.462717 -231.736047 
L 309.65635 -232.61871 
L 309.871631 -233.501373 
L 310.107091 -234.384036 
L 310.36119 -235.266698 
L 310.632447 -236.149361 
L 310.919559 -237.032024 
L 311.221512 -237.914687 
L 311.537657 -238.79735 
L 311.867768 -239.680013 
L 312.212058 -240.562676 
L 312.571175 -241.445338 
L 312.946157 -242.328001 
L 313.338357 -243.210664 
L 313.749356 -244.093327 
L 314.18084 -244.97599 
L 314.634484 -245.858653 
L 315.111817 -246.741316 
L 315.614099 -247.623979 
L 316.142207 -248.506641 
L 316.696533 -249.389304 
L 317.27691 -250.271967 
L 317.88256 -251.15463 
L 318.512069 -252.037293 
L 319.163392 -252.919956 
L 319.833888 -253.802619 
L 320.520377 -254.685281 
L 321.219219 -255.567944 
L 321.926417 -256.450607 
L 322.637728 -257.33327 
L 323.34878 -258.215933 
L 324.055199 -259.098596 
L 324.752718 -259.981259 
L 325.437295 -260.863922 
L 326.1052 -261.746584 
L 326.753099 -262.629247 
L 327.378111 -263.51191 
L 327.977846 -264.394573 
L 328.550423 -265.277236 
L 329.094472 -266.159899 
L 329.609111 -267.042562 
L 330.09391 -267.925224 
L 330.548851 -268.807887 
L 339.845599 -268.807887 
L 339.845599 -268.807887 
L 340.30054 -267.925224 
L 340.785339 -267.042562 
L 341.299978 -266.159899 
L 341.844027 -265.277236 
L 342.416604 -264.394573 
L 343.016339 -263.51191 
L 343.641351 -262.629247 
L 344.28925 -261.746584 
L 344.957155 -260.863922 
L 345.641732 -259.981259 
L 346.339251 -259.098596 
L 347.04567 -258.215933 
L 347.756722 -257.33327 
L 348.468033 -256.450607 
L 349.175231 -255.567944 
L 349.874073 -254.685281 
L 350.560562 -253.802619 
L 351.231058 -252.919956 
L 351.882381 -252.037293 
L 352.51189 -251.15463 
L 353.11754 -250.271967 
L 353.697917 -249.389304 
L 354.252243 -248.506641 
L 354.780351 -247.623979 
L 355.282633 -246.741316 
L 355.759966 -245.858653 
L 356.21361 -244.97599 
L 356.645094 -244.093327 
L 357.056093 -243.210664 
L 357.448293 -242.328001 
L 357.823275 -241.445338 
L 358.182392 -240.562676 
L 358.526682 -239.680013 
L 358.856793 -238.79735 
L 359.172938 -237.914687 
L 359.474891 -237.032024 
L 359.762003 -236.149361 
L 360.03326 -235.266698 
L 360.287359 -234.384036 
L 360.522819 -233.501373 
L 360.7381 -232.61871 
L 360.931733 -231.736047 
L 361.102449 -230.853384 
L 361.2493 -229.970721 
L 361.371762 -229.088058 
L 361.469809 -228.205395 
L 361.54396 -227.322733 
L 361.595284 -226.44007 
L 361.625374 -225.557407 
L 361.636277 -224.674744 
L 361.630399 -223.792081 
L 361.610368 -222.909418 
L 361.578889 -222.026755 
L 361.538582 -221.144093 
L 361.491813 -220.26143 
L 361.440537 -219.378767 
L 361.386162 -218.496104 
L 361.329429 -217.613441 
L 361.270336 -216.730778 
L 361.208094 -215.848115 
L 361.141127 -214.965452 
L 361.067116 -214.08279 
L 360.98308 -213.200127 
L 360.8855 -212.317464 
L 360.770464 -211.434801 
L 360.633845 -210.552138 
L 360.471488 -209.669475 
L 360.279401 -208.786812 
L 360.053941 -207.90415 
L 359.791989 -207.021487 
L 359.491097 -206.138824 
L 359.14961 -205.256161 
L 358.766745 -204.373498 
L 358.342641 -203.490835 
L 357.878356 -202.608172 
L 357.375833 -201.725509 
L 356.837823 -200.842847 
L 356.267771 -199.960184 
L 355.669685 -199.077521 
L 355.047967 -198.194858 
L 354.407254 -197.312195 
L 353.752233 -196.429532 
L 353.087479 -195.546869 
L 352.417303 -194.664207 
L 351.745614 -193.781544 
L 351.075823 -192.898881 
L 350.41077 -192.016218 
L 349.752692 -191.133555 
L 349.103221 -190.250892 
L 348.463427 -189.368229 
L 347.833875 -188.485566 
L 347.214724 -187.602904 
L 346.605829 -186.720241 
L 346.006865 -185.837578 
L 345.417439 -184.954915 
L 344.83721 -184.072252 
L 344.265983 -183.189589 
L 343.703792 -182.306926 
L 343.150957 -181.424264 
z
" id="mb9d9c4b7ba" style="stroke:#000000;"/>
    </defs>
    <g clip-path="url(#p06f6f37467)">
     <use style="fill:#377eb8;stroke:#000000;" x="0" xlink:href="#mb9d9c4b7ba" y="345.6"/>
    </g>
   </g>
   <g id="matplotlib.axis_1">
    <g id="xtick_1">
     <g id="line2d_1">
      <defs>
       <path d="M 0 0 
L 0 3.5 
" id="maaf31e4dbf" style="stroke:#000000;stroke-width:0.8;"/>
      </defs>
      <g>
       <use style="stroke:#000000;stroke-width:0.8;" x="137.9535" xlink:href="#maaf31e4dbf" y="303.64"/>
      </g>
     </g>
     <g id="text_1">
      <!-- 308 -->
      <defs>
       <path d="M 40.578125 39.3125 
Q 47.65625 37.796875 51.625 33 
Q 55.609375 28.21875 55.609375 21.1875 
Q 55.609375 10.40625 48.1875 4.484375 
Q 40.765625 -1.421875 27.09375 -1.421875 
Q 22.515625 -1.421875 17.65625 -0.515625 
Q 12.796875 0.390625 7.625 2.203125 
L 7.625 11.71875 
Q 11.71875 9.328125 16.59375 8.109375 
Q 21.484375 6.890625 26.8125 6.890625 
Q 36.078125 6.890625 40.9375 10.546875 
Q 45.796875 14.203125 45.796875 21.1875 
Q 45.796875 27.640625 41.28125 31.265625 
Q 36.765625 34.90625 28.71875 34.90625 
L 20.21875 34.90625 
L 20.21875 43.015625 
L 29.109375 43.015625 
Q 36.375 43.015625 40.234375 45.921875 
Q 44.09375 48.828125 44.09375 54.296875 
Q 44.09375 59.90625 40.109375 62.90625 
Q 36.140625 65.921875 28.71875 65.921875 
Q 24.65625 65.921875 20.015625 65.03125 
Q 15.375 64.15625 9.8125 62.3125 
L 9.8125 71.09375 
Q 15.4375 72.65625 20.34375 73.4375 
Q 25.25 74.21875 29.59375 74.21875 
Q 40.828125 74.21875 47.359375 69.109375 
Q 53.90625 64.015625 53.90625 55.328125 
Q 53.90625 49.265625 50.4375 45.09375 
Q 46.96875 40.921875 40.578125 39.3125 
z
" id="DejaVuSans-51"/>
       <path d="M 31.78125 66.40625 
Q 24.171875 66.40625 20.328125 58.90625 
Q 16.5 51.421875 16.5 36.375 
Q 16.5 21.390625 20.328125 13.890625 
Q 24.171875 6.390625 31.78125 6.390625 
Q 39.453125 6.390625 43.28125 13.890625 
Q 47.125 21.390625 47.125 36.375 
Q 47.125 51.421875 43.28125 58.90625 
Q 39.453125 66.40625 31.78125 66.40625 
z
M 31.78125 74.21875 
Q 44.046875 74.21875 50.515625 64.515625 
Q 56.984375 54.828125 56.984375 36.375 
Q 56.984375 17.96875 50.515625 8.265625 
Q 44.046875 -1.421875 31.78125 -1.421875 
Q 19.53125 -1.421875 13.0625 8.265625 
Q 6.59375 17.96875 6.59375 36.375 
Q 6.59375 54.828125 13.0625 64.515625 
Q 19.53125 74.21875 31.78125 74.21875 
z
" id="DejaVuSans-48"/>
       <path d="M 31.78125 34.625 
Q 24.75 34.625 20.71875 30.859375 
Q 16.703125 27.09375 16.703125 20.515625 
Q 16.703125 13.921875 20.71875 10.15625 
Q 24.75 6.390625 31.78125 6.390625 
Q 38.8125 6.390625 42.859375 10.171875 
Q 46.921875 13.96875 46.921875 20.515625 
Q 46.921875 27.09375 42.890625 30.859375 
Q 38.875 34.625 31.78125 34.625 
z
M 21.921875 38.8125 
Q 15.578125 40.375 12.03125 44.71875 
Q 8.5 49.078125 8.5 55.328125 
Q 8.5 64.0625 14.71875 69.140625 
Q 20.953125 74.21875 31.78125 74.21875 
Q 42.671875 74.21875 48.875 69.140625 
Q 55.078125 64.0625 55.078125 55.328125 
Q 55.078125 49.078125 51.53125 44.71875 
Q 48 40.375 41.703125 38.8125 
Q 48.828125 37.15625 52.796875 32.3125 
Q 56.78125 27.484375 56.78125 20.515625 
Q 56.78125 9.90625 50.3125 4.234375 
Q 43.84375 -1.421875 31.78125 -1.421875 
Q 19.734375 -1.421875 13.25 4.234375 
Q 6.78125 9.90625 6.78125 20.515625 
Q 6.78125 27.484375 10.78125 32.3125 
Q 14.796875 37.15625 21.921875 38.8125 
z
M 18.3125 54.390625 
Q 18.3125 48.734375 21.84375 45.5625 
Q 25.390625 42.390625 31.78125 42.390625 
Q 38.140625 42.390625 41.71875 45.5625 
Q 45.3125 48.734375 45.3125 54.390625 
Q 45.3125 60.0625 41.71875 63.234375 
Q 38.140625 66.40625 31.78125 66.40625 
Q 25.390625 66.40625 21.84375 63.234375 
Q 18.3125 60.0625 18.3125 54.390625 
z
" id="DejaVuSans-56"/>
      </defs>
      <g transform="translate(128.40975 318.238437)scale(0.1 -0.1)">
       <use xlink:href="#DejaVuSans-51"/>
       <use x="63.623047" xlink:href="#DejaVuSans-48"/>
       <use x="127.246094" xlink:href="#DejaVuSans-56"/>
      </g>
     </g>
    </g>
    <g id="xtick_2">
     <g id="line2d_2">
      <g>
       <use style="stroke:#000000;stroke-width:0.8;" x="305.8205" xlink:href="#maaf31e4dbf" y="303.64"/>
      </g>
     </g>
     <g id="text_2">
      <!-- 307 -->
      <defs>
       <path d="M 8.203125 72.90625 
L 55.078125 72.90625 
L 55.078125 68.703125 
L 28.609375 0 
L 18.3125 0 
L 43.21875 64.59375 
L 8.203125 64.59375 
z
" id="DejaVuSans-55"/>
      </defs>
      <g transform="translate(296.27675 318.238437)scale(0.1 -0.1)">
       <use xlink:href="#DejaVuSans-51"/>
       <use x="63.623047" xlink:href="#DejaVuSans-48"/>
       <use x="127.246094" xlink:href="#DejaVuSans-55"/>
      </g>
     </g>
    </g>
    <g id="text_3">
     <!-- day -->
     <defs>
      <path d="M 45.40625 46.390625 
L 45.40625 75.984375 
L 54.390625 75.984375 
L 54.390625 0 
L 45.40625 0 
L 45.40625 8.203125 
Q 42.578125 3.328125 38.25 0.953125 
Q 33.9375 -1.421875 27.875 -1.421875 
Q 17.96875 -1.421875 11.734375 6.484375 
Q 5.515625 14.40625 5.515625 27.296875 
Q 5.515625 40.1875 11.734375 48.09375 
Q 17.96875 56 27.875 56 
Q 33.9375 56 38.25 53.625 
Q 42.578125 51.265625 45.40625 46.390625 
z
M 14.796875 27.296875 
Q 14.796875 17.390625 18.875 11.75 
Q 22.953125 6.109375 30.078125 6.109375 
Q 37.203125 6.109375 41.296875 11.75 
Q 45.40625 17.390625 45.40625 27.296875 
Q 45.40625 37.203125 41.296875 42.84375 
Q 37.203125 48.484375 30.078125 48.484375 
Q 22.953125 48.484375 18.875 42.84375 
Q 14.796875 37.203125 14.796875 27.296875 
z
" id="DejaVuSans-100"/>
      <path d="M 34.28125 27.484375 
Q 23.390625 27.484375 19.1875 25 
Q 14.984375 22.515625 14.984375 16.5 
Q 14.984375 11.71875 18.140625 8.90625 
Q 21.296875 6.109375 26.703125 6.109375 
Q 34.1875 6.109375 38.703125 11.40625 
Q 43.21875 16.703125 43.21875 25.484375 
L 43.21875 27.484375 
z
M 52.203125 31.203125 
L 52.203125 0 
L 43.21875 0 
L 43.21875 8.296875 
Q 40.140625 3.328125 35.546875 0.953125 
Q 30.953125 -1.421875 24.3125 -1.421875 
Q 15.921875 -1.421875 10.953125 3.296875 
Q 6 8.015625 6 15.921875 
Q 6 25.140625 12.171875 29.828125 
Q 18.359375 34.515625 30.609375 34.515625 
L 43.21875 34.515625 
L 43.21875 35.40625 
Q 43.21875 41.609375 39.140625 45 
Q 35.0625 48.390625 27.6875 48.390625 
Q 23 48.390625 18.546875 47.265625 
Q 14.109375 46.140625 10.015625 43.890625 
L 10.015625 52.203125 
Q 14.9375 54.109375 19.578125 55.046875 
Q 24.21875 56 28.609375 56 
Q 40.484375 56 46.34375 49.84375 
Q 52.203125 43.703125 52.203125 31.203125 
z
" id="DejaVuSans-97"/>
      <path d="M 32.171875 -5.078125 
Q 28.375 -14.84375 24.75 -17.8125 
Q 21.140625 -20.796875 15.09375 -20.796875 
L 7.90625 -20.796875 
L 7.90625 -13.28125 
L 13.1875 -13.28125 
Q 16.890625 -13.28125 18.9375 -11.515625 
Q 21 -9.765625 23.484375 -3.21875 
L 25.09375 0.875 
L 2.984375 54.6875 
L 12.5 54.6875 
L 29.59375 11.921875 
L 46.6875 54.6875 
L 56.203125 54.6875 
z
" id="DejaVuSans-121"/>
     </defs>
     <g transform="translate(212.689344 331.916562)scale(0.1 -0.1)">
      <use xlink:href="#DejaVuSans-100"/>
      <use x="63.476562" xlink:href="#DejaVuSans-97"/>
      <use x="124.755859" xlink:href="#DejaVuSans-121"/>
     </g>
    </g>
   </g>
   <g id="matplotlib.axis_2">
    <g id="ytick_1">
     <g id="line2d_3">
      <defs>
       <path d="M 0 0 
L -3.5 0 
" id="mac5f309f21" style="stroke:#000000;stroke-width:0.8;"/>
      </defs>
      <g>
       <use style="stroke:#000000;stroke-width:0.8;" x="54.02" xlink:href="#mac5f309f21" y="292.338385"/>
      </g>
     </g>
     <g id="text_4">
      <!-- 36.5 -->
      <defs>
       <path d="M 33.015625 40.375 
Q 26.375 40.375 22.484375 35.828125 
Q 18.609375 31.296875 18.609375 23.390625 
Q 18.609375 15.53125 22.484375 10.953125 
Q 26.375 6.390625 33.015625 6.390625 
Q 39.65625 6.390625 43.53125 10.953125 
Q 47.40625 15.53125 47.40625 23.390625 
Q 47.40625 31.296875 43.53125 35.828125 
Q 39.65625 40.375 33.015625 40.375 
z
M 52.59375 71.296875 
L 52.59375 62.3125 
Q 48.875 64.0625 45.09375 64.984375 
Q 41.3125 65.921875 37.59375 65.921875 
Q 27.828125 65.921875 22.671875 59.328125 
Q 17.53125 52.734375 16.796875 39.40625 
Q 19.671875 43.65625 24.015625 45.921875 
Q 28.375 48.1875 33.59375 48.1875 
Q 44.578125 48.1875 50.953125 41.515625 
Q 57.328125 34.859375 57.328125 23.390625 
Q 57.328125 12.15625 50.6875 5.359375 
Q 44.046875 -1.421875 33.015625 -1.421875 
Q 20.359375 -1.421875 13.671875 8.265625 
Q 6.984375 17.96875 6.984375 36.375 
Q 6.984375 53.65625 15.1875 63.9375 
Q 23.390625 74.21875 37.203125 74.21875 
Q 40.921875 74.21875 44.703125 73.484375 
Q 48.484375 72.75 52.59375 71.296875 
z
" id="DejaVuSans-54"/>
       <path d="M 10.6875 12.40625 
L 21 12.40625 
L 21 0 
L 10.6875 0 
z
" id="DejaVuSans-46"/>
       <path d="M 10.796875 72.90625 
L 49.515625 72.90625 
L 49.515625 64.59375 
L 19.828125 64.59375 
L 19.828125 46.734375 
Q 21.96875 47.46875 24.109375 47.828125 
Q 26.265625 48.1875 28.421875 48.1875 
Q 40.625 48.1875 47.75 41.5 
Q 54.890625 34.8125 54.890625 23.390625 
Q 54.890625 11.625 47.5625 5.09375 
Q 40.234375 -1.421875 26.90625 -1.421875 
Q 22.3125 -1.421875 17.546875 -0.640625 
Q 12.796875 0.140625 7.71875 1.703125 
L 7.71875 11.625 
Q 12.109375 9.234375 16.796875 8.0625 
Q 21.484375 6.890625 26.703125 6.890625 
Q 35.15625 6.890625 40.078125 11.328125 
Q 45.015625 15.765625 45.015625 23.390625 
Q 45.015625 31 40.078125 35.4375 
Q 35.15625 39.890625 26.703125 39.890625 
Q 22.75 39.890625 18.8125 39.015625 
Q 14.890625 38.140625 10.796875 36.28125 
z
" id="DejaVuSans-53"/>
      </defs>
      <g transform="translate(24.754375 296.137603)scale(0.1 -0.1)">
       <use xlink:href="#DejaVuSans-51"/>
       <use x="63.623047" xlink:href="#DejaVuSans-54"/>
       <use x="127.246094" xlink:href="#DejaVuSans-46"/>
       <use x="159.033203" xlink:href="#DejaVuSans-53"/>
      </g>
     </g>
    </g>
    <g id="ytick_2">
     <g id="line2d_4">
      <g>
       <use style="stroke:#000000;stroke-width:0.8;" x="54.02" xlink:href="#mac5f309f21" y="234.082635"/>
      </g>
     </g>
     <g id="text_5">
      <!-- 37.0 -->
      <g transform="translate(24.754375 237.881854)scale(0.1 -0.1)">
       <use xlink:href="#DejaVuSans-51"/>
       <use x="63.623047" xlink:href="#DejaVuSans-55"/>
       <use x="127.246094" xlink:href="#DejaVuSans-46"/>
       <use x="159.033203" xlink:href="#DejaVuSans-48"/>
      </g>
     </g>
    </g>
    <g id="ytick_3">
     <g id="line2d_5">
      <g>
       <use style="stroke:#000000;stroke-width:0.8;" x="54.02" xlink:href="#mac5f309f21" y="175.826886"/>
      </g>
     </g>
     <g id="text_6">
      <!-- 37.5 -->
      <g transform="translate(24.754375 179.626105)scale(0.1 -0.1)">
       <use xlink:href="#DejaVuSans-51"/>
       <use x="63.623047" xlink:href="#DejaVuSans-55"/>
       <use x="127.246094" xlink:href="#DejaVuSans-46"/>
       <use x="159.033203" xlink:href="#DejaVuSans-53"/>
      </g>
     </g>
    </g>
    <g id="ytick_4">
     <g id="line2d_6">
      <g>
       <use style="stroke:#000000;stroke-width:0.8;" x="54.02" xlink:href="#mac5f309f21" y="117.571137"/>
      </g>
     </g>
     <g id="text_7">
      <!-- 38.0 -->
      <g transform="translate(24.754375 121.370356)scale(0.1 -0.1)">
       <use xlink:href="#DejaVuSans-51"/>
       <use x="63.623047" xlink:href="#DejaVuSans-56"/>
       <use x="127.246094" xlink:href="#DejaVuSans-46"/>
       <use x="159.033203" xlink:href="#DejaVuSans-48"/>
      </g>
     </g>
    </g>
    <g id="ytick_5">
     <g id="line2d_7">
      <g>
       <use style="stroke:#000000;stroke-width:0.8;" x="54.02" xlink:href="#mac5f309f21" y="59.315388"/>
      </g>
     </g>
     <g id="text_8">
      <!-- 38.5 -->
      <g transform="translate(24.754375 63.114607)scale(0.1 -0.1)">
       <use xlink:href="#DejaVuSans-51"/>
       <use x="63.623047" xlink:href="#DejaVuSans-56"/>
       <use x="127.246094" xlink:href="#DejaVuSans-46"/>
       <use x="159.033203" xlink:href="#DejaVuSans-53"/>
      </g>
     </g>
    </g>
    <g id="text_9">
     <!-- temp -->
     <defs>
      <path d="M 18.3125 70.21875 
L 18.3125 54.6875 
L 36.8125 54.6875 
L 36.8125 47.703125 
L 18.3125 47.703125 
L 18.3125 18.015625 
Q 18.3125 11.328125 20.140625 9.421875 
Q 21.96875 7.515625 27.59375 7.515625 
L 36.8125 7.515625 
L 36.8125 0 
L 27.59375 0 
Q 17.1875 0 13.234375 3.875 
Q 9.28125 7.765625 9.28125 18.015625 
L 9.28125 47.703125 
L 2.6875 47.703125 
L 2.6875 54.6875 
L 9.28125 54.6875 
L 9.28125 70.21875 
z
" id="DejaVuSans-116"/>
      <path d="M 56.203125 29.59375 
L 56.203125 25.203125 
L 14.890625 25.203125 
Q 15.484375 15.921875 20.484375 11.0625 
Q 25.484375 6.203125 34.421875 6.203125 
Q 39.59375 6.203125 44.453125 7.46875 
Q 49.3125 8.734375 54.109375 11.28125 
L 54.109375 2.78125 
Q 49.265625 0.734375 44.1875 -0.34375 
Q 39.109375 -1.421875 33.890625 -1.421875 
Q 20.796875 -1.421875 13.15625 6.1875 
Q 5.515625 13.8125 5.515625 26.8125 
Q 5.515625 40.234375 12.765625 48.109375 
Q 20.015625 56 32.328125 56 
Q 43.359375 56 49.78125 48.890625 
Q 56.203125 41.796875 56.203125 29.59375 
z
M 47.21875 32.234375 
Q 47.125 39.59375 43.09375 43.984375 
Q 39.0625 48.390625 32.421875 48.390625 
Q 24.90625 48.390625 20.390625 44.140625 
Q 15.875 39.890625 15.1875 32.171875 
z
" id="DejaVuSans-101"/>
      <path d="M 52 44.1875 
Q 55.375 50.25 60.0625 53.125 
Q 64.75 56 71.09375 56 
Q 79.640625 56 84.28125 50.015625 
Q 88.921875 44.046875 88.921875 33.015625 
L 88.921875 0 
L 79.890625 0 
L 79.890625 32.71875 
Q 79.890625 40.578125 77.09375 44.375 
Q 74.3125 48.1875 68.609375 48.1875 
Q 61.625 48.1875 57.5625 43.546875 
Q 53.515625 38.921875 53.515625 30.90625 
L 53.515625 0 
L 44.484375 0 
L 44.484375 32.71875 
Q 44.484375 40.625 41.703125 44.40625 
Q 38.921875 48.1875 33.109375 48.1875 
Q 26.21875 48.1875 22.15625 43.53125 
Q 18.109375 38.875 18.109375 30.90625 
L 18.109375 0 
L 9.078125 0 
L 9.078125 54.6875 
L 18.109375 54.6875 
L 18.109375 46.1875 
Q 21.1875 51.21875 25.484375 53.609375 
Q 29.78125 56 35.6875 56 
Q 41.65625 56 45.828125 52.96875 
Q 50 49.953125 52 44.1875 
z
" id="DejaVuSans-109"/>
      <path d="M 18.109375 8.203125 
L 18.109375 -20.796875 
L 9.078125 -20.796875 
L 9.078125 54.6875 
L 18.109375 54.6875 
L 18.109375 46.390625 
Q 20.953125 51.265625 25.265625 53.625 
Q 29.59375 56 35.59375 56 
Q 45.5625 56 51.78125 48.09375 
Q 58.015625 40.1875 58.015625 27.296875 
Q 58.015625 14.40625 51.78125 6.484375 
Q 45.5625 -1.421875 35.59375 -1.421875 
Q 29.59375 -1.421875 25.265625 0.953125 
Q 20.953125 3.328125 18.109375 8.203125 
z
M 48.6875 27.296875 
Q 48.6875 37.203125 44.609375 42.84375 
Q 40.53125 48.484375 33.40625 48.484375 
Q 26.265625 48.484375 22.1875 42.84375 
Q 18.109375 37.203125 18.109375 27.296875 
Q 18.109375 17.390625 22.1875 11.75 
Q 26.265625 6.109375 33.40625 6.109375 
Q 40.53125 6.109375 44.609375 11.75 
Q 48.6875 17.390625 48.6875 27.296875 
z
" id="DejaVuSans-112"/>
     </defs>
     <g transform="translate(18.674688 170.30125)rotate(-90)scale(0.1 -0.1)">
      <use xlink:href="#DejaVuSans-116"/>
      <use x="39.208984" xlink:href="#DejaVuSans-101"/>
      <use x="100.732422" xlink:href="#DejaVuSans-109"/>
      <use x="198.144531" xlink:href="#DejaVuSans-112"/>
     </g>
    </g>
   </g>
   <g id="LineCollection_1">
    <path clip-path="url(#p06f6f37467)" d="M 167.330225 170.001311 
L 167.330225 144.368782 
" style="fill:none;stroke:#000000;stroke-width:5;"/>
   </g>
   <g id="LineCollection_2">
    <path clip-path="url(#p06f6f37467)" d="M 276.443775 237.286702 
L 276.443775 214.275681 
" style="fill:none;stroke:#000000;stroke-width:5;"/>
   </g>
   <g id="LineCollection_3">
    <path clip-path="url(#p06f6f37467)" d="M 335.197225 138.543207 
L 335.197225 105.919987 
" style="fill:none;stroke:#000000;stroke-width:5;"/>
   </g>
   <g id="line2d_8">
    <path clip-path="url(#p06f6f37467)" d="M 276.443775 56.169577 
L 276.443775 45.85831 
L 335.197225 45.85831 
L 335.197225 56.169577 
" style="fill:none;stroke:#000000;stroke-linecap:square;"/>
   </g>
   <g id="patch_3">
    <path d="M 54.02 303.64 
L 54.02 10.8 
" style="fill:none;stroke:#000000;stroke-linecap:square;stroke-linejoin:miter;stroke-width:0.8;"/>
   </g>
   <g id="patch_4">
    <path d="M 389.754 303.64 
L 389.754 10.8 
" style="fill:none;stroke:#000000;stroke-linecap:square;stroke-linejoin:miter;stroke-width:0.8;"/>
   </g>
   <g id="patch_5">
    <path d="M 54.02 303.64 
L 389.754 303.64 
" style="fill:none;stroke:#000000;stroke-linecap:square;stroke-linejoin:miter;stroke-width:0.8;"/>
   </g>
   <g id="patch_6">
    <path d="M 54.02 10.8 
L 389.754 10.8 
" style="fill:none;stroke:#000000;stroke-linecap:square;stroke-linejoin:miter;stroke-width:0.8;"/>
   </g>
   <g id="PathCollection_1">
    <defs>
     <path d="M 0 2.236068 
C 0.593012 2.236068 1.161816 2.000462 1.581139 1.581139 
C 2.000462 1.161816 2.236068 0.593012 2.236068 0 
C 2.236068 -0.593012 2.000462 -1.161816 1.581139 -1.581139 
C 1.161816 -2.000462 0.593012 -2.236068 0 -2.236068 
C -0.593012 -2.236068 -1.161816 -2.000462 -1.581139 -1.581139 
C -2.000462 -1.161816 -2.236068 -0.593012 -2.236068 0 
C -2.236068 0.593012 -2.000462 1.161816 -1.581139 1.581139 
C -1.161816 2.000462 -0.593012 2.236068 0 2.236068 
z
" id="mc21ec9846f" style="stroke:#ffffff;"/>
    </defs>
    <g clip-path="url(#p06f6f37467)">
     <use style="fill:#ffffff;stroke:#ffffff;" x="167.330225" xlink:href="#mc21ec9846f" y="149.029242"/>
    </g>
   </g>
   <g id="PathCollection_2">
    <g clip-path="url(#p06f6f37467)">
     <use style="fill:#ffffff;stroke:#ffffff;" x="276.443775" xlink:href="#mc21ec9846f" y="223.014043"/>
    </g>
   </g>
   <g id="PathCollection_3">
    <g clip-path="url(#p06f6f37467)">
     <use style="fill:#ffffff;stroke:#ffffff;" x="335.197225" xlink:href="#mc21ec9846f" y="122.231597"/>
    </g>
   </g>
   <g id="text_10">
    <!-- **** -->
    <defs>
     <path d="M 47.015625 60.890625 
L 29.5 51.421875 
L 47.015625 41.890625 
L 44.1875 37.109375 
L 27.78125 47.015625 
L 27.78125 28.609375 
L 22.21875 28.609375 
L 22.21875 47.015625 
L 5.8125 37.109375 
L 2.984375 41.890625 
L 20.515625 51.421875 
L 2.984375 60.890625 
L 5.8125 65.71875 
L 22.21875 55.8125 
L 22.21875 74.21875 
L 27.78125 74.21875 
L 27.78125 55.8125 
L 44.1875 65.71875 
z
" id="DejaVuSans-42"/>
    </defs>
    <g style="fill:#cd5c5c;" transform="translate(295.8205 39.654115)scale(0.1 -0.1)">
     <use xlink:href="#DejaVuSans-42"/>
     <use x="50" xlink:href="#DejaVuSans-42"/>
     <use x="100" xlink:href="#DejaVuSans-42"/>
     <use x="150" xlink:href="#DejaVuSans-42"/>
    </g>
   </g>
   <g id="legend_1">
    <g id="patch_7">
     <path d="M 410.5407 282.882187 
L 430.5407 282.882187 
L 430.5407 275.882187 
L 410.5407 275.882187 
z
" style="fill:#e41a1c;stroke:#000000;stroke-linejoin:miter;"/>
    </g>
    <g id="text_11">
     <!-- 0 -->
     <g transform="translate(438.5407 282.882187)scale(0.1 -0.1)">
      <use xlink:href="#DejaVuSans-48"/>
     </g>
    </g>
    <g id="patch_8">
     <path d="M 410.5407 297.560312 
L 430.5407 297.560312 
L 430.5407 290.560312 
L 410.5407 290.560312 
z
" style="fill:#377eb8;stroke:#000000;stroke-linejoin:miter;"/>
    </g>
    <g id="text_12">
     <!-- 1 -->
     <defs>
      <path d="M 12.40625 8.296875 
L 28.515625 8.296875 
L 28.515625 63.921875 
L 10.984375 60.40625 
L 10.984375 69.390625 
L 28.421875 72.90625 
L 38.28125 72.90625 
L 38.28125 8.296875 
L 54.390625 8.296875 
L 54.390625 0 
L 12.40625 0 
z
" id="DejaVuSans-49"/>
     </defs>
     <g transform="translate(438.5407 297.560312)scale(0.1 -0.1)">
      <use xlink:href="#DejaVuSans-49"/>
     </g>
    </g>
   </g>
  </g>
 </g>
 <defs>
  <clipPath id="p06f6f37467">
   <rect height="292.84" width="335.734" x="54.02" y="10.8"/>
  </clipPath>
 </defs>
</svg>
