<?xml version="1.0" encoding="utf-8" standalone="no"?>
<!DOCTYPE svg PUBLIC "-//W3C//DTD SVG 1.1//EN"
  "http://www.w3.org/Graphics/SVG/1.1/DTD/svg11.dtd">
<!-- Created with matplotlib (https://matplotlib.org/) -->
<svg height="345.6pt" version="1.1" viewBox="0 0 460.8 345.6" width="460.8pt" xmlns="http://www.w3.org/2000/svg" xmlns:xlink="http://www.w3.org/1999/xlink">
 <defs>
  <style type="text/css">
*{stroke-linecap:butt;stroke-linejoin:round;}
  </style>
 </defs>
 <g id="figure_1">
  <g id="patch_1">
   <path d="M 0 345.6 
L 460.8 345.6 
L 460.8 0 
L 0 0 
z
" style="fill:#ffffff;"/>
  </g>
  <g id="axes_1">
   <g id="patch_2">
    <path d="M 50.87 303.64 
L 389.754 303.64 
L 389.754 10.8 
L 50.87 10.8 
z
" style="fill:#ffffff;"/>
   </g>
   <g id="PolyCollection_1">
    <defs>
     <path d="M 186.644723 -113.132588 
L 186.644723 -68.400745 
L 187.543595 -67.749599 
L 188.442468 -67.115901 
L 189.341341 -66.501019 
L 190.240214 -65.906139 
L 191.139086 -65.332253 
L 192.037959 -64.780155 
L 192.936832 -64.250432 
L 193.835704 -63.743469 
L 194.734577 -63.259446 
L 195.63345 -62.798349 
L 196.532322 -62.359975 
L 197.431195 -61.943945 
L 198.330068 -61.549722 
L 199.228941 -61.176626 
L 200.127813 -60.823858 
L 201.026686 -60.490519 
L 201.925559 -60.175638 
L 202.824431 -59.878196 
L 203.723304 -59.597155 
L 204.622177 -59.331484 
L 205.52105 -59.080185 
L 206.419922 -58.842321 
L 207.318795 -58.61704 
L 208.217668 -58.403601 
L 209.11654 -58.20139 
L 210.015413 -58.009943 
L 210.914286 -57.828957 
L 211.813159 -57.658304 
L 212.712031 -57.498038 
L 213.610904 -57.348397 
L 214.509777 -57.209804 
L 215.408649 -57.08286 
L 216.307522 -56.968333 
L 217.206395 -56.867149 
L 218.105267 -56.780369 
L 219.00414 -56.70917 
L 219.903013 -56.654817 
L 220.801886 -56.61864 
L 221.700758 -56.602 
L 222.599631 -56.606257 
L 223.498504 -56.632737 
L 224.397376 -56.682702 
L 225.296249 -56.75731 
L 226.195122 -56.857589 
L 227.093995 -56.9844 
L 227.992867 -57.138415 
L 228.89174 -57.320085 
L 229.790613 -57.529624 
L 230.689485 -57.766988 
L 231.588358 -58.031859 
L 232.487231 -58.323644 
L 233.386104 -58.641463 
L 234.284976 -58.984159 
L 235.183849 -59.350298 
L 236.082722 -59.738189 
L 236.981594 -60.145894 
L 237.880467 -60.571257 
L 238.77934 -61.011928 
L 239.678213 -61.465394 
L 240.577085 -61.929015 
L 241.475958 -62.40006 
L 242.374831 -62.875748 
L 243.273703 -63.353285 
L 244.172576 -63.829911 
L 245.071449 -64.302936 
L 245.970321 -64.769786 
L 246.869194 -65.228037 
L 247.768067 -65.675451 
L 248.66694 -66.110014 
L 249.565812 -66.529963 
L 250.464685 -66.933809 
L 251.363558 -67.320361 
L 252.26243 -67.688742 
L 253.161303 -68.038396 
L 254.060176 -68.369097 
L 254.959049 -68.680944 
L 255.857921 -68.974362 
L 256.756794 -69.250081 
L 257.655667 -69.509129 
L 258.554539 -69.752807 
L 259.453412 -69.982661 
L 260.352285 -70.200459 
L 261.251158 -70.408155 
L 262.15003 -70.607854 
L 263.048903 -70.80178 
L 263.947776 -70.992229 
L 264.846648 -71.181542 
L 265.745521 -71.372056 
L 266.644394 -71.566073 
L 267.543266 -71.765823 
L 268.442139 -71.973424 
L 269.341012 -72.190861 
L 270.239885 -72.419945 
L 271.138757 -72.662296 
L 272.03763 -72.91932 
L 272.936503 -73.192187 
L 273.835375 -73.481824 
L 274.734248 -73.788899 
L 275.633121 -74.113822 
L 275.633121 -107.419511 
L 275.633121 -107.419511 
L 274.734248 -107.744434 
L 273.835375 -108.051509 
L 272.936503 -108.341146 
L 272.03763 -108.614013 
L 271.138757 -108.871037 
L 270.239885 -109.113389 
L 269.341012 -109.342473 
L 268.442139 -109.559909 
L 267.543266 -109.767511 
L 266.644394 -109.96726 
L 265.745521 -110.161277 
L 264.846648 -110.351791 
L 263.947776 -110.541104 
L 263.048903 -110.731554 
L 262.15003 -110.925479 
L 261.251158 -111.125179 
L 260.352285 -111.332875 
L 259.453412 -111.550673 
L 258.554539 -111.780527 
L 257.655667 -112.024204 
L 256.756794 -112.283252 
L 255.857921 -112.558972 
L 254.959049 -112.852389 
L 254.060176 -113.164237 
L 253.161303 -113.494937 
L 252.26243 -113.844592 
L 251.363558 -114.212972 
L 250.464685 -114.599525 
L 249.565812 -115.003371 
L 248.66694 -115.423319 
L 247.768067 -115.857882 
L 246.869194 -116.305297 
L 245.970321 -116.763547 
L 245.071449 -117.230397 
L 244.172576 -117.703423 
L 243.273703 -118.180049 
L 242.374831 -118.657586 
L 241.475958 -119.133273 
L 240.577085 -119.604318 
L 239.678213 -120.06794 
L 238.77934 -120.521406 
L 237.880467 -120.962077 
L 236.981594 -121.38744 
L 236.082722 -121.795145 
L 235.183849 -122.183035 
L 234.284976 -122.549175 
L 233.386104 -122.89187 
L 232.487231 -123.20969 
L 231.588358 -123.501474 
L 230.689485 -123.766346 
L 229.790613 -124.003709 
L 228.89174 -124.213248 
L 227.992867 -124.394919 
L 227.093995 -124.548933 
L 226.195122 -124.675745 
L 225.296249 -124.776023 
L 224.397376 -124.850631 
L 223.498504 -124.900596 
L 222.599631 -124.927077 
L 221.700758 -124.931333 
L 220.801886 -124.914693 
L 219.903013 -124.878516 
L 219.00414 -124.824164 
L 218.105267 -124.752964 
L 217.206395 -124.666184 
L 216.307522 -124.565 
L 215.408649 -124.450474 
L 214.509777 -124.323529 
L 213.610904 -124.184936 
L 212.712031 -124.035296 
L 211.813159 -123.87503 
L 210.914286 -123.704377 
L 210.015413 -123.523391 
L 209.11654 -123.331943 
L 208.217668 -123.129732 
L 207.318795 -122.916293 
L 206.419922 -122.691013 
L 205.52105 -122.453149 
L 204.622177 -122.201849 
L 203.723304 -121.936178 
L 202.824431 -121.655137 
L 201.925559 -121.357696 
L 201.026686 -121.042814 
L 200.127813 -120.709475 
L 199.228941 -120.356707 
L 198.330068 -119.983611 
L 197.431195 -119.589388 
L 196.532322 -119.173359 
L 195.63345 -118.734984 
L 194.734577 -118.273887 
L 193.835704 -117.789865 
L 192.936832 -117.282901 
L 192.037959 -116.753179 
L 191.139086 -116.20108 
L 190.240214 -115.627194 
L 189.341341 -115.032314 
L 188.442468 -114.417432 
L 187.543595 -113.783734 
L 186.644723 -113.132588 
z
" id="m590e96d4a2" style="stroke:#000000;"/>
    </defs>
    <g clip-path="url(#p5982e144f1)">
     <use style="fill:#377eb8;stroke:#000000;" x="0" xlink:href="#m590e96d4a2" y="345.6"/>
    </g>
   </g>
   <g id="PolyCollection_2">
    <defs>
     <path d="M 74.73507 -190.747449 
L 74.73507 -186.012551 
L 76.178714 -185.907435 
L 77.622359 -185.80756 
L 79.066003 -185.711124 
L 80.509647 -185.61561 
L 81.953291 -185.517766 
L 83.396935 -185.413595 
L 84.840579 -185.298347 
L 86.284223 -185.166514 
L 87.727867 -185.011835 
L 89.171511 -184.827316 
L 90.615155 -184.605275 
L 92.058799 -184.337423 
L 93.502443 -184.014995 
L 94.946087 -183.628937 
L 96.389731 -183.170158 
L 97.833375 -182.629852 
L 99.277019 -181.999878 
L 100.720663 -181.273198 
L 102.164307 -180.444336 
L 103.607951 -179.509849 
L 105.051595 -178.468769 
L 106.495239 -177.322989 
L 107.938884 -176.077542 
L 109.382528 -174.740765 
L 110.826172 -173.324301 
L 112.269816 -171.842932 
L 113.71346 -170.314236 
L 115.157104 -168.758077 
L 116.600748 -167.195941 
L 118.044392 -165.65016 
L 119.488036 -164.143063 
L 120.93168 -162.696112 
L 122.375324 -161.32907 
L 123.818968 -160.059272 
L 125.262612 -158.901038 
L 126.706256 -157.865267 
L 128.1499 -156.959261 
L 129.593544 -156.186759 
L 131.037188 -155.548195 
L 132.480832 -155.041147 
L 133.924476 -154.660936 
L 135.36812 -154.401314 
L 136.811764 -154.255192 
L 138.255409 -154.215333 
L 139.699053 -154.27496 
L 141.142697 -154.428224 
L 142.586341 -154.670514 
L 144.029985 -154.998567 
L 145.473629 -155.410408 
L 146.917273 -155.905123 
L 148.360917 -156.482504 
L 149.804561 -157.142605 
L 151.248205 -157.885263 
L 152.691849 -158.709625 
L 154.135493 -159.613728 
L 155.579137 -160.594155 
L 157.022781 -161.645812 
L 158.466425 -162.761804 
L 159.910069 -163.933445 
L 161.353713 -165.150369 
L 162.797357 -166.40074 
L 164.241001 -167.671543 
L 165.684645 -168.94893 
L 167.128289 -170.218608 
L 168.571934 -171.466246 
L 170.015578 -172.677896 
L 171.459222 -173.8404 
L 172.902866 -174.941779 
L 174.34651 -175.971588 
L 175.790154 -176.921232 
L 177.233798 -177.784216 
L 178.677442 -178.556335 
L 180.121086 -179.235781 
L 181.56473 -179.82316 
L 183.008374 -180.321424 
L 184.452018 -180.735699 
L 185.895662 -181.073038 
L 187.339306 -181.342083 
L 188.78295 -181.552677 
L 190.226594 -181.715426 
L 191.670238 -181.841248 
L 193.113882 -181.940926 
L 194.557526 -182.0247 
L 196.00117 -182.101903 
L 197.444814 -182.180678 
L 198.888459 -182.267778 
L 200.332103 -182.368451 
L 201.775747 -182.486423 
L 203.219391 -182.623956 
L 204.663035 -182.781976 
L 206.106679 -182.960254 
L 207.550323 -183.15762 
L 208.993967 -183.372188 
L 210.437611 -183.601579 
L 211.881255 -183.843119 
L 213.324899 -184.094013 
L 214.768543 -184.351477 
L 216.212187 -184.612834 
L 217.655831 -184.875573 
L 217.655831 -191.884427 
L 217.655831 -191.884427 
L 216.212187 -192.147166 
L 214.768543 -192.408523 
L 213.324899 -192.665987 
L 211.881255 -192.916881 
L 210.437611 -193.158421 
L 208.993967 -193.387812 
L 207.550323 -193.60238 
L 206.106679 -193.799746 
L 204.663035 -193.978024 
L 203.219391 -194.136044 
L 201.775747 -194.273577 
L 200.332103 -194.391549 
L 198.888459 -194.492222 
L 197.444814 -194.579322 
L 196.00117 -194.658097 
L 194.557526 -194.7353 
L 193.113882 -194.819074 
L 191.670238 -194.918752 
L 190.226594 -195.044574 
L 188.78295 -195.207323 
L 187.339306 -195.417917 
L 185.895662 -195.686962 
L 184.452018 -196.024301 
L 183.008374 -196.438576 
L 181.56473 -196.93684 
L 180.121086 -197.524219 
L 178.677442 -198.203665 
L 177.233798 -198.975784 
L 175.790154 -199.838768 
L 174.34651 -200.788412 
L 172.902866 -201.818221 
L 171.459222 -202.9196 
L 170.015578 -204.082104 
L 168.571934 -205.293754 
L 167.128289 -206.541392 
L 165.684645 -207.81107 
L 164.241001 -209.088457 
L 162.797357 -210.35926 
L 161.353713 -211.609631 
L 159.910069 -212.826555 
L 158.466425 -213.998196 
L 157.022781 -215.114188 
L 155.579137 -216.165845 
L 154.135493 -217.146272 
L 152.691849 -218.050375 
L 151.248205 -218.874737 
L 149.804561 -219.617395 
L 148.360917 -220.277496 
L 146.917273 -220.854877 
L 145.473629 -221.349592 
L 144.029985 -221.761433 
L 142.586341 -222.089486 
L 141.142697 -222.331776 
L 139.699053 -222.48504 
L 138.255409 -222.544667 
L 136.811764 -222.504808 
L 135.36812 -222.358686 
L 133.924476 -222.099064 
L 132.480832 -221.718853 
L 131.037188 -221.211805 
L 129.593544 -220.573241 
L 128.1499 -219.800739 
L 126.706256 -218.894733 
L 125.262612 -217.858962 
L 123.818968 -216.700728 
L 122.375324 -215.43093 
L 120.93168 -214.063888 
L 119.488036 -212.616937 
L 118.044392 -211.10984 
L 116.600748 -209.564059 
L 115.157104 -208.001923 
L 113.71346 -206.445764 
L 112.269816 -204.917068 
L 110.826172 -203.435699 
L 109.382528 -202.019235 
L 107.938884 -200.682458 
L 106.495239 -199.437011 
L 105.051595 -198.291231 
L 103.607951 -197.250151 
L 102.164307 -196.315664 
L 100.720663 -195.486802 
L 99.277019 -194.760122 
L 97.833375 -194.130148 
L 96.389731 -193.589842 
L 94.946087 -193.131063 
L 93.502443 -192.745005 
L 92.058799 -192.422577 
L 90.615155 -192.154725 
L 89.171511 -191.932684 
L 87.727867 -191.748165 
L 86.284223 -191.593486 
L 84.840579 -191.461653 
L 83.396935 -191.346405 
L 81.953291 -191.242234 
L 80.509647 -191.14439 
L 79.066003 -191.048876 
L 77.622359 -190.95244 
L 76.178714 -190.852565 
L 74.73507 -190.747449 
z
" id="m1a470ef844" style="stroke:#000000;"/>
    </defs>
    <g clip-path="url(#p5982e144f1)">
     <use style="fill:#e41a1c;stroke:#000000;" x="0" xlink:href="#m1a470ef844" y="345.6"/>
    </g>
   </g>
   <g id="PolyCollection_3">
    <defs>
     <path d="M 212.262595 -296.271182 
L 212.262595 -275.715484 
L 213.284041 -275.001108 
L 214.305487 -274.274642 
L 215.326934 -273.5365 
L 216.34838 -272.786725 
L 217.369826 -272.025066 
L 218.391272 -271.251082 
L 219.412719 -270.464266 
L 220.434165 -269.664195 
L 221.455611 -268.850686 
L 222.477057 -268.02394 
L 223.498504 -267.184692 
L 224.51995 -266.33432 
L 225.541396 -265.474936 
L 226.562843 -264.609428 
L 227.584289 -263.741469 
L 228.605735 -262.875463 
L 229.627181 -262.016466 
L 230.648628 -261.170045 
L 231.670074 -260.342112 
L 232.69152 -259.538726 
L 233.712966 -258.765875 
L 234.734413 -258.029252 
L 235.755859 -257.334033 
L 236.777305 -256.684671 
L 237.798751 -256.08472 
L 238.820198 -255.53669 
L 239.841644 -255.04195 
L 240.86309 -254.600679 
L 241.884536 -254.211865 
L 242.905983 -253.873369 
L 243.927429 -253.582029 
L 244.948875 -253.333813 
L 245.970321 -253.124015 
L 246.991768 -252.947475 
L 248.013214 -252.798825 
L 249.03466 -252.672731 
L 250.056107 -252.56414 
L 251.077553 -252.468503 
L 252.098999 -252.381968 
L 253.120445 -252.301538 
L 254.141892 -252.225178 
L 255.163338 -252.151868 
L 256.184784 -252.081603 
L 257.20623 -252.015345 
L 258.227677 -251.954909 
L 259.249123 -251.902824 
L 260.270569 -251.862147 
L 261.292015 -251.836263 
L 262.313462 -251.828667 
L 263.334908 -251.842757 
L 264.356354 -251.881639 
L 265.3778 -251.94796 
L 266.399247 -252.043778 
L 267.420693 -252.170475 
L 268.442139 -252.328721 
L 269.463585 -252.518483 
L 270.485032 -252.739082 
L 271.506478 -252.989295 
L 272.527924 -253.267482 
L 273.549371 -253.571745 
L 274.570817 -253.900093 
L 275.592263 -254.250612 
L 276.613709 -254.62162 
L 277.635156 -255.011806 
L 278.656602 -255.42033 
L 279.678048 -255.8469 
L 280.699494 -256.291793 
L 281.720941 -256.755847 
L 282.742387 -257.240399 
L 283.763833 -257.747203 
L 284.785279 -258.278297 
L 285.806726 -258.835863 
L 286.828172 -259.422064 
L 287.849618 -260.038876 
L 288.871064 -260.687927 
L 289.892511 -261.37035 
L 290.913957 -262.086653 
L 291.935403 -262.836619 
L 292.956849 -263.619243 
L 293.978296 -264.432697 
L 294.999742 -265.27434 
L 296.021188 -266.140758 
L 297.042634 -267.027842 
L 298.064081 -267.930889 
L 299.085527 -268.844733 
L 300.106973 -269.763893 
L 301.12842 -270.682718 
L 302.149866 -271.595555 
L 303.171312 -272.496893 
L 304.192758 -273.381506 
L 305.214205 -274.244576 
L 306.235651 -275.081795 
L 307.257097 -275.889438 
L 308.278543 -276.664418 
L 309.29999 -277.404305 
L 310.321436 -278.107328 
L 311.342882 -278.772346 
L 312.364328 -279.398806 
L 313.385775 -279.986683 
L 313.385775 -291.999984 
L 313.385775 -291.999984 
L 312.364328 -292.587861 
L 311.342882 -293.214321 
L 310.321436 -293.879339 
L 309.29999 -294.582362 
L 308.278543 -295.322249 
L 307.257097 -296.097229 
L 306.235651 -296.904872 
L 305.214205 -297.74209 
L 304.192758 -298.605161 
L 303.171312 -299.489774 
L 302.149866 -300.391112 
L 301.12842 -301.303949 
L 300.106973 -302.222774 
L 299.085527 -303.141933 
L 298.064081 -304.055778 
L 297.042634 -304.958825 
L 296.021188 -305.845908 
L 294.999742 -306.712327 
L 293.978296 -307.55397 
L 292.956849 -308.367424 
L 291.935403 -309.150048 
L 290.913957 -309.900014 
L 289.892511 -310.616316 
L 288.871064 -311.298739 
L 287.849618 -311.947791 
L 286.828172 -312.564603 
L 285.806726 -313.150803 
L 284.785279 -313.70837 
L 283.763833 -314.239464 
L 282.742387 -314.746267 
L 281.720941 -315.23082 
L 280.699494 -315.694873 
L 279.678048 -316.139767 
L 278.656602 -316.566337 
L 277.635156 -316.974861 
L 276.613709 -317.365046 
L 275.592263 -317.736054 
L 274.570817 -318.086573 
L 273.549371 -318.414921 
L 272.527924 -318.719184 
L 271.506478 -318.997371 
L 270.485032 -319.247584 
L 269.463585 -319.468184 
L 268.442139 -319.657946 
L 267.420693 -319.816192 
L 266.399247 -319.942889 
L 265.3778 -320.038707 
L 264.356354 -320.105028 
L 263.334908 -320.14391 
L 262.313462 -320.158 
L 261.292015 -320.150404 
L 260.270569 -320.124519 
L 259.249123 -320.083843 
L 258.227677 -320.031758 
L 257.20623 -319.971322 
L 256.184784 -319.905063 
L 255.163338 -319.834799 
L 254.141892 -319.761489 
L 253.120445 -319.685128 
L 252.098999 -319.604699 
L 251.077553 -319.518164 
L 250.056107 -319.422526 
L 249.03466 -319.313935 
L 248.013214 -319.187841 
L 246.991768 -319.039191 
L 245.970321 -318.862652 
L 244.948875 -318.652854 
L 243.927429 -318.404638 
L 242.905983 -318.113298 
L 241.884536 -317.774802 
L 240.86309 -317.385988 
L 239.841644 -316.944716 
L 238.820198 -316.449977 
L 237.798751 -315.901947 
L 236.777305 -315.301996 
L 235.755859 -314.652634 
L 234.734413 -313.957414 
L 233.712966 -313.220791 
L 232.69152 -312.447941 
L 231.670074 -311.644555 
L 230.648628 -310.816622 
L 229.627181 -309.970201 
L 228.605735 -309.111203 
L 227.584289 -308.245198 
L 226.562843 -307.377238 
L 225.541396 -306.511731 
L 224.51995 -305.652347 
L 223.498504 -304.801975 
L 222.477057 -303.962727 
L 221.455611 -303.135981 
L 220.434165 -302.322471 
L 219.412719 -301.522401 
L 218.391272 -300.735585 
L 217.369826 -299.9616 
L 216.34838 -299.199942 
L 215.326934 -298.450167 
L 214.305487 -297.712024 
L 213.284041 -296.985559 
L 212.262595 -296.271182 
z
" id="m7eeb14cd30" style="stroke:#000000;"/>
    </defs>
    <g clip-path="url(#p5982e144f1)">
     <use style="fill:#377eb8;stroke:#000000;" x="0" xlink:href="#m7eeb14cd30" y="345.6"/>
    </g>
   </g>
   <g id="matplotlib.axis_1">
    <g id="xtick_1">
     <g id="line2d_1">
      <defs>
       <path d="M 0 0 
L 0 3.5 
" id="m1981c78bf7" style="stroke:#000000;stroke-width:0.8;"/>
      </defs>
      <g>
       <use style="stroke:#000000;stroke-width:0.8;" x="63.948598" xlink:href="#m1981c78bf7" y="303.64"/>
      </g>
     </g>
     <g id="text_1">
      <!-- 36.5 -->
      <defs>
       <path d="M 40.578125 39.3125 
Q 47.65625 37.796875 51.625 33 
Q 55.609375 28.21875 55.609375 21.1875 
Q 55.609375 10.40625 48.1875 4.484375 
Q 40.765625 -1.421875 27.09375 -1.421875 
Q 22.515625 -1.421875 17.65625 -0.515625 
Q 12.796875 0.390625 7.625 2.203125 
L 7.625 11.71875 
Q 11.71875 9.328125 16.59375 8.109375 
Q 21.484375 6.890625 26.8125 6.890625 
Q 36.078125 6.890625 40.9375 10.546875 
Q 45.796875 14.203125 45.796875 21.1875 
Q 45.796875 27.640625 41.28125 31.265625 
Q 36.765625 34.90625 28.71875 34.90625 
L 20.21875 34.90625 
L 20.21875 43.015625 
L 29.109375 43.015625 
Q 36.375 43.015625 40.234375 45.921875 
Q 44.09375 48.828125 44.09375 54.296875 
Q 44.09375 59.90625 40.109375 62.90625 
Q 36.140625 65.921875 28.71875 65.921875 
Q 24.65625 65.921875 20.015625 65.03125 
Q 15.375 64.15625 9.8125 62.3125 
L 9.8125 71.09375 
Q 15.4375 72.65625 20.34375 73.4375 
Q 25.25 74.21875 29.59375 74.21875 
Q 40.828125 74.21875 47.359375 69.109375 
Q 53.90625 64.015625 53.90625 55.328125 
Q 53.90625 49.265625 50.4375 45.09375 
Q 46.96875 40.921875 40.578125 39.3125 
z
" id="DejaVuSans-51"/>
       <path d="M 33.015625 40.375 
Q 26.375 40.375 22.484375 35.828125 
Q 18.609375 31.296875 18.609375 23.390625 
Q 18.609375 15.53125 22.484375 10.953125 
Q 26.375 6.390625 33.015625 6.390625 
Q 39.65625 6.390625 43.53125 10.953125 
Q 47.40625 15.53125 47.40625 23.390625 
Q 47.40625 31.296875 43.53125 35.828125 
Q 39.65625 40.375 33.015625 40.375 
z
M 52.59375 71.296875 
L 52.59375 62.3125 
Q 48.875 64.0625 45.09375 64.984375 
Q 41.3125 65.921875 37.59375 65.921875 
Q 27.828125 65.921875 22.671875 59.328125 
Q 17.53125 52.734375 16.796875 39.40625 
Q 19.671875 43.65625 24.015625 45.921875 
Q 28.375 48.1875 33.59375 48.1875 
Q 44.578125 48.1875 50.953125 41.515625 
Q 57.328125 34.859375 57.328125 23.390625 
Q 57.328125 12.15625 50.6875 5.359375 
Q 44.046875 -1.421875 33.015625 -1.421875 
Q 20.359375 -1.421875 13.671875 8.265625 
Q 6.984375 17.96875 6.984375 36.375 
Q 6.984375 53.65625 15.1875 63.9375 
Q 23.390625 74.21875 37.203125 74.21875 
Q 40.921875 74.21875 44.703125 73.484375 
Q 48.484375 72.75 52.59375 71.296875 
z
" id="DejaVuSans-54"/>
       <path d="M 10.6875 12.40625 
L 21 12.40625 
L 21 0 
L 10.6875 0 
z
" id="DejaVuSans-46"/>
       <path d="M 10.796875 72.90625 
L 49.515625 72.90625 
L 49.515625 64.59375 
L 19.828125 64.59375 
L 19.828125 46.734375 
Q 21.96875 47.46875 24.109375 47.828125 
Q 26.265625 48.1875 28.421875 48.1875 
Q 40.625 48.1875 47.75 41.5 
Q 54.890625 34.8125 54.890625 23.390625 
Q 54.890625 11.625 47.5625 5.09375 
Q 40.234375 -1.421875 26.90625 -1.421875 
Q 22.3125 -1.421875 17.546875 -0.640625 
Q 12.796875 0.140625 7.71875 1.703125 
L 7.71875 11.625 
Q 12.109375 9.234375 16.796875 8.0625 
Q 21.484375 6.890625 26.703125 6.890625 
Q 35.15625 6.890625 40.078125 11.328125 
Q 45.015625 15.765625 45.015625 23.390625 
Q 45.015625 31 40.078125 35.4375 
Q 35.15625 39.890625 26.703125 39.890625 
Q 22.75 39.890625 18.8125 39.015625 
Q 14.890625 38.140625 10.796875 36.28125 
z
" id="DejaVuSans-53"/>
      </defs>
      <g transform="translate(52.815785 318.238437)scale(0.1 -0.1)">
       <use xlink:href="#DejaVuSans-51"/>
       <use x="63.623047" xlink:href="#DejaVuSans-54"/>
       <use x="127.246094" xlink:href="#DejaVuSans-46"/>
       <use x="159.033203" xlink:href="#DejaVuSans-53"/>
      </g>
     </g>
    </g>
    <g id="xtick_2">
     <g id="line2d_2">
      <g>
       <use style="stroke:#000000;stroke-width:0.8;" x="131.364051" xlink:href="#m1981c78bf7" y="303.64"/>
      </g>
     </g>
     <g id="text_2">
      <!-- 37.0 -->
      <defs>
       <path d="M 8.203125 72.90625 
L 55.078125 72.90625 
L 55.078125 68.703125 
L 28.609375 0 
L 18.3125 0 
L 43.21875 64.59375 
L 8.203125 64.59375 
z
" id="DejaVuSans-55"/>
       <path d="M 31.78125 66.40625 
Q 24.171875 66.40625 20.328125 58.90625 
Q 16.5 51.421875 16.5 36.375 
Q 16.5 21.390625 20.328125 13.890625 
Q 24.171875 6.390625 31.78125 6.390625 
Q 39.453125 6.390625 43.28125 13.890625 
Q 47.125 21.390625 47.125 36.375 
Q 47.125 51.421875 43.28125 58.90625 
Q 39.453125 66.40625 31.78125 66.40625 
z
M 31.78125 74.21875 
Q 44.046875 74.21875 50.515625 64.515625 
Q 56.984375 54.828125 56.984375 36.375 
Q 56.984375 17.96875 50.515625 8.265625 
Q 44.046875 -1.421875 31.78125 -1.421875 
Q 19.53125 -1.421875 13.0625 8.265625 
Q 6.59375 17.96875 6.59375 36.375 
Q 6.59375 54.828125 13.0625 64.515625 
Q 19.53125 74.21875 31.78125 74.21875 
z
" id="DejaVuSans-48"/>
      </defs>
      <g transform="translate(120.231239 318.238437)scale(0.1 -0.1)">
       <use xlink:href="#DejaVuSans-51"/>
       <use x="63.623047" xlink:href="#DejaVuSans-55"/>
       <use x="127.246094" xlink:href="#DejaVuSans-46"/>
       <use x="159.033203" xlink:href="#DejaVuSans-48"/>
      </g>
     </g>
    </g>
    <g id="xtick_3">
     <g id="line2d_3">
      <g>
       <use style="stroke:#000000;stroke-width:0.8;" x="198.779504" xlink:href="#m1981c78bf7" y="303.64"/>
      </g>
     </g>
     <g id="text_3">
      <!-- 37.5 -->
      <g transform="translate(187.646692 318.238437)scale(0.1 -0.1)">
       <use xlink:href="#DejaVuSans-51"/>
       <use x="63.623047" xlink:href="#DejaVuSans-55"/>
       <use x="127.246094" xlink:href="#DejaVuSans-46"/>
       <use x="159.033203" xlink:href="#DejaVuSans-53"/>
      </g>
     </g>
    </g>
    <g id="xtick_4">
     <g id="line2d_4">
      <g>
       <use style="stroke:#000000;stroke-width:0.8;" x="266.194957" xlink:href="#m1981c78bf7" y="303.64"/>
      </g>
     </g>
     <g id="text_4">
      <!-- 38.0 -->
      <defs>
       <path d="M 31.78125 34.625 
Q 24.75 34.625 20.71875 30.859375 
Q 16.703125 27.09375 16.703125 20.515625 
Q 16.703125 13.921875 20.71875 10.15625 
Q 24.75 6.390625 31.78125 6.390625 
Q 38.8125 6.390625 42.859375 10.171875 
Q 46.921875 13.96875 46.921875 20.515625 
Q 46.921875 27.09375 42.890625 30.859375 
Q 38.875 34.625 31.78125 34.625 
z
M 21.921875 38.8125 
Q 15.578125 40.375 12.03125 44.71875 
Q 8.5 49.078125 8.5 55.328125 
Q 8.5 64.0625 14.71875 69.140625 
Q 20.953125 74.21875 31.78125 74.21875 
Q 42.671875 74.21875 48.875 69.140625 
Q 55.078125 64.0625 55.078125 55.328125 
Q 55.078125 49.078125 51.53125 44.71875 
Q 48 40.375 41.703125 38.8125 
Q 48.828125 37.15625 52.796875 32.3125 
Q 56.78125 27.484375 56.78125 20.515625 
Q 56.78125 9.90625 50.3125 4.234375 
Q 43.84375 -1.421875 31.78125 -1.421875 
Q 19.734375 -1.421875 13.25 4.234375 
Q 6.78125 9.90625 6.78125 20.515625 
Q 6.78125 27.484375 10.78125 32.3125 
Q 14.796875 37.15625 21.921875 38.8125 
z
M 18.3125 54.390625 
Q 18.3125 48.734375 21.84375 45.5625 
Q 25.390625 42.390625 31.78125 42.390625 
Q 38.140625 42.390625 41.71875 45.5625 
Q 45.3125 48.734375 45.3125 54.390625 
Q 45.3125 60.0625 41.71875 63.234375 
Q 38.140625 66.40625 31.78125 66.40625 
Q 25.390625 66.40625 21.84375 63.234375 
Q 18.3125 60.0625 18.3125 54.390625 
z
" id="DejaVuSans-56"/>
      </defs>
      <g transform="translate(255.062145 318.238437)scale(0.1 -0.1)">
       <use xlink:href="#DejaVuSans-51"/>
       <use x="63.623047" xlink:href="#DejaVuSans-56"/>
       <use x="127.246094" xlink:href="#DejaVuSans-46"/>
       <use x="159.033203" xlink:href="#DejaVuSans-48"/>
      </g>
     </g>
    </g>
    <g id="xtick_5">
     <g id="line2d_5">
      <g>
       <use style="stroke:#000000;stroke-width:0.8;" x="333.610411" xlink:href="#m1981c78bf7" y="303.64"/>
      </g>
     </g>
     <g id="text_5">
      <!-- 38.5 -->
      <g transform="translate(322.477598 318.238437)scale(0.1 -0.1)">
       <use xlink:href="#DejaVuSans-51"/>
       <use x="63.623047" xlink:href="#DejaVuSans-56"/>
       <use x="127.246094" xlink:href="#DejaVuSans-46"/>
       <use x="159.033203" xlink:href="#DejaVuSans-53"/>
      </g>
     </g>
    </g>
    <g id="text_6">
     <!-- temp -->
     <defs>
      <path d="M 18.3125 70.21875 
L 18.3125 54.6875 
L 36.8125 54.6875 
L 36.8125 47.703125 
L 18.3125 47.703125 
L 18.3125 18.015625 
Q 18.3125 11.328125 20.140625 9.421875 
Q 21.96875 7.515625 27.59375 7.515625 
L 36.8125 7.515625 
L 36.8125 0 
L 27.59375 0 
Q 17.1875 0 13.234375 3.875 
Q 9.28125 7.765625 9.28125 18.015625 
L 9.28125 47.703125 
L 2.6875 47.703125 
L 2.6875 54.6875 
L 9.28125 54.6875 
L 9.28125 70.21875 
z
" id="DejaVuSans-116"/>
      <path d="M 56.203125 29.59375 
L 56.203125 25.203125 
L 14.890625 25.203125 
Q 15.484375 15.921875 20.484375 11.0625 
Q 25.484375 6.203125 34.421875 6.203125 
Q 39.59375 6.203125 44.453125 7.46875 
Q 49.3125 8.734375 54.109375 11.28125 
L 54.109375 2.78125 
Q 49.265625 0.734375 44.1875 -0.34375 
Q 39.109375 -1.421875 33.890625 -1.421875 
Q 20.796875 -1.421875 13.15625 6.1875 
Q 5.515625 13.8125 5.515625 26.8125 
Q 5.515625 40.234375 12.765625 48.109375 
Q 20.015625 56 32.328125 56 
Q 43.359375 56 49.78125 48.890625 
Q 56.203125 41.796875 56.203125 29.59375 
z
M 47.21875 32.234375 
Q 47.125 39.59375 43.09375 43.984375 
Q 39.0625 48.390625 32.421875 48.390625 
Q 24.90625 48.390625 20.390625 44.140625 
Q 15.875 39.890625 15.1875 32.171875 
z
" id="DejaVuSans-101"/>
      <path d="M 52 44.1875 
Q 55.375 50.25 60.0625 53.125 
Q 64.75 56 71.09375 56 
Q 79.640625 56 84.28125 50.015625 
Q 88.921875 44.046875 88.921875 33.015625 
L 88.921875 0 
L 79.890625 0 
L 79.890625 32.71875 
Q 79.890625 40.578125 77.09375 44.375 
Q 74.3125 48.1875 68.609375 48.1875 
Q 61.625 48.1875 57.5625 43.546875 
Q 53.515625 38.921875 53.515625 30.90625 
L 53.515625 0 
L 44.484375 0 
L 44.484375 32.71875 
Q 44.484375 40.625 41.703125 44.40625 
Q 38.921875 48.1875 33.109375 48.1875 
Q 26.21875 48.1875 22.15625 43.53125 
Q 18.109375 38.875 18.109375 30.90625 
L 18.109375 0 
L 9.078125 0 
L 9.078125 54.6875 
L 18.109375 54.6875 
L 18.109375 46.1875 
Q 21.1875 51.21875 25.484375 53.609375 
Q 29.78125 56 35.6875 56 
Q 41.65625 56 45.828125 52.96875 
Q 50 49.953125 52 44.1875 
z
" id="DejaVuSans-109"/>
      <path d="M 18.109375 8.203125 
L 18.109375 -20.796875 
L 9.078125 -20.796875 
L 9.078125 54.6875 
L 18.109375 54.6875 
L 18.109375 46.390625 
Q 20.953125 51.265625 25.265625 53.625 
Q 29.59375 56 35.59375 56 
Q 45.5625 56 51.78125 48.09375 
Q 58.015625 40.1875 58.015625 27.296875 
Q 58.015625 14.40625 51.78125 6.484375 
Q 45.5625 -1.421875 35.59375 -1.421875 
Q 29.59375 -1.421875 25.265625 0.953125 
Q 20.953125 3.328125 18.109375 8.203125 
z
M 48.6875 27.296875 
Q 48.6875 37.203125 44.609375 42.84375 
Q 40.53125 48.484375 33.40625 48.484375 
Q 26.265625 48.484375 22.1875 42.84375 
Q 18.109375 37.203125 18.109375 27.296875 
Q 18.109375 17.390625 22.1875 11.75 
Q 26.265625 6.109375 33.40625 6.109375 
Q 40.53125 6.109375 44.609375 11.75 
Q 48.6875 17.390625 48.6875 27.296875 
z
" id="DejaVuSans-112"/>
     </defs>
     <g transform="translate(207.23075 331.916562)scale(0.1 -0.1)">
      <use xlink:href="#DejaVuSans-116"/>
      <use x="39.208984" xlink:href="#DejaVuSans-101"/>
      <use x="100.732422" xlink:href="#DejaVuSans-109"/>
      <use x="198.144531" xlink:href="#DejaVuSans-112"/>
     </g>
    </g>
   </g>
   <g id="matplotlib.axis_2">
    <g id="ytick_1">
     <g id="line2d_6">
      <defs>
       <path d="M 0 0 
L -3.5 0 
" id="mbb6d517487" style="stroke:#000000;stroke-width:0.8;"/>
      </defs>
      <g>
       <use style="stroke:#000000;stroke-width:0.8;" x="50.87" xlink:href="#mbb6d517487" y="254.833333"/>
      </g>
     </g>
     <g id="text_7">
      <!-- 308 -->
      <g transform="translate(24.7825 258.632552)scale(0.1 -0.1)">
       <use xlink:href="#DejaVuSans-51"/>
       <use x="63.623047" xlink:href="#DejaVuSans-48"/>
       <use x="127.246094" xlink:href="#DejaVuSans-56"/>
      </g>
     </g>
    </g>
    <g id="ytick_2">
     <g id="line2d_7">
      <g>
       <use style="stroke:#000000;stroke-width:0.8;" x="50.87" xlink:href="#mbb6d517487" y="108.413333"/>
      </g>
     </g>
     <g id="text_8">
      <!-- 307 -->
      <g transform="translate(24.7825 112.212552)scale(0.1 -0.1)">
       <use xlink:href="#DejaVuSans-51"/>
       <use x="63.623047" xlink:href="#DejaVuSans-48"/>
       <use x="127.246094" xlink:href="#DejaVuSans-55"/>
      </g>
     </g>
    </g>
    <g id="text_9">
     <!-- day -->
     <defs>
      <path d="M 45.40625 46.390625 
L 45.40625 75.984375 
L 54.390625 75.984375 
L 54.390625 0 
L 45.40625 0 
L 45.40625 8.203125 
Q 42.578125 3.328125 38.25 0.953125 
Q 33.9375 -1.421875 27.875 -1.421875 
Q 17.96875 -1.421875 11.734375 6.484375 
Q 5.515625 14.40625 5.515625 27.296875 
Q 5.515625 40.1875 11.734375 48.09375 
Q 17.96875 56 27.875 56 
Q 33.9375 56 38.25 53.625 
Q 42.578125 51.265625 45.40625 46.390625 
z
M 14.796875 27.296875 
Q 14.796875 17.390625 18.875 11.75 
Q 22.953125 6.109375 30.078125 6.109375 
Q 37.203125 6.109375 41.296875 11.75 
Q 45.40625 17.390625 45.40625 27.296875 
Q 45.40625 37.203125 41.296875 42.84375 
Q 37.203125 48.484375 30.078125 48.484375 
Q 22.953125 48.484375 18.875 42.84375 
Q 14.796875 37.203125 14.796875 27.296875 
z
" id="DejaVuSans-100"/>
      <path d="M 34.28125 27.484375 
Q 23.390625 27.484375 19.1875 25 
Q 14.984375 22.515625 14.984375 16.5 
Q 14.984375 11.71875 18.140625 8.90625 
Q 21.296875 6.109375 26.703125 6.109375 
Q 34.1875 6.109375 38.703125 11.40625 
Q 43.21875 16.703125 43.21875 25.484375 
L 43.21875 27.484375 
z
M 52.203125 31.203125 
L 52.203125 0 
L 43.21875 0 
L 43.21875 8.296875 
Q 40.140625 3.328125 35.546875 0.953125 
Q 30.953125 -1.421875 24.3125 -1.421875 
Q 15.921875 -1.421875 10.953125 3.296875 
Q 6 8.015625 6 15.921875 
Q 6 25.140625 12.171875 29.828125 
Q 18.359375 34.515625 30.609375 34.515625 
L 43.21875 34.515625 
L 43.21875 35.40625 
Q 43.21875 41.609375 39.140625 45 
Q 35.0625 48.390625 27.6875 48.390625 
Q 23 48.390625 18.546875 47.265625 
Q 14.109375 46.140625 10.015625 43.890625 
L 10.015625 52.203125 
Q 14.9375 54.109375 19.578125 55.046875 
Q 24.21875 56 28.609375 56 
Q 40.484375 56 46.34375 49.84375 
Q 52.203125 43.703125 52.203125 31.203125 
z
" id="DejaVuSans-97"/>
      <path d="M 32.171875 -5.078125 
Q 28.375 -14.84375 24.75 -17.8125 
Q 21.140625 -20.796875 15.09375 -20.796875 
L 7.90625 -20.796875 
L 7.90625 -13.28125 
L 13.1875 -13.28125 
Q 16.890625 -13.28125 18.9375 -11.515625 
Q 21 -9.765625 23.484375 -3.21875 
L 25.09375 0.875 
L 2.984375 54.6875 
L 12.5 54.6875 
L 29.59375 11.921875 
L 46.6875 54.6875 
L 56.203125 54.6875 
z
" id="DejaVuSans-121"/>
     </defs>
     <g transform="translate(18.702813 166.417656)rotate(-90)scale(0.1 -0.1)">
      <use xlink:href="#DejaVuSans-100"/>
      <use x="63.476562" xlink:href="#DejaVuSans-97"/>
      <use x="124.755859" xlink:href="#DejaVuSans-121"/>
     </g>
    </g>
   </g>
   <g id="LineCollection_1">
    <path clip-path="url(#p5982e144f1)" d="M 205.52105 254.833333 
L 235.183849 254.833333 
" style="fill:none;stroke:#000000;stroke-width:5;"/>
   </g>
   <g id="LineCollection_2">
    <path clip-path="url(#p5982e144f1)" d="M 127.656201 157.22 
L 154.285305 157.22 
" style="fill:none;stroke:#000000;stroke-width:5;"/>
   </g>
   <g id="LineCollection_3">
    <path clip-path="url(#p5982e144f1)" d="M 241.925394 59.606667 
L 279.678048 59.606667 
" style="fill:none;stroke:#000000;stroke-width:5;"/>
   </g>
   <g id="line2d_8">
    <path clip-path="url(#p5982e144f1)" d="M 337.250845 157.22 
L 349.18338 157.22 
L 349.18338 59.606667 
L 337.250845 59.606667 
" style="fill:none;stroke:#000000;stroke-linecap:square;"/>
   </g>
   <g id="patch_3">
    <path d="M 50.87 303.64 
L 50.87 10.8 
" style="fill:none;stroke:#000000;stroke-linecap:square;stroke-linejoin:miter;stroke-width:0.8;"/>
   </g>
   <g id="patch_4">
    <path d="M 389.754 303.64 
L 389.754 10.8 
" style="fill:none;stroke:#000000;stroke-linecap:square;stroke-linejoin:miter;stroke-width:0.8;"/>
   </g>
   <g id="patch_5">
    <path d="M 50.87 303.64 
L 389.754 303.64 
" style="fill:none;stroke:#000000;stroke-linecap:square;stroke-linejoin:miter;stroke-width:0.8;"/>
   </g>
   <g id="patch_6">
    <path d="M 50.87 10.8 
L 389.754 10.8 
" style="fill:none;stroke:#000000;stroke-linecap:square;stroke-linejoin:miter;stroke-width:0.8;"/>
   </g>
   <g id="PathCollection_1">
    <defs>
     <path d="M 0 2.236068 
C 0.593012 2.236068 1.161816 2.000462 1.581139 1.581139 
C 2.000462 1.161816 2.236068 0.593012 2.236068 0 
C 2.236068 -0.593012 2.000462 -1.161816 1.581139 -1.581139 
C 1.161816 -2.000462 0.593012 -2.236068 0 -2.236068 
C -0.593012 -2.236068 -1.161816 -2.000462 -1.581139 -1.581139 
C -2.000462 -1.161816 -2.236068 -0.593012 -2.236068 0 
C -2.236068 0.593012 -2.000462 1.161816 -1.581139 1.581139 
C -1.161816 2.000462 -0.593012 2.236068 0 2.236068 
z
" id="ma3fdbcfe91" style="stroke:#377eb8;"/>
    </defs>
    <g clip-path="url(#p5982e144f1)">
     <use style="fill:#377eb8;stroke:#377eb8;" x="229.790613" xlink:href="#ma3fdbcfe91" y="254.833333"/>
    </g>
   </g>
   <g id="PathCollection_2">
    <g clip-path="url(#p5982e144f1)">
     <use style="fill:#377eb8;stroke:#377eb8;" x="144.172987" xlink:href="#ma3fdbcfe91" y="157.22"/>
    </g>
   </g>
   <g id="PathCollection_3">
    <g clip-path="url(#p5982e144f1)">
     <use style="fill:#377eb8;stroke:#377eb8;" x="260.801721" xlink:href="#ma3fdbcfe91" y="59.606667"/>
    </g>
   </g>
   <g id="text_10">
    <!-- **** -->
    <defs>
     <path d="M 47.015625 60.890625 
L 29.5 51.421875 
L 47.015625 41.890625 
L 44.1875 37.109375 
L 27.78125 47.015625 
L 27.78125 28.609375 
L 22.21875 28.609375 
L 22.21875 47.015625 
L 5.8125 37.109375 
L 2.984375 41.890625 
L 20.515625 51.421875 
L 2.984375 60.890625 
L 5.8125 65.71875 
L 22.21875 55.8125 
L 22.21875 74.21875 
L 27.78125 74.21875 
L 27.78125 55.8125 
L 44.1875 65.71875 
z
" id="DejaVuSans-42"/>
    </defs>
    <g style="fill:#cd5c5c;" transform="translate(353.956394 111.172708)scale(0.1 -0.1)">
     <use xlink:href="#DejaVuSans-42"/>
     <use x="50" xlink:href="#DejaVuSans-42"/>
     <use x="100" xlink:href="#DejaVuSans-42"/>
     <use x="150" xlink:href="#DejaVuSans-42"/>
    </g>
   </g>
   <g id="legend_1">
    <g id="patch_7">
     <path d="M 410.6982 282.882187 
L 430.6982 282.882187 
L 430.6982 275.882187 
L 410.6982 275.882187 
z
" style="fill:#e41a1c;stroke:#000000;stroke-linejoin:miter;"/>
    </g>
    <g id="text_11">
     <!-- 0 -->
     <g transform="translate(438.6982 282.882187)scale(0.1 -0.1)">
      <use xlink:href="#DejaVuSans-48"/>
     </g>
    </g>
    <g id="patch_8">
     <path d="M 410.6982 297.560312 
L 430.6982 297.560312 
L 430.6982 290.560312 
L 410.6982 290.560312 
z
" style="fill:#377eb8;stroke:#000000;stroke-linejoin:miter;"/>
    </g>
    <g id="text_12">
     <!-- 1 -->
     <defs>
      <path d="M 12.40625 8.296875 
L 28.515625 8.296875 
L 28.515625 63.921875 
L 10.984375 60.40625 
L 10.984375 69.390625 
L 28.421875 72.90625 
L 38.28125 72.90625 
L 38.28125 8.296875 
L 54.390625 8.296875 
L 54.390625 0 
L 12.40625 0 
z
" id="DejaVuSans-49"/>
     </defs>
     <g transform="translate(438.6982 297.560312)scale(0.1 -0.1)">
      <use xlink:href="#DejaVuSans-49"/>
     </g>
    </g>
   </g>
  </g>
 </g>
 <defs>
  <clipPath id="p5982e144f1">
   <rect height="292.84" width="338.884" x="50.87" y="10.8"/>
  </clipPath>
 </defs>
</svg>
