<?xml version="1.0" encoding="utf-8" standalone="no"?>
<!DOCTYPE svg PUBLIC "-//W3C//DTD SVG 1.1//EN"
  "http://www.w3.org/Graphics/SVG/1.1/DTD/svg11.dtd">
<!-- Created with matplotlib (https://matplotlib.org/) -->
<svg height="345.6pt" version="1.1" viewBox="0 0 460.8 345.6" width="460.8pt" xmlns="http://www.w3.org/2000/svg" xmlns:xlink="http://www.w3.org/1999/xlink">
 <defs>
  <style type="text/css">
*{stroke-linecap:butt;stroke-linejoin:round;}
  </style>
 </defs>
 <g id="figure_1">
  <g id="patch_1">
   <path d="M 0 345.6 
L 460.8 345.6 
L 460.8 0 
L 0 0 
z
" style="fill:#ffffff;"/>
  </g>
  <g id="axes_1">
   <g id="patch_2">
    <path d="M 30.49 317.72 
L 373.744 317.72 
L 373.744 74.22125 
L 30.49 74.22125 
z
" style="fill:#ffffff;"/>
   </g>
   <g id="PathCollection_1">
    <defs>
     <path d="M 0 1.581139 
C 0.419323 1.581139 0.821528 1.41454 1.118034 1.118034 
C 1.41454 0.821528 1.581139 0.419323 1.581139 0 
C 1.581139 -0.419323 1.41454 -0.821528 1.118034 -1.118034 
C 0.821528 -1.41454 0.419323 -1.581139 0 -1.581139 
C -0.419323 -1.581139 -0.821528 -1.41454 -1.118034 -1.118034 
C -1.41454 -0.821528 -1.581139 -0.419323 -1.581139 0 
C -1.581139 0.419323 -1.41454 0.821528 -1.118034 1.118034 
C -0.821528 1.41454 -0.419323 1.581139 0 1.581139 
z
" id="C0_0_f2587686a0"/>
    </defs>
    <g clip-path="url(#pbc73ae5261)">
     <use style="fill:#d3d3d3;stroke:#d3d3d3;" x="358.141545" xlink:href="#C0_0_f2587686a0" y="306.651875"/>
    </g>
    <g clip-path="url(#pbc73ae5261)">
     <use style="fill:#d3d3d3;stroke:#d3d3d3;" x="182.731482" xlink:href="#C0_0_f2587686a0" y="306.269498"/>
    </g>
    <g clip-path="url(#pbc73ae5261)">
     <use style="fill:#87ceeb;stroke:#87ceeb;" x="159.347707" xlink:href="#C0_0_f2587686a0" y="299.706823"/>
    </g>
    <g clip-path="url(#pbc73ae5261)">
     <use style="fill:#d3d3d3;stroke:#d3d3d3;" x="185.585668" xlink:href="#C0_0_f2587686a0" y="306.638166"/>
    </g>
    <g clip-path="url(#pbc73ae5261)">
     <use style="fill:#d3d3d3;stroke:#d3d3d3;" x="199.004151" xlink:href="#C0_0_f2587686a0" y="304.035786"/>
    </g>
    <g clip-path="url(#pbc73ae5261)">
     <use style="fill:#d3d3d3;stroke:#d3d3d3;" x="203.891711" xlink:href="#C0_0_f2587686a0" y="302.605818"/>
    </g>
    <g clip-path="url(#pbc73ae5261)">
     <use style="fill:#d3d3d3;stroke:#d3d3d3;" x="179.35422" xlink:href="#C0_0_f2587686a0" y="305.703373"/>
    </g>
    <g clip-path="url(#pbc73ae5261)">
     <use style="fill:#d3d3d3;stroke:#d3d3d3;" x="191.315839" xlink:href="#C0_0_f2587686a0" y="305.760519"/>
    </g>
    <g clip-path="url(#pbc73ae5261)">
     <use style="fill:#d3d3d3;stroke:#d3d3d3;" x="203.57908" xlink:href="#C0_0_f2587686a0" y="303.310152"/>
    </g>
    <g clip-path="url(#pbc73ae5261)">
     <use style="fill:#d3d3d3;stroke:#d3d3d3;" x="162.653419" xlink:href="#C0_0_f2587686a0" y="301.307029"/>
    </g>
    <g clip-path="url(#pbc73ae5261)">
     <use style="fill:#d3d3d3;stroke:#d3d3d3;" x="182.731482" xlink:href="#C0_0_f2587686a0" y="306.269498"/>
    </g>
    <g clip-path="url(#pbc73ae5261)">
     <use style="fill:#d3d3d3;stroke:#d3d3d3;" x="358.141545" xlink:href="#C0_0_f2587686a0" y="306.651875"/>
    </g>
    <g clip-path="url(#pbc73ae5261)">
     <use style="fill:#87ceeb;stroke:#87ceeb;" x="155.920873" xlink:href="#C0_0_f2587686a0" y="298.141913"/>
    </g>
    <g clip-path="url(#pbc73ae5261)">
     <use style="fill:#d3d3d3;stroke:#d3d3d3;" x="172.002856" xlink:href="#C0_0_f2587686a0" y="304.041414"/>
    </g>
    <g clip-path="url(#pbc73ae5261)">
     <use style="fill:#d3d3d3;stroke:#d3d3d3;" x="207.857735" xlink:href="#C0_0_f2587686a0" y="301.186884"/>
    </g>
    <g clip-path="url(#pbc73ae5261)">
     <use style="fill:#87ceeb;stroke:#87ceeb;" x="150.804937" xlink:href="#C0_0_f2587686a0" y="295.575989"/>
    </g>
    <g clip-path="url(#pbc73ae5261)">
     <use style="fill:#ffa500;stroke:#ffa500;" x="208.456407" xlink:href="#C0_0_f2587686a0" y="300.978583"/>
    </g>
    <g clip-path="url(#pbc73ae5261)">
     <use style="fill:#ffa500;stroke:#ffa500;" x="217.303923" xlink:href="#C0_0_f2587686a0" y="297.137195"/>
    </g>
    <g clip-path="url(#pbc73ae5261)">
     <use style="fill:#d3d3d3;stroke:#d3d3d3;" x="198.319467" xlink:href="#C0_0_f2587686a0" y="304.562986"/>
    </g>
    <g clip-path="url(#pbc73ae5261)">
     <use style="fill:#d3d3d3;stroke:#d3d3d3;" x="187.022583" xlink:href="#C0_0_f2587686a0" y="306.451704"/>
    </g>
    <g clip-path="url(#pbc73ae5261)">
     <use style="fill:#87ceeb;stroke:#87ceeb;" x="159.347707" xlink:href="#C0_0_f2587686a0" y="299.706823"/>
    </g>
    <g clip-path="url(#pbc73ae5261)">
     <use style="fill:#87ceeb;stroke:#87ceeb;" x="155.920873" xlink:href="#C0_0_f2587686a0" y="298.141913"/>
    </g>
    <g clip-path="url(#pbc73ae5261)">
     <use style="fill:#d3d3d3;stroke:#d3d3d3;" x="358.141545" xlink:href="#C0_0_f2587686a0" y="306.651875"/>
    </g>
    <g clip-path="url(#pbc73ae5261)">
     <use style="fill:#ffa500;stroke:#ffa500;" x="211.326086" xlink:href="#C0_0_f2587686a0" y="299.802123"/>
    </g>
    <g clip-path="url(#pbc73ae5261)">
     <use style="fill:#87ceeb;stroke:#87ceeb;" x="143.446011" xlink:href="#C0_0_f2587686a0" y="291.103668"/>
    </g>
    <g clip-path="url(#pbc73ae5261)">
     <use style="fill:#ffa500;stroke:#ffa500;" x="225.667837" xlink:href="#C0_0_f2587686a0" y="292.345665"/>
    </g>
    <g clip-path="url(#pbc73ae5261)">
     <use style="fill:#87ceeb;stroke:#87ceeb;" x="154.008276" xlink:href="#C0_0_f2587686a0" y="297.24542"/>
    </g>
    <g clip-path="url(#pbc73ae5261)">
     <use style="fill:#87ceeb;stroke:#87ceeb;" x="155.86546" xlink:href="#C0_0_f2587686a0" y="298.207705"/>
    </g>
    <g clip-path="url(#pbc73ae5261)">
     <use style="fill:#d3d3d3;stroke:#d3d3d3;" x="189.560801" xlink:href="#C0_0_f2587686a0" y="306.129828"/>
    </g>
    <g clip-path="url(#pbc73ae5261)">
     <use style="fill:#d3d3d3;stroke:#d3d3d3;" x="191.525149" xlink:href="#C0_0_f2587686a0" y="305.747606"/>
    </g>
    <g clip-path="url(#pbc73ae5261)">
     <use style="fill:#d3d3d3;stroke:#d3d3d3;" x="185.585668" xlink:href="#C0_0_f2587686a0" y="306.638166"/>
    </g>
    <g clip-path="url(#pbc73ae5261)">
     <use style="fill:#d3d3d3;stroke:#d3d3d3;" x="172.002856" xlink:href="#C0_0_f2587686a0" y="304.041414"/>
    </g>
    <g clip-path="url(#pbc73ae5261)">
     <use style="fill:#ffa500;stroke:#ffa500;" x="211.326086" xlink:href="#C0_0_f2587686a0" y="299.802123"/>
    </g>
    <g clip-path="url(#pbc73ae5261)">
     <use style="fill:#d3d3d3;stroke:#d3d3d3;" x="358.141545" xlink:href="#C0_0_f2587686a0" y="306.651875"/>
    </g>
    <g clip-path="url(#pbc73ae5261)">
     <use style="fill:#d3d3d3;stroke:#d3d3d3;" x="164.384184" xlink:href="#C0_0_f2587686a0" y="301.660311"/>
    </g>
    <g clip-path="url(#pbc73ae5261)">
     <use style="fill:#ffa500;stroke:#ffa500;" x="218.84281" xlink:href="#C0_0_f2587686a0" y="296.275665"/>
    </g>
    <g clip-path="url(#pbc73ae5261)">
     <use style="fill:#87ceeb;stroke:#87ceeb;" x="150.395849" xlink:href="#C0_0_f2587686a0" y="295.352068"/>
    </g>
    <g clip-path="url(#pbc73ae5261)">
     <use style="fill:#d3d3d3;stroke:#d3d3d3;" x="163.693567" xlink:href="#C0_0_f2587686a0" y="301.461762"/>
    </g>
    <g clip-path="url(#pbc73ae5261)">
     <use style="fill:#87ceeb;stroke:#87ceeb;" x="145.521791" xlink:href="#C0_0_f2587686a0" y="294.993436"/>
    </g>
    <g clip-path="url(#pbc73ae5261)">
     <use style="fill:#d3d3d3;stroke:#d3d3d3;" x="192.064736" xlink:href="#C0_0_f2587686a0" y="305.650536"/>
    </g>
    <g clip-path="url(#pbc73ae5261)">
     <use style="fill:#d3d3d3;stroke:#d3d3d3;" x="199.004151" xlink:href="#C0_0_f2587686a0" y="304.035786"/>
    </g>
    <g clip-path="url(#pbc73ae5261)">
     <use style="fill:#d3d3d3;stroke:#d3d3d3;" x="207.857735" xlink:href="#C0_0_f2587686a0" y="301.186884"/>
    </g>
    <g clip-path="url(#pbc73ae5261)">
     <use style="fill:#87ceeb;stroke:#87ceeb;" x="143.446011" xlink:href="#C0_0_f2587686a0" y="291.103668"/>
    </g>
    <g clip-path="url(#pbc73ae5261)">
     <use style="fill:#d3d3d3;stroke:#d3d3d3;" x="164.384184" xlink:href="#C0_0_f2587686a0" y="301.660311"/>
    </g>
    <g clip-path="url(#pbc73ae5261)">
     <use style="fill:#d3d3d3;stroke:#d3d3d3;" x="358.141545" xlink:href="#C0_0_f2587686a0" y="306.651875"/>
    </g>
    <g clip-path="url(#pbc73ae5261)">
     <use style="fill:#d3d3d3;stroke:#d3d3d3;" x="181.920464" xlink:href="#C0_0_f2587686a0" y="306.143142"/>
    </g>
    <g clip-path="url(#pbc73ae5261)">
     <use style="fill:#d3d3d3;stroke:#d3d3d3;" x="187.443771" xlink:href="#C0_0_f2587686a0" y="306.385243"/>
    </g>
    <g clip-path="url(#pbc73ae5261)">
     <use style="fill:#d3d3d3;stroke:#d3d3d3;" x="193.432848" xlink:href="#C0_0_f2587686a0" y="305.351503"/>
    </g>
    <g clip-path="url(#pbc73ae5261)">
     <use style="fill:#87ceeb;stroke:#87ceeb;" x="156.408393" xlink:href="#C0_0_f2587686a0" y="299.779332"/>
    </g>
    <g clip-path="url(#pbc73ae5261)">
     <use style="fill:#d3d3d3;stroke:#d3d3d3;" x="163.19108" xlink:href="#C0_0_f2587686a0" y="301.4803"/>
    </g>
    <g clip-path="url(#pbc73ae5261)">
     <use style="fill:#d3d3d3;stroke:#d3d3d3;" x="203.891711" xlink:href="#C0_0_f2587686a0" y="302.605818"/>
    </g>
    <g clip-path="url(#pbc73ae5261)">
     <use style="fill:#87ceeb;stroke:#87ceeb;" x="150.804937" xlink:href="#C0_0_f2587686a0" y="295.575989"/>
    </g>
    <g clip-path="url(#pbc73ae5261)">
     <use style="fill:#ffa500;stroke:#ffa500;" x="225.667837" xlink:href="#C0_0_f2587686a0" y="292.345665"/>
    </g>
    <g clip-path="url(#pbc73ae5261)">
     <use style="fill:#ffa500;stroke:#ffa500;" x="218.84281" xlink:href="#C0_0_f2587686a0" y="296.275665"/>
    </g>
    <g clip-path="url(#pbc73ae5261)">
     <use style="fill:#d3d3d3;stroke:#d3d3d3;" x="181.920464" xlink:href="#C0_0_f2587686a0" y="306.143142"/>
    </g>
    <g clip-path="url(#pbc73ae5261)">
     <use style="fill:#d3d3d3;stroke:#d3d3d3;" x="358.141545" xlink:href="#C0_0_f2587686a0" y="306.651875"/>
    </g>
    <g clip-path="url(#pbc73ae5261)">
     <use style="fill:#87ceeb;stroke:#87ceeb;" x="46.092455" xlink:href="#C0_0_f2587686a0" y="85.289375"/>
    </g>
    <g clip-path="url(#pbc73ae5261)">
     <use style="fill:#87ceeb;stroke:#87ceeb;" x="97.208776" xlink:href="#C0_0_f2587686a0" y="240.898056"/>
    </g>
    <g clip-path="url(#pbc73ae5261)">
     <use style="fill:#d3d3d3;stroke:#d3d3d3;" x="168.46887" xlink:href="#C0_0_f2587686a0" y="303.593097"/>
    </g>
    <g clip-path="url(#pbc73ae5261)">
     <use style="fill:#ffa500;stroke:#ffa500;" x="217.867849" xlink:href="#C0_0_f2587686a0" y="297.289503"/>
    </g>
    <g clip-path="url(#pbc73ae5261)">
     <use style="fill:#d3d3d3;stroke:#d3d3d3;" x="179.35422" xlink:href="#C0_0_f2587686a0" y="305.703373"/>
    </g>
    <g clip-path="url(#pbc73ae5261)">
     <use style="fill:#ffa500;stroke:#ffa500;" x="208.456407" xlink:href="#C0_0_f2587686a0" y="300.978583"/>
    </g>
    <g clip-path="url(#pbc73ae5261)">
     <use style="fill:#87ceeb;stroke:#87ceeb;" x="154.008276" xlink:href="#C0_0_f2587686a0" y="297.24542"/>
    </g>
    <g clip-path="url(#pbc73ae5261)">
     <use style="fill:#87ceeb;stroke:#87ceeb;" x="150.395849" xlink:href="#C0_0_f2587686a0" y="295.352068"/>
    </g>
    <g clip-path="url(#pbc73ae5261)">
     <use style="fill:#d3d3d3;stroke:#d3d3d3;" x="187.443771" xlink:href="#C0_0_f2587686a0" y="306.385243"/>
    </g>
    <g clip-path="url(#pbc73ae5261)">
     <use style="fill:#87ceeb;stroke:#87ceeb;" x="46.092455" xlink:href="#C0_0_f2587686a0" y="85.289375"/>
    </g>
    <g clip-path="url(#pbc73ae5261)">
     <use style="fill:#d3d3d3;stroke:#d3d3d3;" x="358.141545" xlink:href="#C0_0_f2587686a0" y="306.651875"/>
    </g>
    <g clip-path="url(#pbc73ae5261)">
     <use style="fill:#ffa500;stroke:#ffa500;" x="275.314382" xlink:href="#C0_0_f2587686a0" y="238.273023"/>
    </g>
    <g clip-path="url(#pbc73ae5261)">
     <use style="fill:#d3d3d3;stroke:#d3d3d3;" x="192.77013" xlink:href="#C0_0_f2587686a0" y="305.629877"/>
    </g>
    <g clip-path="url(#pbc73ae5261)">
     <use style="fill:#87ceeb;stroke:#87ceeb;" x="155.18684" xlink:href="#C0_0_f2587686a0" y="298.239643"/>
    </g>
    <g clip-path="url(#pbc73ae5261)">
     <use style="fill:#d3d3d3;stroke:#d3d3d3;" x="191.315839" xlink:href="#C0_0_f2587686a0" y="305.760519"/>
    </g>
    <g clip-path="url(#pbc73ae5261)">
     <use style="fill:#ffa500;stroke:#ffa500;" x="217.303923" xlink:href="#C0_0_f2587686a0" y="297.137195"/>
    </g>
    <g clip-path="url(#pbc73ae5261)">
     <use style="fill:#87ceeb;stroke:#87ceeb;" x="155.86546" xlink:href="#C0_0_f2587686a0" y="298.207705"/>
    </g>
    <g clip-path="url(#pbc73ae5261)">
     <use style="fill:#d3d3d3;stroke:#d3d3d3;" x="163.693567" xlink:href="#C0_0_f2587686a0" y="301.461762"/>
    </g>
    <g clip-path="url(#pbc73ae5261)">
     <use style="fill:#d3d3d3;stroke:#d3d3d3;" x="193.432848" xlink:href="#C0_0_f2587686a0" y="305.351503"/>
    </g>
    <g clip-path="url(#pbc73ae5261)">
     <use style="fill:#87ceeb;stroke:#87ceeb;" x="97.208776" xlink:href="#C0_0_f2587686a0" y="240.898056"/>
    </g>
    <g clip-path="url(#pbc73ae5261)">
     <use style="fill:#ffa500;stroke:#ffa500;" x="275.314382" xlink:href="#C0_0_f2587686a0" y="238.273023"/>
    </g>
    <g clip-path="url(#pbc73ae5261)">
     <use style="fill:#d3d3d3;stroke:#d3d3d3;" x="358.141545" xlink:href="#C0_0_f2587686a0" y="306.651875"/>
    </g>
    <g clip-path="url(#pbc73ae5261)">
     <use style="fill:#ffa500;stroke:#ffa500;" x="214.098482" xlink:href="#C0_0_f2587686a0" y="300.007086"/>
    </g>
    <g clip-path="url(#pbc73ae5261)">
     <use style="fill:#87ceeb;stroke:#87ceeb;" x="155.781471" xlink:href="#C0_0_f2587686a0" y="298.601647"/>
    </g>
    <g clip-path="url(#pbc73ae5261)">
     <use style="fill:#d3d3d3;stroke:#d3d3d3;" x="203.57908" xlink:href="#C0_0_f2587686a0" y="303.310152"/>
    </g>
    <g clip-path="url(#pbc73ae5261)">
     <use style="fill:#d3d3d3;stroke:#d3d3d3;" x="198.319467" xlink:href="#C0_0_f2587686a0" y="304.562986"/>
    </g>
    <g clip-path="url(#pbc73ae5261)">
     <use style="fill:#d3d3d3;stroke:#d3d3d3;" x="189.560801" xlink:href="#C0_0_f2587686a0" y="306.129828"/>
    </g>
    <g clip-path="url(#pbc73ae5261)">
     <use style="fill:#87ceeb;stroke:#87ceeb;" x="145.521791" xlink:href="#C0_0_f2587686a0" y="294.993436"/>
    </g>
    <g clip-path="url(#pbc73ae5261)">
     <use style="fill:#87ceeb;stroke:#87ceeb;" x="156.408393" xlink:href="#C0_0_f2587686a0" y="299.779332"/>
    </g>
    <g clip-path="url(#pbc73ae5261)">
     <use style="fill:#d3d3d3;stroke:#d3d3d3;" x="168.46887" xlink:href="#C0_0_f2587686a0" y="303.593097"/>
    </g>
    <g clip-path="url(#pbc73ae5261)">
     <use style="fill:#d3d3d3;stroke:#d3d3d3;" x="192.77013" xlink:href="#C0_0_f2587686a0" y="305.629877"/>
    </g>
    <g clip-path="url(#pbc73ae5261)">
     <use style="fill:#ffa500;stroke:#ffa500;" x="214.098482" xlink:href="#C0_0_f2587686a0" y="300.007086"/>
    </g>
    <g clip-path="url(#pbc73ae5261)">
     <use style="fill:#d3d3d3;stroke:#d3d3d3;" x="358.141545" xlink:href="#C0_0_f2587686a0" y="306.651875"/>
    </g>
    <g clip-path="url(#pbc73ae5261)">
     <use style="fill:#d3d3d3;stroke:#d3d3d3;" x="167.767469" xlink:href="#C0_0_f2587686a0" y="303.529606"/>
    </g>
    <g clip-path="url(#pbc73ae5261)">
     <use style="fill:#d3d3d3;stroke:#d3d3d3;" x="162.653419" xlink:href="#C0_0_f2587686a0" y="301.307029"/>
    </g>
    <g clip-path="url(#pbc73ae5261)">
     <use style="fill:#d3d3d3;stroke:#d3d3d3;" x="187.022583" xlink:href="#C0_0_f2587686a0" y="306.451704"/>
    </g>
    <g clip-path="url(#pbc73ae5261)">
     <use style="fill:#d3d3d3;stroke:#d3d3d3;" x="191.525149" xlink:href="#C0_0_f2587686a0" y="305.747606"/>
    </g>
    <g clip-path="url(#pbc73ae5261)">
     <use style="fill:#d3d3d3;stroke:#d3d3d3;" x="192.064736" xlink:href="#C0_0_f2587686a0" y="305.650536"/>
    </g>
    <g clip-path="url(#pbc73ae5261)">
     <use style="fill:#d3d3d3;stroke:#d3d3d3;" x="163.19108" xlink:href="#C0_0_f2587686a0" y="301.4803"/>
    </g>
    <g clip-path="url(#pbc73ae5261)">
     <use style="fill:#ffa500;stroke:#ffa500;" x="217.867849" xlink:href="#C0_0_f2587686a0" y="297.289503"/>
    </g>
    <g clip-path="url(#pbc73ae5261)">
     <use style="fill:#87ceeb;stroke:#87ceeb;" x="155.18684" xlink:href="#C0_0_f2587686a0" y="298.239643"/>
    </g>
    <g clip-path="url(#pbc73ae5261)">
     <use style="fill:#87ceeb;stroke:#87ceeb;" x="155.781471" xlink:href="#C0_0_f2587686a0" y="298.601647"/>
    </g>
    <g clip-path="url(#pbc73ae5261)">
     <use style="fill:#d3d3d3;stroke:#d3d3d3;" x="167.767469" xlink:href="#C0_0_f2587686a0" y="303.529606"/>
    </g>
    <g clip-path="url(#pbc73ae5261)">
     <use style="fill:#d3d3d3;stroke:#d3d3d3;" x="358.141545" xlink:href="#C0_0_f2587686a0" y="306.651875"/>
    </g>
   </g>
   <g id="matplotlib.axis_1">
    <g id="xtick_1">
     <g id="line2d_1">
      <defs>
       <path d="M 0 0 
L 0 3.5 
" id="me3af49a02c" style="stroke:#000000;stroke-width:0.8;"/>
      </defs>
      <g>
       <use style="stroke:#000000;stroke-width:0.8;" x="55.98032" xlink:href="#me3af49a02c" y="317.72"/>
      </g>
     </g>
     <g id="text_1">
      <!-- −0.75 -->
      <defs>
       <path d="M 10.59375 35.5 
L 73.1875 35.5 
L 73.1875 27.203125 
L 10.59375 27.203125 
z
" id="DejaVuSans-8722"/>
       <path d="M 31.78125 66.40625 
Q 24.171875 66.40625 20.328125 58.90625 
Q 16.5 51.421875 16.5 36.375 
Q 16.5 21.390625 20.328125 13.890625 
Q 24.171875 6.390625 31.78125 6.390625 
Q 39.453125 6.390625 43.28125 13.890625 
Q 47.125 21.390625 47.125 36.375 
Q 47.125 51.421875 43.28125 58.90625 
Q 39.453125 66.40625 31.78125 66.40625 
z
M 31.78125 74.21875 
Q 44.046875 74.21875 50.515625 64.515625 
Q 56.984375 54.828125 56.984375 36.375 
Q 56.984375 17.96875 50.515625 8.265625 
Q 44.046875 -1.421875 31.78125 -1.421875 
Q 19.53125 -1.421875 13.0625 8.265625 
Q 6.59375 17.96875 6.59375 36.375 
Q 6.59375 54.828125 13.0625 64.515625 
Q 19.53125 74.21875 31.78125 74.21875 
z
" id="DejaVuSans-48"/>
       <path d="M 10.6875 12.40625 
L 21 12.40625 
L 21 0 
L 10.6875 0 
z
" id="DejaVuSans-46"/>
       <path d="M 8.203125 72.90625 
L 55.078125 72.90625 
L 55.078125 68.703125 
L 28.609375 0 
L 18.3125 0 
L 43.21875 64.59375 
L 8.203125 64.59375 
z
" id="DejaVuSans-55"/>
       <path d="M 10.796875 72.90625 
L 49.515625 72.90625 
L 49.515625 64.59375 
L 19.828125 64.59375 
L 19.828125 46.734375 
Q 21.96875 47.46875 24.109375 47.828125 
Q 26.265625 48.1875 28.421875 48.1875 
Q 40.625 48.1875 47.75 41.5 
Q 54.890625 34.8125 54.890625 23.390625 
Q 54.890625 11.625 47.5625 5.09375 
Q 40.234375 -1.421875 26.90625 -1.421875 
Q 22.3125 -1.421875 17.546875 -0.640625 
Q 12.796875 0.140625 7.71875 1.703125 
L 7.71875 11.625 
Q 12.109375 9.234375 16.796875 8.0625 
Q 21.484375 6.890625 26.703125 6.890625 
Q 35.15625 6.890625 40.078125 11.328125 
Q 45.015625 15.765625 45.015625 23.390625 
Q 45.015625 31 40.078125 35.4375 
Q 35.15625 39.890625 26.703125 39.890625 
Q 22.75 39.890625 18.8125 39.015625 
Q 14.890625 38.140625 10.796875 36.28125 
z
" id="DejaVuSans-53"/>
      </defs>
      <g transform="translate(40.657664 332.318437)scale(0.1 -0.1)">
       <use xlink:href="#DejaVuSans-8722"/>
       <use x="83.789062" xlink:href="#DejaVuSans-48"/>
       <use x="147.412109" xlink:href="#DejaVuSans-46"/>
       <use x="179.199219" xlink:href="#DejaVuSans-55"/>
       <use x="242.822266" xlink:href="#DejaVuSans-53"/>
      </g>
     </g>
    </g>
    <g id="xtick_2">
     <g id="line2d_2">
      <g>
       <use style="stroke:#000000;stroke-width:0.8;" x="99.146209" xlink:href="#me3af49a02c" y="317.72"/>
      </g>
     </g>
     <g id="text_2">
      <!-- −0.50 -->
      <g transform="translate(83.823553 332.318437)scale(0.1 -0.1)">
       <use xlink:href="#DejaVuSans-8722"/>
       <use x="83.789062" xlink:href="#DejaVuSans-48"/>
       <use x="147.412109" xlink:href="#DejaVuSans-46"/>
       <use x="179.199219" xlink:href="#DejaVuSans-53"/>
       <use x="242.822266" xlink:href="#DejaVuSans-48"/>
      </g>
     </g>
    </g>
    <g id="xtick_3">
     <g id="line2d_3">
      <g>
       <use style="stroke:#000000;stroke-width:0.8;" x="142.312099" xlink:href="#me3af49a02c" y="317.72"/>
      </g>
     </g>
     <g id="text_3">
      <!-- −0.25 -->
      <defs>
       <path d="M 19.1875 8.296875 
L 53.609375 8.296875 
L 53.609375 0 
L 7.328125 0 
L 7.328125 8.296875 
Q 12.9375 14.109375 22.625 23.890625 
Q 32.328125 33.6875 34.8125 36.53125 
Q 39.546875 41.84375 41.421875 45.53125 
Q 43.3125 49.21875 43.3125 52.78125 
Q 43.3125 58.59375 39.234375 62.25 
Q 35.15625 65.921875 28.609375 65.921875 
Q 23.96875 65.921875 18.8125 64.3125 
Q 13.671875 62.703125 7.8125 59.421875 
L 7.8125 69.390625 
Q 13.765625 71.78125 18.9375 73 
Q 24.125 74.21875 28.421875 74.21875 
Q 39.75 74.21875 46.484375 68.546875 
Q 53.21875 62.890625 53.21875 53.421875 
Q 53.21875 48.921875 51.53125 44.890625 
Q 49.859375 40.875 45.40625 35.40625 
Q 44.1875 33.984375 37.640625 27.21875 
Q 31.109375 20.453125 19.1875 8.296875 
z
" id="DejaVuSans-50"/>
      </defs>
      <g transform="translate(126.989442 332.318437)scale(0.1 -0.1)">
       <use xlink:href="#DejaVuSans-8722"/>
       <use x="83.789062" xlink:href="#DejaVuSans-48"/>
       <use x="147.412109" xlink:href="#DejaVuSans-46"/>
       <use x="179.199219" xlink:href="#DejaVuSans-50"/>
       <use x="242.822266" xlink:href="#DejaVuSans-53"/>
      </g>
     </g>
    </g>
    <g id="xtick_4">
     <g id="line2d_4">
      <g>
       <use style="stroke:#000000;stroke-width:0.8;" x="185.477988" xlink:href="#me3af49a02c" y="317.72"/>
      </g>
     </g>
     <g id="text_4">
      <!-- 0.00 -->
      <g transform="translate(174.345176 332.318437)scale(0.1 -0.1)">
       <use xlink:href="#DejaVuSans-48"/>
       <use x="63.623047" xlink:href="#DejaVuSans-46"/>
       <use x="95.410156" xlink:href="#DejaVuSans-48"/>
       <use x="159.033203" xlink:href="#DejaVuSans-48"/>
      </g>
     </g>
    </g>
    <g id="xtick_5">
     <g id="line2d_5">
      <g>
       <use style="stroke:#000000;stroke-width:0.8;" x="228.643877" xlink:href="#me3af49a02c" y="317.72"/>
      </g>
     </g>
     <g id="text_5">
      <!-- 0.25 -->
      <g transform="translate(217.511065 332.318437)scale(0.1 -0.1)">
       <use xlink:href="#DejaVuSans-48"/>
       <use x="63.623047" xlink:href="#DejaVuSans-46"/>
       <use x="95.410156" xlink:href="#DejaVuSans-50"/>
       <use x="159.033203" xlink:href="#DejaVuSans-53"/>
      </g>
     </g>
    </g>
    <g id="xtick_6">
     <g id="line2d_6">
      <g>
       <use style="stroke:#000000;stroke-width:0.8;" x="271.809767" xlink:href="#me3af49a02c" y="317.72"/>
      </g>
     </g>
     <g id="text_6">
      <!-- 0.50 -->
      <g transform="translate(260.676954 332.318437)scale(0.1 -0.1)">
       <use xlink:href="#DejaVuSans-48"/>
       <use x="63.623047" xlink:href="#DejaVuSans-46"/>
       <use x="95.410156" xlink:href="#DejaVuSans-53"/>
       <use x="159.033203" xlink:href="#DejaVuSans-48"/>
      </g>
     </g>
    </g>
    <g id="xtick_7">
     <g id="line2d_7">
      <g>
       <use style="stroke:#000000;stroke-width:0.8;" x="314.975656" xlink:href="#me3af49a02c" y="317.72"/>
      </g>
     </g>
     <g id="text_7">
      <!-- 0.75 -->
      <g transform="translate(303.842844 332.318437)scale(0.1 -0.1)">
       <use xlink:href="#DejaVuSans-48"/>
       <use x="63.623047" xlink:href="#DejaVuSans-46"/>
       <use x="95.410156" xlink:href="#DejaVuSans-55"/>
       <use x="159.033203" xlink:href="#DejaVuSans-53"/>
      </g>
     </g>
    </g>
    <g id="xtick_8">
     <g id="line2d_8">
      <g>
       <use style="stroke:#000000;stroke-width:0.8;" x="358.141545" xlink:href="#me3af49a02c" y="317.72"/>
      </g>
     </g>
     <g id="text_8">
      <!-- 1.00 -->
      <defs>
       <path d="M 12.40625 8.296875 
L 28.515625 8.296875 
L 28.515625 63.921875 
L 10.984375 60.40625 
L 10.984375 69.390625 
L 28.421875 72.90625 
L 38.28125 72.90625 
L 38.28125 8.296875 
L 54.390625 8.296875 
L 54.390625 0 
L 12.40625 0 
z
" id="DejaVuSans-49"/>
      </defs>
      <g transform="translate(347.008733 332.318437)scale(0.1 -0.1)">
       <use xlink:href="#DejaVuSans-49"/>
       <use x="63.623047" xlink:href="#DejaVuSans-46"/>
       <use x="95.410156" xlink:href="#DejaVuSans-48"/>
       <use x="159.033203" xlink:href="#DejaVuSans-48"/>
      </g>
     </g>
    </g>
    <g id="text_9">
     <!-- Log Fold Change -->
     <defs>
      <path d="M 9.8125 72.90625 
L 19.671875 72.90625 
L 19.671875 8.296875 
L 55.171875 8.296875 
L 55.171875 0 
L 9.8125 0 
z
" id="DejaVuSans-76"/>
      <path d="M 30.609375 48.390625 
Q 23.390625 48.390625 19.1875 42.75 
Q 14.984375 37.109375 14.984375 27.296875 
Q 14.984375 17.484375 19.15625 11.84375 
Q 23.34375 6.203125 30.609375 6.203125 
Q 37.796875 6.203125 41.984375 11.859375 
Q 46.1875 17.53125 46.1875 27.296875 
Q 46.1875 37.015625 41.984375 42.703125 
Q 37.796875 48.390625 30.609375 48.390625 
z
M 30.609375 56 
Q 42.328125 56 49.015625 48.375 
Q 55.71875 40.765625 55.71875 27.296875 
Q 55.71875 13.875 49.015625 6.21875 
Q 42.328125 -1.421875 30.609375 -1.421875 
Q 18.84375 -1.421875 12.171875 6.21875 
Q 5.515625 13.875 5.515625 27.296875 
Q 5.515625 40.765625 12.171875 48.375 
Q 18.84375 56 30.609375 56 
z
" id="DejaVuSans-111"/>
      <path d="M 45.40625 27.984375 
Q 45.40625 37.75 41.375 43.109375 
Q 37.359375 48.484375 30.078125 48.484375 
Q 22.859375 48.484375 18.828125 43.109375 
Q 14.796875 37.75 14.796875 27.984375 
Q 14.796875 18.265625 18.828125 12.890625 
Q 22.859375 7.515625 30.078125 7.515625 
Q 37.359375 7.515625 41.375 12.890625 
Q 45.40625 18.265625 45.40625 27.984375 
z
M 54.390625 6.78125 
Q 54.390625 -7.171875 48.1875 -13.984375 
Q 42 -20.796875 29.203125 -20.796875 
Q 24.46875 -20.796875 20.265625 -20.09375 
Q 16.0625 -19.390625 12.109375 -17.921875 
L 12.109375 -9.1875 
Q 16.0625 -11.328125 19.921875 -12.34375 
Q 23.78125 -13.375 27.78125 -13.375 
Q 36.625 -13.375 41.015625 -8.765625 
Q 45.40625 -4.15625 45.40625 5.171875 
L 45.40625 9.625 
Q 42.625 4.78125 38.28125 2.390625 
Q 33.9375 0 27.875 0 
Q 17.828125 0 11.671875 7.65625 
Q 5.515625 15.328125 5.515625 27.984375 
Q 5.515625 40.671875 11.671875 48.328125 
Q 17.828125 56 27.875 56 
Q 33.9375 56 38.28125 53.609375 
Q 42.625 51.21875 45.40625 46.390625 
L 45.40625 54.6875 
L 54.390625 54.6875 
z
" id="DejaVuSans-103"/>
      <path id="DejaVuSans-32"/>
      <path d="M 9.8125 72.90625 
L 51.703125 72.90625 
L 51.703125 64.59375 
L 19.671875 64.59375 
L 19.671875 43.109375 
L 48.578125 43.109375 
L 48.578125 34.8125 
L 19.671875 34.8125 
L 19.671875 0 
L 9.8125 0 
z
" id="DejaVuSans-70"/>
      <path d="M 9.421875 75.984375 
L 18.40625 75.984375 
L 18.40625 0 
L 9.421875 0 
z
" id="DejaVuSans-108"/>
      <path d="M 45.40625 46.390625 
L 45.40625 75.984375 
L 54.390625 75.984375 
L 54.390625 0 
L 45.40625 0 
L 45.40625 8.203125 
Q 42.578125 3.328125 38.25 0.953125 
Q 33.9375 -1.421875 27.875 -1.421875 
Q 17.96875 -1.421875 11.734375 6.484375 
Q 5.515625 14.40625 5.515625 27.296875 
Q 5.515625 40.1875 11.734375 48.09375 
Q 17.96875 56 27.875 56 
Q 33.9375 56 38.25 53.625 
Q 42.578125 51.265625 45.40625 46.390625 
z
M 14.796875 27.296875 
Q 14.796875 17.390625 18.875 11.75 
Q 22.953125 6.109375 30.078125 6.109375 
Q 37.203125 6.109375 41.296875 11.75 
Q 45.40625 17.390625 45.40625 27.296875 
Q 45.40625 37.203125 41.296875 42.84375 
Q 37.203125 48.484375 30.078125 48.484375 
Q 22.953125 48.484375 18.875 42.84375 
Q 14.796875 37.203125 14.796875 27.296875 
z
" id="DejaVuSans-100"/>
      <path d="M 64.40625 67.28125 
L 64.40625 56.890625 
Q 59.421875 61.53125 53.78125 63.8125 
Q 48.140625 66.109375 41.796875 66.109375 
Q 29.296875 66.109375 22.65625 58.46875 
Q 16.015625 50.828125 16.015625 36.375 
Q 16.015625 21.96875 22.65625 14.328125 
Q 29.296875 6.6875 41.796875 6.6875 
Q 48.140625 6.6875 53.78125 8.984375 
Q 59.421875 11.28125 64.40625 15.921875 
L 64.40625 5.609375 
Q 59.234375 2.09375 53.4375 0.328125 
Q 47.65625 -1.421875 41.21875 -1.421875 
Q 24.65625 -1.421875 15.125 8.703125 
Q 5.609375 18.84375 5.609375 36.375 
Q 5.609375 53.953125 15.125 64.078125 
Q 24.65625 74.21875 41.21875 74.21875 
Q 47.75 74.21875 53.53125 72.484375 
Q 59.328125 70.75 64.40625 67.28125 
z
" id="DejaVuSans-67"/>
      <path d="M 54.890625 33.015625 
L 54.890625 0 
L 45.90625 0 
L 45.90625 32.71875 
Q 45.90625 40.484375 42.875 44.328125 
Q 39.84375 48.1875 33.796875 48.1875 
Q 26.515625 48.1875 22.3125 43.546875 
Q 18.109375 38.921875 18.109375 30.90625 
L 18.109375 0 
L 9.078125 0 
L 9.078125 75.984375 
L 18.109375 75.984375 
L 18.109375 46.1875 
Q 21.34375 51.125 25.703125 53.5625 
Q 30.078125 56 35.796875 56 
Q 45.21875 56 50.046875 50.171875 
Q 54.890625 44.34375 54.890625 33.015625 
z
" id="DejaVuSans-104"/>
      <path d="M 34.28125 27.484375 
Q 23.390625 27.484375 19.1875 25 
Q 14.984375 22.515625 14.984375 16.5 
Q 14.984375 11.71875 18.140625 8.90625 
Q 21.296875 6.109375 26.703125 6.109375 
Q 34.1875 6.109375 38.703125 11.40625 
Q 43.21875 16.703125 43.21875 25.484375 
L 43.21875 27.484375 
z
M 52.203125 31.203125 
L 52.203125 0 
L 43.21875 0 
L 43.21875 8.296875 
Q 40.140625 3.328125 35.546875 0.953125 
Q 30.953125 -1.421875 24.3125 -1.421875 
Q 15.921875 -1.421875 10.953125 3.296875 
Q 6 8.015625 6 15.921875 
Q 6 25.140625 12.171875 29.828125 
Q 18.359375 34.515625 30.609375 34.515625 
L 43.21875 34.515625 
L 43.21875 35.40625 
Q 43.21875 41.609375 39.140625 45 
Q 35.0625 48.390625 27.6875 48.390625 
Q 23 48.390625 18.546875 47.265625 
Q 14.109375 46.140625 10.015625 43.890625 
L 10.015625 52.203125 
Q 14.9375 54.109375 19.578125 55.046875 
Q 24.21875 56 28.609375 56 
Q 40.484375 56 46.34375 49.84375 
Q 52.203125 43.703125 52.203125 31.203125 
z
" id="DejaVuSans-97"/>
      <path d="M 54.890625 33.015625 
L 54.890625 0 
L 45.90625 0 
L 45.90625 32.71875 
Q 45.90625 40.484375 42.875 44.328125 
Q 39.84375 48.1875 33.796875 48.1875 
Q 26.515625 48.1875 22.3125 43.546875 
Q 18.109375 38.921875 18.109375 30.90625 
L 18.109375 0 
L 9.078125 0 
L 9.078125 54.6875 
L 18.109375 54.6875 
L 18.109375 46.1875 
Q 21.34375 51.125 25.703125 53.5625 
Q 30.078125 56 35.796875 56 
Q 45.21875 56 50.046875 50.171875 
Q 54.890625 44.34375 54.890625 33.015625 
z
" id="DejaVuSans-110"/>
      <path d="M 56.203125 29.59375 
L 56.203125 25.203125 
L 14.890625 25.203125 
Q 15.484375 15.921875 20.484375 11.0625 
Q 25.484375 6.203125 34.421875 6.203125 
Q 39.59375 6.203125 44.453125 7.46875 
Q 49.3125 8.734375 54.109375 11.28125 
L 54.109375 2.78125 
Q 49.265625 0.734375 44.1875 -0.34375 
Q 39.109375 -1.421875 33.890625 -1.421875 
Q 20.796875 -1.421875 13.15625 6.1875 
Q 5.515625 13.8125 5.515625 26.8125 
Q 5.515625 40.234375 12.765625 48.109375 
Q 20.015625 56 32.328125 56 
Q 43.359375 56 49.78125 48.890625 
Q 56.203125 41.796875 56.203125 29.59375 
z
M 47.21875 32.234375 
Q 47.125 39.59375 43.09375 43.984375 
Q 39.0625 48.390625 32.421875 48.390625 
Q 24.90625 48.390625 20.390625 44.140625 
Q 15.875 39.890625 15.1875 32.171875 
z
" id="DejaVuSans-101"/>
     </defs>
     <g transform="translate(160.545906 345.996562)scale(0.1 -0.1)">
      <use xlink:href="#DejaVuSans-76"/>
      <use x="53.962891" xlink:href="#DejaVuSans-111"/>
      <use x="115.144531" xlink:href="#DejaVuSans-103"/>
      <use x="178.621094" xlink:href="#DejaVuSans-32"/>
      <use x="210.408203" xlink:href="#DejaVuSans-70"/>
      <use x="264.302734" xlink:href="#DejaVuSans-111"/>
      <use x="325.484375" xlink:href="#DejaVuSans-108"/>
      <use x="353.267578" xlink:href="#DejaVuSans-100"/>
      <use x="416.744141" xlink:href="#DejaVuSans-32"/>
      <use x="448.53125" xlink:href="#DejaVuSans-67"/>
      <use x="518.355469" xlink:href="#DejaVuSans-104"/>
      <use x="581.734375" xlink:href="#DejaVuSans-97"/>
      <use x="643.013672" xlink:href="#DejaVuSans-110"/>
      <use x="706.392578" xlink:href="#DejaVuSans-103"/>
      <use x="769.869141" xlink:href="#DejaVuSans-101"/>
     </g>
    </g>
   </g>
   <g id="matplotlib.axis_2">
    <g id="ytick_1">
     <g id="line2d_9">
      <defs>
       <path d="M 0 0 
L -3.5 0 
" id="m0294b86c65" style="stroke:#000000;stroke-width:0.8;"/>
      </defs>
      <g>
       <use style="stroke:#000000;stroke-width:0.8;" x="30.49" xlink:href="#m0294b86c65" y="306.651875"/>
      </g>
     </g>
     <g id="text_10">
      <!-- 0 -->
      <g transform="translate(17.1275 310.451094)scale(0.1 -0.1)">
       <use xlink:href="#DejaVuSans-48"/>
      </g>
     </g>
    </g>
    <g id="ytick_2">
     <g id="line2d_10">
      <g>
       <use style="stroke:#000000;stroke-width:0.8;" x="30.49" xlink:href="#m0294b86c65" y="264.47156"/>
      </g>
     </g>
     <g id="text_11">
      <!-- 10 -->
      <g transform="translate(10.765 268.270779)scale(0.1 -0.1)">
       <use xlink:href="#DejaVuSans-49"/>
       <use x="63.623047" xlink:href="#DejaVuSans-48"/>
      </g>
     </g>
    </g>
    <g id="ytick_3">
     <g id="line2d_11">
      <g>
       <use style="stroke:#000000;stroke-width:0.8;" x="30.49" xlink:href="#m0294b86c65" y="222.291246"/>
      </g>
     </g>
     <g id="text_12">
      <!-- 20 -->
      <g transform="translate(10.765 226.090465)scale(0.1 -0.1)">
       <use xlink:href="#DejaVuSans-50"/>
       <use x="63.623047" xlink:href="#DejaVuSans-48"/>
      </g>
     </g>
    </g>
    <g id="ytick_4">
     <g id="line2d_12">
      <g>
       <use style="stroke:#000000;stroke-width:0.8;" x="30.49" xlink:href="#m0294b86c65" y="180.110931"/>
      </g>
     </g>
     <g id="text_13">
      <!-- 30 -->
      <defs>
       <path d="M 40.578125 39.3125 
Q 47.65625 37.796875 51.625 33 
Q 55.609375 28.21875 55.609375 21.1875 
Q 55.609375 10.40625 48.1875 4.484375 
Q 40.765625 -1.421875 27.09375 -1.421875 
Q 22.515625 -1.421875 17.65625 -0.515625 
Q 12.796875 0.390625 7.625 2.203125 
L 7.625 11.71875 
Q 11.71875 9.328125 16.59375 8.109375 
Q 21.484375 6.890625 26.8125 6.890625 
Q 36.078125 6.890625 40.9375 10.546875 
Q 45.796875 14.203125 45.796875 21.1875 
Q 45.796875 27.640625 41.28125 31.265625 
Q 36.765625 34.90625 28.71875 34.90625 
L 20.21875 34.90625 
L 20.21875 43.015625 
L 29.109375 43.015625 
Q 36.375 43.015625 40.234375 45.921875 
Q 44.09375 48.828125 44.09375 54.296875 
Q 44.09375 59.90625 40.109375 62.90625 
Q 36.140625 65.921875 28.71875 65.921875 
Q 24.65625 65.921875 20.015625 65.03125 
Q 15.375 64.15625 9.8125 62.3125 
L 9.8125 71.09375 
Q 15.4375 72.65625 20.34375 73.4375 
Q 25.25 74.21875 29.59375 74.21875 
Q 40.828125 74.21875 47.359375 69.109375 
Q 53.90625 64.015625 53.90625 55.328125 
Q 53.90625 49.265625 50.4375 45.09375 
Q 46.96875 40.921875 40.578125 39.3125 
z
" id="DejaVuSans-51"/>
      </defs>
      <g transform="translate(10.765 183.91015)scale(0.1 -0.1)">
       <use xlink:href="#DejaVuSans-51"/>
       <use x="63.623047" xlink:href="#DejaVuSans-48"/>
      </g>
     </g>
    </g>
    <g id="ytick_5">
     <g id="line2d_13">
      <g>
       <use style="stroke:#000000;stroke-width:0.8;" x="30.49" xlink:href="#m0294b86c65" y="137.930617"/>
      </g>
     </g>
     <g id="text_14">
      <!-- 40 -->
      <defs>
       <path d="M 37.796875 64.3125 
L 12.890625 25.390625 
L 37.796875 25.390625 
z
M 35.203125 72.90625 
L 47.609375 72.90625 
L 47.609375 25.390625 
L 58.015625 25.390625 
L 58.015625 17.1875 
L 47.609375 17.1875 
L 47.609375 0 
L 37.796875 0 
L 37.796875 17.1875 
L 4.890625 17.1875 
L 4.890625 26.703125 
z
" id="DejaVuSans-52"/>
      </defs>
      <g transform="translate(10.765 141.729836)scale(0.1 -0.1)">
       <use xlink:href="#DejaVuSans-52"/>
       <use x="63.623047" xlink:href="#DejaVuSans-48"/>
      </g>
     </g>
    </g>
    <g id="ytick_6">
     <g id="line2d_14">
      <g>
       <use style="stroke:#000000;stroke-width:0.8;" x="30.49" xlink:href="#m0294b86c65" y="95.750302"/>
      </g>
     </g>
     <g id="text_15">
      <!-- 50 -->
      <g transform="translate(10.765 99.549521)scale(0.1 -0.1)">
       <use xlink:href="#DejaVuSans-53"/>
       <use x="63.623047" xlink:href="#DejaVuSans-48"/>
      </g>
     </g>
    </g>
    <g id="text_16">
     <!-- -log10(P-value) -->
     <defs>
      <path d="M 4.890625 31.390625 
L 31.203125 31.390625 
L 31.203125 23.390625 
L 4.890625 23.390625 
z
" id="DejaVuSans-45"/>
      <path d="M 31 75.875 
Q 24.46875 64.65625 21.28125 53.65625 
Q 18.109375 42.671875 18.109375 31.390625 
Q 18.109375 20.125 21.3125 9.0625 
Q 24.515625 -2 31 -13.1875 
L 23.1875 -13.1875 
Q 15.875 -1.703125 12.234375 9.375 
Q 8.59375 20.453125 8.59375 31.390625 
Q 8.59375 42.28125 12.203125 53.3125 
Q 15.828125 64.359375 23.1875 75.875 
z
" id="DejaVuSans-40"/>
      <path d="M 19.671875 64.796875 
L 19.671875 37.40625 
L 32.078125 37.40625 
Q 38.96875 37.40625 42.71875 40.96875 
Q 46.484375 44.53125 46.484375 51.125 
Q 46.484375 57.671875 42.71875 61.234375 
Q 38.96875 64.796875 32.078125 64.796875 
z
M 9.8125 72.90625 
L 32.078125 72.90625 
Q 44.34375 72.90625 50.609375 67.359375 
Q 56.890625 61.8125 56.890625 51.125 
Q 56.890625 40.328125 50.609375 34.8125 
Q 44.34375 29.296875 32.078125 29.296875 
L 19.671875 29.296875 
L 19.671875 0 
L 9.8125 0 
z
" id="DejaVuSans-80"/>
      <path d="M 2.984375 54.6875 
L 12.5 54.6875 
L 29.59375 8.796875 
L 46.6875 54.6875 
L 56.203125 54.6875 
L 35.6875 0 
L 23.484375 0 
z
" id="DejaVuSans-118"/>
      <path d="M 8.5 21.578125 
L 8.5 54.6875 
L 17.484375 54.6875 
L 17.484375 21.921875 
Q 17.484375 14.15625 20.5 10.265625 
Q 23.53125 6.390625 29.59375 6.390625 
Q 36.859375 6.390625 41.078125 11.03125 
Q 45.3125 15.671875 45.3125 23.6875 
L 45.3125 54.6875 
L 54.296875 54.6875 
L 54.296875 0 
L 45.3125 0 
L 45.3125 8.40625 
Q 42.046875 3.421875 37.71875 1 
Q 33.40625 -1.421875 27.6875 -1.421875 
Q 18.265625 -1.421875 13.375 4.4375 
Q 8.5 10.296875 8.5 21.578125 
z
M 31.109375 56 
z
" id="DejaVuSans-117"/>
      <path d="M 8.015625 75.875 
L 15.828125 75.875 
Q 23.140625 64.359375 26.78125 53.3125 
Q 30.421875 42.28125 30.421875 31.390625 
Q 30.421875 20.453125 26.78125 9.375 
Q 23.140625 -1.703125 15.828125 -13.1875 
L 8.015625 -13.1875 
Q 14.5 -2 17.703125 9.0625 
Q 20.90625 20.125 20.90625 31.390625 
Q 20.90625 42.671875 17.703125 53.65625 
Q 14.5 64.65625 8.015625 75.875 
z
" id="DejaVuSans-41"/>
     </defs>
     <g transform="translate(4.685312 233.894062)rotate(-90)scale(0.1 -0.1)">
      <use xlink:href="#DejaVuSans-45"/>
      <use x="36.083984" xlink:href="#DejaVuSans-108"/>
      <use x="63.867188" xlink:href="#DejaVuSans-111"/>
      <use x="125.048828" xlink:href="#DejaVuSans-103"/>
      <use x="188.525391" xlink:href="#DejaVuSans-49"/>
      <use x="252.148438" xlink:href="#DejaVuSans-48"/>
      <use x="315.771484" xlink:href="#DejaVuSans-40"/>
      <use x="354.785156" xlink:href="#DejaVuSans-80"/>
      <use x="412.837891" xlink:href="#DejaVuSans-45"/>
      <use x="446.296875" xlink:href="#DejaVuSans-118"/>
      <use x="505.476562" xlink:href="#DejaVuSans-97"/>
      <use x="566.755859" xlink:href="#DejaVuSans-108"/>
      <use x="594.539062" xlink:href="#DejaVuSans-117"/>
      <use x="657.917969" xlink:href="#DejaVuSans-101"/>
      <use x="719.441406" xlink:href="#DejaVuSans-41"/>
     </g>
    </g>
   </g>
   <g id="patch_3">
    <path d="M 30.49 317.72 
L 30.49 74.22125 
" style="fill:none;stroke:#000000;stroke-linecap:square;stroke-linejoin:miter;stroke-width:0.8;"/>
   </g>
   <g id="patch_4">
    <path d="M 373.744 317.72 
L 373.744 74.22125 
" style="fill:none;stroke:#000000;stroke-linecap:square;stroke-linejoin:miter;stroke-width:0.8;"/>
   </g>
   <g id="patch_5">
    <path d="M 30.49 317.72 
L 373.744 317.72 
" style="fill:none;stroke:#000000;stroke-linecap:square;stroke-linejoin:miter;stroke-width:0.8;"/>
   </g>
   <g id="patch_6">
    <path d="M 30.49 74.22125 
L 373.744 74.22125 
" style="fill:none;stroke:#000000;stroke-linecap:square;stroke-linejoin:miter;stroke-width:0.8;"/>
   </g>
   <g id="text_17">
    <!-- sex -->
    <defs>
     <path d="M 44.28125 53.078125 
L 44.28125 44.578125 
Q 40.484375 46.53125 36.375 47.5 
Q 32.28125 48.484375 27.875 48.484375 
Q 21.1875 48.484375 17.84375 46.4375 
Q 14.5 44.390625 14.5 40.28125 
Q 14.5 37.15625 16.890625 35.375 
Q 19.28125 33.59375 26.515625 31.984375 
L 29.59375 31.296875 
Q 39.15625 29.25 43.1875 25.515625 
Q 47.21875 21.78125 47.21875 15.09375 
Q 47.21875 7.46875 41.1875 3.015625 
Q 35.15625 -1.421875 24.609375 -1.421875 
Q 20.21875 -1.421875 15.453125 -0.5625 
Q 10.6875 0.296875 5.421875 2 
L 5.421875 11.28125 
Q 10.40625 8.6875 15.234375 7.390625 
Q 20.0625 6.109375 24.8125 6.109375 
Q 31.15625 6.109375 34.5625 8.28125 
Q 37.984375 10.453125 37.984375 14.40625 
Q 37.984375 18.0625 35.515625 20.015625 
Q 33.0625 21.96875 24.703125 23.78125 
L 21.578125 24.515625 
Q 13.234375 26.265625 9.515625 29.90625 
Q 5.8125 33.546875 5.8125 39.890625 
Q 5.8125 47.609375 11.28125 51.796875 
Q 16.75 56 26.8125 56 
Q 31.78125 56 36.171875 55.265625 
Q 40.578125 54.546875 44.28125 53.078125 
z
" id="DejaVuSans-115"/>
     <path d="M 54.890625 54.6875 
L 35.109375 28.078125 
L 55.90625 0 
L 45.3125 0 
L 29.390625 21.484375 
L 13.484375 0 
L 2.875 0 
L 24.125 28.609375 
L 4.6875 54.6875 
L 15.28125 54.6875 
L 29.78125 35.203125 
L 44.28125 54.6875 
z
" id="DejaVuSans-120"/>
    </defs>
    <g transform="translate(143.735361 287.511981)scale(0.1 -0.1)">
     <use xlink:href="#DejaVuSans-115"/>
     <use x="52.099609" xlink:href="#DejaVuSans-101"/>
     <use x="111.873047" xlink:href="#DejaVuSans-120"/>
    </g>
   </g>
   <g id="text_18">
    <!-- ph.ecog -->
    <defs>
     <path d="M 18.109375 8.203125 
L 18.109375 -20.796875 
L 9.078125 -20.796875 
L 9.078125 54.6875 
L 18.109375 54.6875 
L 18.109375 46.390625 
Q 20.953125 51.265625 25.265625 53.625 
Q 29.59375 56 35.59375 56 
Q 45.5625 56 51.78125 48.09375 
Q 58.015625 40.1875 58.015625 27.296875 
Q 58.015625 14.40625 51.78125 6.484375 
Q 45.5625 -1.421875 35.59375 -1.421875 
Q 29.59375 -1.421875 25.265625 0.953125 
Q 20.953125 3.328125 18.109375 8.203125 
z
M 48.6875 27.296875 
Q 48.6875 37.203125 44.609375 42.84375 
Q 40.53125 48.484375 33.40625 48.484375 
Q 26.265625 48.484375 22.1875 42.84375 
Q 18.109375 37.203125 18.109375 27.296875 
Q 18.109375 17.390625 22.1875 11.75 
Q 26.265625 6.109375 33.40625 6.109375 
Q 40.53125 6.109375 44.609375 11.75 
Q 48.6875 17.390625 48.6875 27.296875 
z
" id="DejaVuSans-112"/>
     <path d="M 48.78125 52.59375 
L 48.78125 44.1875 
Q 44.96875 46.296875 41.140625 47.34375 
Q 37.3125 48.390625 33.40625 48.390625 
Q 24.65625 48.390625 19.8125 42.84375 
Q 14.984375 37.3125 14.984375 27.296875 
Q 14.984375 17.28125 19.8125 11.734375 
Q 24.65625 6.203125 33.40625 6.203125 
Q 37.3125 6.203125 41.140625 7.25 
Q 44.96875 8.296875 48.78125 10.40625 
L 48.78125 2.09375 
Q 45.015625 0.34375 40.984375 -0.53125 
Q 36.96875 -1.421875 32.421875 -1.421875 
Q 20.0625 -1.421875 12.78125 6.34375 
Q 5.515625 14.109375 5.515625 27.296875 
Q 5.515625 40.671875 12.859375 48.328125 
Q 20.21875 56 33.015625 56 
Q 37.15625 56 41.109375 55.140625 
Q 45.0625 54.296875 48.78125 52.59375 
z
" id="DejaVuSans-99"/>
    </defs>
    <g transform="translate(185.108799 288.753978)scale(0.1 -0.1)">
     <use xlink:href="#DejaVuSans-112"/>
     <use x="63.476562" xlink:href="#DejaVuSans-104"/>
     <use x="126.855469" xlink:href="#DejaVuSans-46"/>
     <use x="158.642578" xlink:href="#DejaVuSans-101"/>
     <use x="220.166016" xlink:href="#DejaVuSans-99"/>
     <use x="275.146484" xlink:href="#DejaVuSans-111"/>
     <use x="336.328125" xlink:href="#DejaVuSans-103"/>
    </g>
   </g>
   <g id="text_19">
    <!-- status -->
    <defs>
     <path d="M 18.3125 70.21875 
L 18.3125 54.6875 
L 36.8125 54.6875 
L 36.8125 47.703125 
L 18.3125 47.703125 
L 18.3125 18.015625 
Q 18.3125 11.328125 20.140625 9.421875 
Q 21.96875 7.515625 27.59375 7.515625 
L 36.8125 7.515625 
L 36.8125 0 
L 27.59375 0 
Q 17.1875 0 13.234375 3.875 
Q 9.28125 7.765625 9.28125 18.015625 
L 9.28125 47.703125 
L 2.6875 47.703125 
L 2.6875 54.6875 
L 9.28125 54.6875 
L 9.28125 70.21875 
z
" id="DejaVuSans-116"/>
    </defs>
    <g transform="translate(112.294861 300.214106)scale(0.1 -0.1)">
     <use xlink:href="#DejaVuSans-115"/>
     <use x="52.099609" xlink:href="#DejaVuSans-116"/>
     <use x="91.308594" xlink:href="#DejaVuSans-97"/>
     <use x="152.587891" xlink:href="#DejaVuSans-116"/>
     <use x="191.796875" xlink:href="#DejaVuSans-117"/>
     <use x="255.175781" xlink:href="#DejaVuSans-115"/>
    </g>
   </g>
   <g id="text_20">
    <!-- status -->
    <g transform="translate(226.151362 301.456103)scale(0.1 -0.1)">
     <use xlink:href="#DejaVuSans-115"/>
     <use x="52.099609" xlink:href="#DejaVuSans-116"/>
     <use x="91.308594" xlink:href="#DejaVuSans-97"/>
     <use x="152.587891" xlink:href="#DejaVuSans-116"/>
     <use x="191.796875" xlink:href="#DejaVuSans-117"/>
     <use x="255.175781" xlink:href="#DejaVuSans-115"/>
    </g>
   </g>
   <g id="text_21">
    <!-- ph.karno -->
    <defs>
     <path d="M 9.078125 75.984375 
L 18.109375 75.984375 
L 18.109375 31.109375 
L 44.921875 54.6875 
L 56.390625 54.6875 
L 27.390625 29.109375 
L 57.625 0 
L 45.90625 0 
L 18.109375 26.703125 
L 18.109375 0 
L 9.078125 0 
z
" id="DejaVuSans-107"/>
     <path d="M 41.109375 46.296875 
Q 39.59375 47.171875 37.8125 47.578125 
Q 36.03125 48 33.890625 48 
Q 26.265625 48 22.1875 43.046875 
Q 18.109375 38.09375 18.109375 28.8125 
L 18.109375 0 
L 9.078125 0 
L 9.078125 54.6875 
L 18.109375 54.6875 
L 18.109375 46.1875 
Q 20.953125 51.171875 25.484375 53.578125 
Q 30.03125 56 36.53125 56 
Q 37.453125 56 38.578125 55.875 
Q 39.703125 55.765625 41.0625 55.515625 
z
" id="DejaVuSans-114"/>
    </defs>
    <g transform="translate(30.550858 94.777745)scale(0.1 -0.1)">
     <use xlink:href="#DejaVuSans-112"/>
     <use x="63.476562" xlink:href="#DejaVuSans-104"/>
     <use x="126.855469" xlink:href="#DejaVuSans-46"/>
     <use x="158.642578" xlink:href="#DejaVuSans-107"/>
     <use x="214.802734" xlink:href="#DejaVuSans-97"/>
     <use x="276.082031" xlink:href="#DejaVuSans-114"/>
     <use x="315.445312" xlink:href="#DejaVuSans-110"/>
     <use x="378.824219" xlink:href="#DejaVuSans-111"/>
    </g>
   </g>
   <g id="text_22">
    <!-- pat.karno -->
    <g transform="translate(48.798313 250.008493)scale(0.1 -0.1)">
     <use xlink:href="#DejaVuSans-112"/>
     <use x="63.476562" xlink:href="#DejaVuSans-97"/>
     <use x="124.755859" xlink:href="#DejaVuSans-116"/>
     <use x="163.964844" xlink:href="#DejaVuSans-46"/>
     <use x="195.751953" xlink:href="#DejaVuSans-107"/>
     <use x="251.912109" xlink:href="#DejaVuSans-97"/>
     <use x="313.191406" xlink:href="#DejaVuSans-114"/>
     <use x="352.554688" xlink:href="#DejaVuSans-110"/>
     <use x="415.933594" xlink:href="#DejaVuSans-111"/>
    </g>
   </g>
   <g id="text_23">
    <!-- ph.ecog -->
    <g transform="translate(75.053773 83.08362)scale(0.1 -0.1)">
     <use xlink:href="#DejaVuSans-112"/>
     <use x="63.476562" xlink:href="#DejaVuSans-104"/>
     <use x="126.855469" xlink:href="#DejaVuSans-46"/>
     <use x="158.642578" xlink:href="#DejaVuSans-101"/>
     <use x="220.166016" xlink:href="#DejaVuSans-99"/>
     <use x="275.146484" xlink:href="#DejaVuSans-111"/>
     <use x="336.328125" xlink:href="#DejaVuSans-103"/>
    </g>
   </g>
   <g id="text_24">
    <!-- pat.karno -->
    <g transform="translate(276.024257 234.681335)scale(0.1 -0.1)">
     <use xlink:href="#DejaVuSans-112"/>
     <use x="63.476562" xlink:href="#DejaVuSans-97"/>
     <use x="124.755859" xlink:href="#DejaVuSans-116"/>
     <use x="163.964844" xlink:href="#DejaVuSans-46"/>
     <use x="195.751953" xlink:href="#DejaVuSans-107"/>
     <use x="251.912109" xlink:href="#DejaVuSans-97"/>
     <use x="313.191406" xlink:href="#DejaVuSans-114"/>
     <use x="352.554688" xlink:href="#DejaVuSans-110"/>
     <use x="415.933594" xlink:href="#DejaVuSans-111"/>
    </g>
   </g>
   <g id="text_25">
    <!-- ph.ecog -->
    <g transform="translate(97.828201 237.306368)scale(0.1 -0.1)">
     <use xlink:href="#DejaVuSans-112"/>
     <use x="63.476562" xlink:href="#DejaVuSans-104"/>
     <use x="126.855469" xlink:href="#DejaVuSans-46"/>
     <use x="158.642578" xlink:href="#DejaVuSans-101"/>
     <use x="220.166016" xlink:href="#DejaVuSans-99"/>
     <use x="275.146484" xlink:href="#DejaVuSans-111"/>
     <use x="336.328125" xlink:href="#DejaVuSans-103"/>
    </g>
   </g>
   <g id="text_26">
    <!-- ph.karno -->
    <g transform="translate(230.643207 247.38346)scale(0.1 -0.1)">
     <use xlink:href="#DejaVuSans-112"/>
     <use x="63.476562" xlink:href="#DejaVuSans-104"/>
     <use x="126.855469" xlink:href="#DejaVuSans-46"/>
     <use x="158.642578" xlink:href="#DejaVuSans-107"/>
     <use x="214.802734" xlink:href="#DejaVuSans-97"/>
     <use x="276.082031" xlink:href="#DejaVuSans-114"/>
     <use x="315.445312" xlink:href="#DejaVuSans-110"/>
     <use x="378.824219" xlink:href="#DejaVuSans-111"/>
    </g>
   </g>
   <g id="patch_7">
    <path d="M 143.870034 290.787761 
Q 143.658023 290.945715 144.342575 290.435707 
" style="fill:none;stroke:#000000;stroke-linecap:round;"/>
    <path d="M 148.745107 289.649757 
L 144.342575 290.435707 
L 146.355335 286.442112 
" style="fill:none;stroke:#000000;stroke-linecap:round;"/>
   </g>
   <g id="patch_8">
    <path d="M 222.827267 291.440275 
Q 223.294685 291.589257 222.69687 291.398713 
" style="fill:none;stroke:#000000;stroke-linecap:round;"/>
    <path d="M 219.493143 288.278435 
L 222.69687 291.398713 
L 218.278412 292.089528 
" style="fill:none;stroke:#000000;stroke-linecap:round;"/>
   </g>
   <g id="patch_9">
    <path d="M 141.651581 291.84915 
Q 142.548796 291.476409 142.413532 291.532604 
" style="fill:none;stroke:#000000;stroke-linecap:round;"/>
    <path d="M 137.952317 291.220254 
L 142.413532 291.532604 
L 139.486923 294.914166 
" style="fill:none;stroke:#000000;stroke-linecap:round;"/>
   </g>
   <g id="patch_10">
    <path d="M 227.468796 293.091147 
Q 226.568316 292.718406 226.700867 292.773274 
" style="fill:none;stroke:#000000;stroke-linecap:round;"/>
    <path d="M 229.631818 296.151073 
L 226.700867 292.773274 
L 231.161677 292.455192 
" style="fill:none;stroke:#000000;stroke-linecap:round;"/>
   </g>
   <g id="patch_11">
    <path d="M 46.500139 85.723464 
Q 46.296297 85.506419 46.857849 86.104342 
" style="fill:none;stroke:#000000;stroke-linecap:round;"/>
    <path d="M 48.138351 90.389236 
L 46.857849 86.104342 
L 51.054065 87.650876 
" style="fill:none;stroke:#000000;stroke-linecap:round;"/>
   </g>
   <g id="patch_12">
    <path d="M 93.444389 241.897235 
Q 94.361591 241.653783 94.198177 241.697157 
" style="fill:none;stroke:#000000;stroke-linecap:round;"/>
    <path d="M 89.818956 240.790278 
L 94.198177 241.697157 
L 90.845141 244.656406 
" style="fill:none;stroke:#000000;stroke-linecap:round;"/>
   </g>
   <g id="patch_13">
    <path d="M 73.062471 82.442518 
Q 60.573365 83.760823 49.196116 84.961764 
" style="fill:none;stroke:#000000;stroke-linecap:round;"/>
    <path d="M 53.383962 86.530821 
L 49.196116 84.961764 
L 52.96407 82.552921 
" style="fill:none;stroke:#000000;stroke-linecap:round;"/>
   </g>
   <g id="patch_14">
    <path d="M 279.080347 237.273844 
Q 278.162761 237.517296 278.32582 237.474033 
" style="fill:none;stroke:#000000;stroke-linecap:round;"/>
    <path d="M 282.704946 238.381368 
L 278.32582 237.474033 
L 281.679164 234.515134 
" style="fill:none;stroke:#000000;stroke-linecap:round;"/>
   </g>
   <g id="patch_15">
    <path d="M 100.055315 239.992665 
Q 99.584135 240.142532 100.178393 239.953518 
" style="fill:none;stroke:#000000;stroke-linecap:round;"/>
    <path d="M 104.596432 240.647015 
L 100.178393 239.953518 
L 103.384014 236.835186 
" style="fill:none;stroke:#000000;stroke-linecap:round;"/>
   </g>
   <g id="patch_16">
    <path d="M 271.99282 239.230846 
Q 272.69184 239.029273 272.3166 239.137479 
" style="fill:none;stroke:#000000;stroke-linecap:round;"/>
    <path d="M 267.919056 238.324084 
L 272.3166 239.137479 
L 269.027358 242.167477 
" style="fill:none;stroke:#000000;stroke-linecap:round;"/>
   </g>
   <g id="legend_1">
    <g id="patch_17">
     <path d="M 392.9067 74.22125 
L 447.214513 74.22125 
Q 449.214513 74.22125 449.214513 72.22125 
L 449.214513 14.230625 
Q 449.214513 12.230625 447.214513 12.230625 
L 392.9067 12.230625 
Q 390.9067 12.230625 390.9067 14.230625 
L 390.9067 72.22125 
Q 390.9067 74.22125 392.9067 74.22125 
z
" style="fill:#ffffff;opacity:0.8;stroke:#cccccc;stroke-linejoin:miter;"/>
    </g>
    <g id="text_27">
     <!-- cor_signal -->
     <defs>
      <path d="M 50.984375 -16.609375 
L 50.984375 -23.578125 
L -0.984375 -23.578125 
L -0.984375 -16.609375 
z
" id="DejaVuSans-95"/>
      <path d="M 9.421875 54.6875 
L 18.40625 54.6875 
L 18.40625 0 
L 9.421875 0 
z
M 9.421875 75.984375 
L 18.40625 75.984375 
L 18.40625 64.59375 
L 9.421875 64.59375 
z
" id="DejaVuSans-105"/>
     </defs>
     <g transform="translate(394.9067 23.829063)scale(0.1 -0.1)">
      <use xlink:href="#DejaVuSans-99"/>
      <use x="54.980469" xlink:href="#DejaVuSans-111"/>
      <use x="116.162109" xlink:href="#DejaVuSans-114"/>
      <use x="157.275391" xlink:href="#DejaVuSans-95"/>
      <use x="207.275391" xlink:href="#DejaVuSans-115"/>
      <use x="259.375" xlink:href="#DejaVuSans-105"/>
      <use x="287.158203" xlink:href="#DejaVuSans-103"/>
      <use x="350.634766" xlink:href="#DejaVuSans-110"/>
      <use x="414.013672" xlink:href="#DejaVuSans-97"/>
      <use x="475.292969" xlink:href="#DejaVuSans-108"/>
     </g>
    </g>
    <g id="line2d_15"/>
    <g id="line2d_16">
     <defs>
      <path d="M 0 5 
C 1.326016 5 2.597899 4.473168 3.535534 3.535534 
C 4.473168 2.597899 5 1.326016 5 0 
C 5 -1.326016 4.473168 -2.597899 3.535534 -3.535534 
C 2.597899 -4.473168 1.326016 -5 0 -5 
C -1.326016 -5 -2.597899 -4.473168 -3.535534 -3.535534 
C -4.473168 -2.597899 -5 -1.326016 -5 0 
C -5 1.326016 -4.473168 2.597899 -3.535534 3.535534 
C -2.597899 4.473168 -1.326016 5 0 5 
z
" id="me59e520323" style="stroke:#ffa500;"/>
     </defs>
     <g>
      <use style="fill:#ffa500;stroke:#ffa500;" x="411.07545" xlink:href="#me59e520323" y="35.285313"/>
     </g>
    </g>
    <g id="text_28">
     <!-- 1 -->
     <g transform="translate(429.07545 38.785313)scale(0.1 -0.1)">
      <use xlink:href="#DejaVuSans-49"/>
     </g>
    </g>
    <g id="line2d_17"/>
    <g id="line2d_18">
     <defs>
      <path d="M 0 5 
C 1.326016 5 2.597899 4.473168 3.535534 3.535534 
C 4.473168 2.597899 5 1.326016 5 0 
C 5 -1.326016 4.473168 -2.597899 3.535534 -3.535534 
C 2.597899 -4.473168 1.326016 -5 0 -5 
C -1.326016 -5 -2.597899 -4.473168 -3.535534 -3.535534 
C -4.473168 -2.597899 -5 -1.326016 -5 0 
C -5 1.326016 -4.473168 2.597899 -3.535534 3.535534 
C -2.597899 4.473168 -1.326016 5 0 5 
z
" id="m8c612b1729" style="stroke:#d3d3d3;"/>
     </defs>
     <g>
      <use style="fill:#d3d3d3;stroke:#d3d3d3;" x="411.07545" xlink:href="#m8c612b1729" y="49.963438"/>
     </g>
    </g>
    <g id="text_29">
     <!-- 0 -->
     <g transform="translate(429.07545 53.463438)scale(0.1 -0.1)">
      <use xlink:href="#DejaVuSans-48"/>
     </g>
    </g>
    <g id="line2d_19"/>
    <g id="line2d_20">
     <defs>
      <path d="M 0 5 
C 1.326016 5 2.597899 4.473168 3.535534 3.535534 
C 4.473168 2.597899 5 1.326016 5 0 
C 5 -1.326016 4.473168 -2.597899 3.535534 -3.535534 
C 2.597899 -4.473168 1.326016 -5 0 -5 
C -1.326016 -5 -2.597899 -4.473168 -3.535534 -3.535534 
C -4.473168 -2.597899 -5 -1.326016 -5 0 
C -5 1.326016 -4.473168 2.597899 -3.535534 3.535534 
C -2.597899 4.473168 -1.326016 5 0 5 
z
" id="mc47394f157" style="stroke:#87ceeb;"/>
     </defs>
     <g>
      <use style="fill:#87ceeb;stroke:#87ceeb;" x="411.07545" xlink:href="#mc47394f157" y="64.641563"/>
     </g>
    </g>
    <g id="text_30">
     <!-- -1 -->
     <g transform="translate(429.07545 68.141563)scale(0.1 -0.1)">
      <use xlink:href="#DejaVuSans-45"/>
      <use x="36.083984" xlink:href="#DejaVuSans-49"/>
     </g>
    </g>
   </g>
  </g>
 </g>
 <defs>
  <clipPath id="pbc73ae5261">
   <rect height="243.49875" width="343.254" x="30.49" y="74.22125"/>
  </clipPath>
 </defs>
</svg>
